<svg id="Layer_1" data-name="Layer 1" xmlns="http://www.w3.org/2000/svg" viewBox="0 0 400 600"><defs><style>.cls-1{fill:#1a1a1a;}.cls-2{fill:#fff;}.cls-3,.cls-4{fill:none;stroke-miterlimit:10;}.cls-3{stroke:#fff;}.cls-4{stroke:#f9f9f9;}</style></defs><title>Phone</title><rect class="cls-1" x="43.81" y="28.57" width="309.31" height="542.86" rx="15.22" ry="15.22"/><path d="M337.9,29.07a14.74,14.74,0,0,1,14.72,14.72V556.21a14.74,14.74,0,0,1-14.72,14.72H59a14.74,14.74,0,0,1-14.72-14.72V43.79A14.74,14.74,0,0,1,59,29.07H337.9m0-1H59A15.72,15.72,0,0,0,43.31,43.79V556.21A15.72,15.72,0,0,0,59,571.93H337.9a15.72,15.72,0,0,0,15.72-15.72V43.79A15.72,15.72,0,0,0,337.9,28.07Z"/><rect class="cls-1" x="51.06" y="34.21" width="294.74" height="528.44" rx="15.34" ry="15.34"/><path d="M330.45,34.71A14.86,14.86,0,0,1,345.3,49.55V547.31a14.86,14.86,0,0,1-14.84,14.84h-264a14.86,14.86,0,0,1-14.84-14.84V49.55A14.86,14.86,0,0,1,66.41,34.71h264m0-1h-264A15.84,15.84,0,0,0,50.56,49.55V547.31a15.84,15.84,0,0,0,15.84,15.84h264a15.84,15.84,0,0,0,15.84-15.84V49.55a15.84,15.84,0,0,0-15.84-15.84Z"/><rect class="cls-1" x="58.44" y="71.1" width="276.71" height="443.78"/><path d="M334.65,71.6V514.38H58.94V71.6H334.65m1-1H57.94V515.38H335.65V70.6Z"/><path class="cls-2" d="M200,555.33a15.4,15.4,0,1,1,15.4-15.4A15.41,15.41,0,0,1,200,555.33Z"/><path d="M200,525a14.9,14.9,0,1,1-14.9,14.9A14.91,14.91,0,0,1,200,525m0-1a15.9,15.9,0,1,0,15.9,15.9A15.9,15.9,0,0,0,200,524Z"/><line class="cls-3" x1="300.23" y1="544.15" x2="297.28" y2="546.84"/><circle class="cls-3" cx="305.15" cy="539.66" r="5.91"/><line class="cls-4" x1="86.76" y1="539.82" x2="105.66" y2="539.94"/><polyline class="cls-4" points="92.92 544.71 86.24 540.68 86.28 539.46 93.19 535.03"/></svg>