<svg xmlns="http://www.w3.org/2000/svg" preserveAspectRatio="xMinYMax meet" viewBox="0 0 566.881 566.881"><path fill="#2B325D" d="M443.618 566.88H0V0h566.88v443.618c0 68.076-55.185 123.263-123.262 123.263"/><path fill="#FFF" d="M252.352 178.676c0 .916-.74 1.658-1.655 1.658-.917 0-1.656-.742-1.656-1.658s.74-1.656 1.657-1.656c.915 0 1.655.74 1.655 1.656M189.947 232.548c0 .915-.742 1.658-1.658 1.658-.916 0-1.656-.743-1.656-1.658s.74-1.657 1.655-1.657 1.657.743 1.657 1.658M325.123 181.148c0 .915-.74 1.657-1.657 1.657-.915 0-1.657-.742-1.657-1.657s.74-1.655 1.656-1.655c.915 0 1.657.74 1.657 1.655M386.082 245.825c0 .915-.74 1.657-1.66 1.657-.914 0-1.656-.742-1.656-1.657 0-.916.742-1.656 1.657-1.656.917-.002 1.66.74 1.66 1.655M391.356 273.988c0 .915-.74 1.656-1.656 1.656-.918 0-1.656-.74-1.656-1.656s.738-1.655 1.656-1.655c.915 0 1.656.74 1.656 1.655M195.36 318.196c-.497-1.17-.95-1.86-1.36-2.065-.41-.206-1.284-.106-2.622.3l-13.44 4.077c-1.114.338-1.786.727-2.02 1.167-.23.438-.215 1.242.05 2.407l-.578.175-2.61-8.605.58-.175c.423 1.11.854 1.783 1.292 2.022.44.24 1.215.19 2.33-.147l6.043-1.832-2.858-9.417-6.043 1.833c-1.114.34-1.788.725-2.02 1.158-.236.437-.22 1.24.05 2.416l-.577.175-2.61-8.604.578-.175c.426 1.117.857 1.792 1.295 2.03.438.235 1.213.185 2.326-.154l13.8-4.186c1.13-.343 1.802-.73 2.017-1.164.215-.436.2-1.238-.045-2.408l.576-.176 2.61 8.605-.577.175c-.49-1.185-.94-1.877-1.354-2.076-.412-.2-1.29-.096-2.628.31l-6.026 1.828 2.855 9.417 6.388-1.937c1.128-.343 1.8-.732 2.02-1.172.22-.437.204-1.237-.05-2.398l.577-.175 2.61 8.604-.58.176zM169.94 293.62c-2.02-1.89-3.11-4.29-3.27-7.2-.16-2.923.664-5.435 2.475-7.535 1.958-2.276 4.668-3.51 8.126-3.702 3.516-.193 6.37.772 8.57 2.894 1.968 1.903 3.03 4.273 3.185 7.11.167 3.04-.722 5.617-2.668 7.736-1.987 2.15-4.625 3.317-7.916 3.498-3.457.192-6.292-.742-8.5-2.8m15.743-3.295c1.556-1.433 2.28-3.125 2.173-5.08-.107-1.914-.988-3.506-2.652-4.777-1.662-1.27-4.24-1.81-7.73-1.617-3.534.195-6.048 1.022-7.546 2.483-1.494 1.46-2.19 3.132-2.087 5.013.108 1.946 1.013 3.546 2.717 4.806 1.705 1.257 4.267 1.793 7.683 1.603 3.405-.186 5.887-1 7.443-2.43M187.557 273.606c.107-1.343-.037-2.242-.43-2.7-.395-.46-1.434-.84-3.116-1.15l-14.062-2.57-.593.343c-.636.366-1.05.7-1.237 1.005-.19.303-.354.78-.496 1.43l-.593-.107.996-5.45 17.512-9.52-10.6-1.938c-1.745-.317-2.927-.267-3.548.156-.403.28-.763.996-1.08 2.147l-.592-.108 1.372-7.502.592.107c-.098 1.24.05 2.107.44 2.6.396.49 1.428.89 3.1 1.195l16.797 3.068-.104.55-20.075 10.914 12.43 2.27c1.745.32 2.928.27 3.55-.14.403-.27.773-.973 1.108-2.102l.593.106-1.37 7.505-.593-.11zM192.47 250.44c.382-1.27.5-2.143.357-2.614s-.798-.93-1.968-1.373l-13.497-5.106c-1.117-.423-1.906-.512-2.367-.268-.46.243-.952.973-1.48 2.187l-.566-.215 3.404-8.996.566.215c-.408 1.26-.52 2.134-.34 2.622.186.487.835.942 1.953 1.365l13.496 5.105c1.17.444 1.963.535 2.382.275s.907-.992 1.464-2.195l.566.215-3.405 8.996-.566-.213zM195.466 228.926c1.515.36 2.84.476 3.97.348 1.97-.223 3.487-1.125 4.553-2.707.573-.855.798-1.78.675-2.77-.125-.99-.674-1.813-1.648-2.47-.878-.59-1.852-.787-2.926-.593-.688.135-1.89.587-3.604 1.354l-2.98 1.336c-.904.396-1.72.65-2.445.762-1.36.188-2.557-.062-3.583-.753-1.36-.915-2.19-2.128-2.486-3.638s.056-3.01 1.058-4.5c.41-.613 1.06-1.25 1.943-1.91.884-.658 1.365-1.05 1.447-1.172.224-.334.3-.617.228-.85-.072-.234-.23-.482-.473-.747l.373-.556 6.133 3.268-.43.64c-2.023-.723-3.703-.83-5.038-.32-1.335.51-2.32 1.24-2.956 2.187-.496.736-.713 1.525-.646 2.365.065.842.485 1.52 1.257 2.04.693.466 1.428.654 2.2.563.784-.084 1.745-.387 2.887-.906l3.05-1.385c1.908-.866 3.448-1.348 4.62-1.44 1.17-.077 2.283.238 3.337.945 1.41.948 2.232 2.272 2.464 3.972.234 1.7-.205 3.375-1.317 5.03-.56.83-1.302 1.59-2.226 2.283-.926.693-1.432 1.104-1.52 1.236-.212.313-.257.59-.136.83.12.242.28.454.48.638l-.398.588-6.276-3.05.416-.62zM198.438 203.305c.105-2.762 1.204-5.157 3.3-7.188 2.103-2.035 4.537-3.06 7.306-3.072 3.002-.016 5.707 1.22 8.115 3.703 2.444 2.522 3.583 5.31 3.42 8.36-.148 2.73-1.245 5.084-3.284 7.06-2.186 2.118-4.715 3.138-7.588 3.058-2.926-.088-5.53-1.312-7.82-3.676-2.41-2.483-3.56-5.23-3.45-8.245m12.788 9.703c2.097.235 3.85-.328 5.254-1.69 1.374-1.332 2-3.04 1.87-5.125-.128-2.085-1.407-4.38-3.833-6.884-2.457-2.536-4.726-3.888-6.806-4.06-2.08-.17-3.794.4-5.146 1.71-1.397 1.353-2.014 3.085-1.85 5.19.165 2.11 1.437 4.39 3.812 6.84 2.37 2.445 4.603 3.785 6.7 4.018M225.24 203.83c1.034-.827 1.628-1.475 1.782-1.942.152-.47-.125-1.215-.832-2.242l-8.18-11.887c-.674-.98-1.27-1.5-1.787-1.563-.514-.06-1.336.26-2.46.956l-.345-.502 7.91-5.444.346.502c-1.054.8-1.644 1.455-1.772 1.96-.128.503.146 1.245.82 2.226l8.18 11.886c.707 1.028 1.308 1.554 1.797 1.577.492.025 1.31-.3 2.45-.97l.346.5-7.91 5.446-.346-.502zM225.176 178.56l16.557-7.897 2.543 4.91-.694.332c-1.09-1.4-2.015-2.21-2.77-2.432-.757-.22-1.985.077-3.686.89l-1.627.774 7.146 14.987c.54 1.128 1.048 1.743 1.53 1.846.483.1 1.343-.09 2.577-.573l.26.547-8.553 4.08-.26-.55c1.195-.685 1.87-1.257 2.027-1.714.158-.457-.063-1.314-.662-2.57l-6.992-14.656-1.626.775c-1.624.772-2.618 1.534-2.982 2.28-.364.75-.32 1.982.136 3.697l-.71.34-2.214-5.068zM260.63 167.745c1.715-2.166 4.02-3.447 6.905-3.843 2.848-.39 5.393.216 7.64 1.816 2.467 1.763 3.938 4.377 4.415 7.84.375 2.744 0 5.157-1.135 7.243-1.226 2.247-3.185 3.827-5.875 4.74 1.555 1.69 3.308 2.8 5.256 3.33 1.098.296 2.537.427 4.324.395l.083.597-1.317.182c-1.736.237-3.296.307-4.678.21-1.383-.1-2.662-.36-3.84-.786-1.176-.416-2.3-1.062-3.374-1.94-1.074-.876-1.667-1.334-1.777-1.372l-.436-.132c-1.894-.583-3.4-1.335-4.52-2.26-2.083-1.708-3.34-4.147-3.775-7.318-.47-3.434.23-6.334 2.104-8.7m4.558 15.428c1.553 1.436 3.3 2.02 5.24 1.755 1.897-.262 3.413-1.272 4.543-3.032 1.132-1.76 1.46-4.375.983-7.84-.48-3.51-1.508-5.95-3.085-7.322-1.58-1.374-3.3-1.933-5.166-1.676-1.93.265-3.45 1.297-4.566 3.1-1.114 1.8-1.44 4.397-.974 7.79.464 3.38 1.472 5.79 3.026 7.224M292.567 163.935l-.06.597c-1.248-.035-2.07.096-2.47.394-.397.297-.654 1.04-.77 2.23l-.983 10.33c-.16 1.692-.055 3.032.316 4.023.697 1.805 2.25 2.822 4.658 3.053 2.637.252 4.493-.462 5.567-2.143.598-.94.995-2.44 1.192-4.502l.8-8.405c.17-1.757.063-2.88-.314-3.367-.377-.487-1.152-.846-2.318-1.073l.058-.596 7.48.713-.058.596c-1.266.018-2.114.242-2.54.674-.43.432-.726 1.496-.888 3.19l-.803 8.407c-.212 2.23-.718 3.938-1.52 5.123-1.482 2.182-3.988 3.105-7.518 2.768-3.49-.332-5.76-1.695-6.8-4.086-.57-1.285-.757-2.926-.566-4.924l.96-10.094c.115-1.18.005-1.954-.326-2.32-.333-.365-1.104-.656-2.32-.867l.058-.596 9.165.875zM305.086 186.2c1.3.27 2.18.312 2.637.13.457-.18.858-.872 1.197-2.073l3.917-13.9c.323-1.145.343-1.937.058-2.373-.28-.437-1.056-.863-2.31-1.283l.165-.59 9.247 2.61-.164.587c-1.29-.3-2.173-.336-2.642-.112-.47.225-.867.908-1.19 2.055l-3.917 13.9c-.34 1.2-.362 1.997-.065 2.393.294.394 1.067.814 2.317 1.265l-.165.588-9.25-2.606.166-.59zM324.79 192.768c1.192.63 2.08.856 2.655.676.576-.18 1.34-.98 2.29-2.403l7.306-10.958c.65-.974.92-1.71.81-2.21-.113-.5-.697-1.14-1.752-1.92l.338-.503 5.33 3.553-2.772 17.58 15.01-9.422 5.367 3.578-.337.505c-1.05-.598-1.816-.846-2.304-.745-.486.1-1.048.63-1.685 1.587l-8 12c-.654.982-.933 1.71-.825 2.18s.63 1.084 1.574 1.838l-.336.506-7.557-5.038.337-.506c1.148.64 1.958.897 2.43.773.47-.125 1.086-.758 1.848-1.9l8.077-12.117-17.16 10.77-.37-.245 3.04-19.27-7.17 10.76c-.985 1.477-1.412 2.58-1.28 3.314.088.477.58 1.092 1.482 1.846l-.335.506-6.345-4.23.336-.506zM348.343 209.51l.452-.387c.613.572 1.26.843 1.938.812.68-.033 2.25-.44 4.72-1.226l16.494-5.25.427.496-8.73 18.078c-.58 1.208-.876 2.03-.885 2.464-.012.435.19.976.608 1.624l-.452.387-5.38-6.278.45-.386c.684.668 1.164 1.067 1.436 1.197.27.128.585.04.947-.27.12-.105.298-.327.534-.67.235-.34.46-.728.675-1.16l1.53-3.024-5.538-6.46c-2.178.732-3.495 1.19-3.96 1.37-.465.182-.802.362-1.01.54-.417.36-.56.775-.436 1.25.084.29.346.74.79 1.355l-.453.387-4.16-4.852zm15.41 5.14l4.363-8.628-9.192 2.998 4.828 5.63zM364.138 227.324c.662 1 1.21 1.59 1.637 1.765.427.175 1.183-.018 2.263-.577l12.832-6.66c1.022-.53 1.61-1.03 1.763-1.502.153-.472-.01-1.26-.49-2.367l.534-.277 4.224 8.142-.53.274c-.61-1.032-1.153-1.65-1.632-1.862-.48-.21-1.198-.066-2.16.433l-13.848 7.185c-.318.165-.54.35-.668.553-.128.204-.118.5.023.892.083.23.182.466.298.71.115.245.343.696.684 1.353 1.327 2.56 2.438 4.182 3.324 4.864.894.68 2.427.993 4.597.937l.38.73-5.716 1.182-8.04-15.5.528-.276zM397.64 255.784l-.592.113c-.123-.75-.287-1.3-.493-1.646-.207-.348-.533-.48-.98-.393-.132.027-.295.09-.487.19-.19.102-.428.293-.72.576l-5.977 6.02 7.87 3.23c.338.128.61.202.817.22.207.02.36.02.45.003.46-.088.712-.39.763-.905.04-.307-.008-.815-.133-1.524l.593-.11 1.338 6.963-.59.113c-.156-.637-.456-1.174-.907-1.614-.7-.684-1.89-1.372-3.574-2.068l-8.1-3.324-6.19 1.192c-1.232.236-1.964.583-2.19 1.04-.23.458-.248 1.387-.053 2.787l-.59.113-1.87-9.717.59-.112c.358 1.426.746 2.277 1.16 2.56.413.28 1.314.285 2.702.02l5.53-1.064 5.31-5.348c1.828-1.847 2.982-3.118 3.467-3.813.486-.695.667-1.463.55-2.3l.59-.114 1.717 8.914zM379.796 281.368c-.012 1.237.15 2.027.488 2.37.34.343 1.173.582 2.5.72l13.99 1.458c1.126.116 1.885.024 2.277-.278.398-.303.7-1.026.916-2.168l.595.062-.885 8.508c-.285 2.73-1.033 4.764-2.247 6.102-1.212 1.34-2.685 1.918-4.417 1.738-2.198-.23-3.706-1.2-4.53-2.908-.816-1.71-1.103-3.772-.852-6.188.038-.347.092-.79.165-1.33.075-.536.125-.937.154-1.2l-5.867-.61c-1.216-.128-2-.02-2.353.32-.352.342-.645 1.154-.873 2.44l-.596-.062.94-9.034.598.06zm17.84 12.857c.497-.87.82-2.004.964-3.4.068-.66.047-1.073-.07-1.238-.116-.167-.4-.272-.853-.32l-8.436-.878c-.108.57-.178.946-.206 1.123-.03.177-.053.35-.067.517-.157 1.48-.07 2.665.265 3.56.608 1.622 1.962 2.543 4.067 2.763 1.98.204 3.424-.506 4.336-2.128M377.502 299.093c-.235 1.18-.26 1.982-.078 2.41.182.428.855.823 2.023 1.19l13.767 4.295c1.104.345 1.876.403 2.32.176.44-.227.884-.904 1.323-2.03l.57.18-5.137 16.457-4.446-1.274.245-.793c1.443.164 2.448.046 3.01-.352.562-.397 1.128-1.5 1.692-3.31l1.32-4.225c.14-.457.152-.76.04-.912-.11-.152-.37-.292-.773-.417l-6.924-2.16-1.5 4.795c-.412 1.32-.478 2.22-.198 2.706.278.484.98 1.024 2.107 1.62l-.227.724-7.16-2.235.226-.724c1.27.145 2.16.094 2.662-.145.502-.242.957-1.018 1.366-2.326l1.5-4.797-7.667-2.392c-.615-.19-1.037-.11-1.272.245-.23.354-.65 1.5-1.255 3.44-.655 2.102-.91 3.726-.766 4.868.148 1.144.98 2.387 2.494 3.73l-.27.862-4.788-3.037 5.226-16.742.568.177zM370.84 319.98c-.583 1.212-.77 2.103-.57 2.673.203.57 1.034 1.3 2.496 2.19l12.2 7.466.676-.106c.727-.114 1.233-.277 1.52-.49s.61-.6.973-1.156l.51.31-2.903 4.745-19.72 2.562 9.18 5.614c1.508.923 2.63 1.298 3.36 1.126.48-.117 1.073-.658 1.786-1.623l.505.31-3.976 6.503-.508-.31c.536-1.12.71-1.98.517-2.58-.188-.598-1.01-1.342-2.46-2.228l-14.568-8.91.285-.474 22.658-2.946-10.78-6.595c-1.516-.927-2.638-1.31-3.365-1.146-.475.106-1.073.63-1.794 1.566l-.507-.31 3.977-6.505.507.31zM361.543 345.174c-1.43-.616-2.712-.958-3.848-1.027-1.98-.12-3.63.506-4.954 1.88-.717.744-1.102 1.614-1.15 2.613-.05.996.347 1.905 1.19 2.72.762.733 1.69 1.1 2.783 1.095.704-.014 1.966-.25 3.788-.708l3.176-.8c.96-.232 1.807-.34 2.535-.32 1.37.055 2.502.51 3.394 1.37 1.18 1.137 1.782 2.472 1.814 4.012.03 1.536-.58 2.95-1.824 4.242-.515.532-1.263 1.044-2.247 1.54-.982.494-1.53.796-1.63.9-.28.29-.4.555-.37.797.032.244.144.516.338.82l-.46.478-5.474-4.29.54-.56c1.872 1.068 3.508 1.47 4.912 1.2 1.407-.266 2.506-.81 3.298-1.632.616-.64.964-1.38 1.047-2.217.08-.84-.216-1.582-.886-2.23-.6-.58-1.294-.893-2.07-.938-.788-.053-1.788.077-3.003.392l-3.247.833c-2.032.52-3.635.727-4.804.612-1.17-.13-2.21-.637-3.125-1.52-1.228-1.185-1.808-2.635-1.74-4.35.066-1.718.793-3.296 2.177-4.732.694-.724 1.56-1.345 2.595-1.867 1.032-.52 1.603-.84 1.714-.952.263-.274.356-.54.278-.796-.075-.258-.194-.493-.356-.707l.492-.512 5.647 4.106-.524.544zM345.843 352.964c-.907.783-1.42 1.397-1.54 1.843-.12.447.165 1.17.86 2.174l8.202 11.854c.656.946 1.23 1.465 1.715 1.56.488.093 1.25-.17 2.285-.783l.347.503-14.155 9.8-2.744-3.765.672-.465c1.04 1.023 1.907 1.55 2.6 1.582.694.033 1.824-.492 3.39-1.58l3.62-2.503c.39-.27.586-.5.59-.688.006-.19-.112-.458-.352-.803l-4.11-5.937-4.107 2.84c-1.13.784-1.738 1.45-1.814 2-.08.554.142 1.406.66 2.563l-.63.438-4.257-6.15.63-.435c.914.89 1.64 1.395 2.18 1.515.544.116 1.376-.213 2.498-.99l4.108-2.84-4.574-6.61c-.365-.53-.75-.727-1.152-.593-.4.137-1.433.78-3.1 1.936-1.807 1.25-3.002 2.37-3.586 3.36-.584.99-.696 2.486-.33 4.488l-.748.516-1.908-5.357 14.404-9.97.347.5zM240.107 140.038c.48 2.52 4.833 3.805 9.722 2.87 4.886-.933 8.456-3.733 7.974-6.254-.48-2.52-4.835-3.805-9.72-2.87-4.888.934-8.46 3.733-7.977 6.254M232.735 380.498c0 4.094 3.33 7.425 7.424 7.425 4.092 0 7.422-3.33 7.422-7.425s-3.33-7.425-7.423-7.425c-4.095 0-7.425 3.33-7.425 7.425m3.38 0c0-2.23 1.813-4.047 4.044-4.047 2.228 0 4.043 1.816 4.043 4.048 0 2.23-1.814 4.047-4.044 4.047-2.232 0-4.046-1.817-4.046-4.047M276.235 372.022c0 3.882 3.308 7.042 7.373 7.042 4.066 0 7.374-3.16 7.374-7.042s-3.308-7.042-7.374-7.042-7.373 3.16-7.373 7.042m3.278 0c0-2.075 1.837-3.762 4.095-3.762 2.26 0 4.097 1.687 4.097 3.762s-1.838 3.762-4.097 3.762c-2.258 0-4.095-1.687-4.095-3.762M276.09 437.472c0 4.094 3.33 7.425 7.424 7.425 4.093 0 7.422-3.33 7.422-7.425s-3.33-7.425-7.422-7.425c-4.094 0-7.424 3.33-7.424 7.425m3.378 0c0-2.23 1.815-4.047 4.046-4.047 2.23 0 4.045 1.816 4.045 4.047 0 2.23-1.816 4.047-4.046 4.047-2.23 0-4.046-1.816-4.046-4.048M275.78 400.844c-2.09.292-3.964 1.355-5.14 2.914-.98 1.298-1.4 2.847-1.19 4.362s1.043 2.89 2.34 3.87c1.56 1.175 3.653 1.682 5.744 1.39 2.09-.292 3.965-1.353 5.14-2.913.814-1.077 1.243-2.33 1.243-3.592 0-.258-.017-.514-.053-.77-.212-1.517-1.043-2.89-2.34-3.87-1.56-1.175-3.652-1.682-5.744-1.39m-2.13 8.682c-.452-.34-1.02-.937-1.144-1.833-.125-.897.256-1.624.597-2.076.687-.91 1.818-1.537 3.104-1.717 1.287-.178 2.547.11 3.457.8.452.34 1.018.935 1.144 1.833.125.897-.255 1.624-.597 2.076-.686.91-1.817 1.535-3.103 1.715-1.287.18-2.547-.11-3.457-.798M283.56 484.673l-.005-.108c-.017.017-.03.035-.05.052l-.03-.034-.002.072c-7.35 7.65-7.706 21.87.04 23.94v-.058c.003.023.003.05.004.074 7.745-2.068 7.39-16.284.043-23.937M317.245 142.41c4.89.935 9.242-.35 9.723-2.87.48-2.52-3.088-5.32-7.978-6.254-4.885-.935-9.24.35-9.718 2.87-.484 2.52 3.087 5.32 7.973 6.254M217.212 320.99c2.394-1.268 4.448-1.235 5.63.773.704 1.196 8.587 13.514 8.87 14.64.28 1.126.07 2.11-.563 2.604-2.113-3.52-7.814-12.6-8.73-14.077-1.267-1.83-2.533-4.082-5.208-3.94"/><path fill="#FFF" d="M347.354 162.118c2.42-1.278 4.073-5.092.16-7.19-.39-.21-.704-.282-1.36-.563l.723-1.81c1.41-.626 5.902-3.214 4.212-10.002l1.225-2.912c5.71-.62 10.1-8.33 2.404-12.444 5.178-8.106 9.914-14.75 14.1-20.158 1.098.486 2.53.284 3.648-.63 1.505-1.23 1.87-3.274.812-4.57-.05-.06-.113-.106-.17-.163 9.634-11.606 15.394-15.63 15.394-15.63s-10.135-6.333-19.707-8.867c1.97 10.98-2.534 20.552-2.534 20.552s-4.223-8.634-4.034-16.517c-.564 1.502-9.01 15.203-14.08 23.462 5.444-2.065 10.322-2.253 14.313-1.878-15.062 22.382-34.64 5.913-32.528-1.548 3.942.656 5.325-4.717.54-5.56.35-6.406 6.334-7.78 9.478-5.07 2.903 2.505 3.08 8.235-1.736 10.44 8.305 2.63 14.56-5.824 12.223-13.49-1.924-6.31-11.94-11.964-20.41 1.855 1.314-9.385 6.663-11.637 9.01-16.142 2.346-4.504-5.07-13.138-6.383-16.703-2.628 3.143-11.426 8.258-11.19 13.185.235 4.927 5.302 8.305 3.624 18.534-3.34-13.797-12.712-13.617-16.81-10.043-8.82 7.696-1.594 19.332 5.304 18.58-1.126-1.008-3.378-4.263-.934-8.134 2.575-4.628 11.84-3.9 10.177 5.437-5.49-.47-4.598 5.35-1.267 5.467-2.393 9.056-23.355 12.575-30.935-4.317 4.06.4 10.86 5.068 10.86 5.068V71.734s-7.132 3.754-10.32 4.317c2.815-7.6 10.064-13.23 10.064-13.23l-35.38.004s7.25 5.63 10.065 13.232c-3.19-.563-10.323-4.317-10.323-4.317v28.622s6.804-4.67 10.863-5.067c-7.578 16.89-28.542 13.373-30.935 4.316 3.332-.116 4.223-5.934-1.267-5.465-1.664-9.338 7.602-10.065 10.177-5.437 2.445 3.87.193 7.126-.934 8.135 6.897.75 14.125-10.886 5.303-18.58-4.1-3.575-13.468-3.755-16.812 10.04-1.677-10.23 3.39-13.607 3.625-18.534.235-4.928-8.563-10.042-11.19-13.186-1.313 3.566-8.728 12.2-6.384 16.704 2.346 4.504 7.694 6.757 9.01 16.14-8.47-13.818-18.486-8.163-20.41-1.852-2.337 7.664 3.918 16.117 12.224 13.49-4.817-2.206-4.642-7.936-1.736-10.44 3.144-2.71 9.126-1.338 9.478 5.067-4.786.844-3.403 6.218.538 5.56 2.11 7.46-17.465 23.93-32.527 1.55 3.99-.376 8.87-.19 14.312 1.876-5.068-8.26-13.516-21.96-14.08-23.462.19 7.883-4.033 16.516-4.033 16.516s-4.504-9.572-2.533-20.55c-9.57 2.532-19.707 8.867-19.707 8.867s5.758 4.023 15.39 15.63c-.054.056-.117.102-.168.164-1.06 1.294-.694 3.34.812 4.57 1.118.912 2.55 1.114 3.648.628 4.186 5.41 8.92 12.053 14.1 20.16-7.695 4.11-3.307 11.822 2.403 12.443l1.226 2.912c-1.69 6.788 2.802 9.376 4.212 10.002l.722 1.81c-.656.28-.97.354-1.36.562-4 2.147-2.184 6.09.324 7.277-41.343 22.655-69.44 66.603-69.44 116.994 0 25.112 6.915 49.105 19.647 69.788-2.468 1.472-3.502 2.78-2.94 3.997.562 1.22 9.008 14.828 9.758 15.953.752 1.125 3.637 1.312 5.396-.306-2.147-3.477-5.12-8.728-6.338-10.895 6.06 8.285 13.128 15.922 21.12 22.755l-.846.99s-1.686 1.314-.028 3.047c1.153 1.206 1.157 1.385 2.842 2.612 1.944 1.417 3.615-.762 3.615-.762l.99-1.157c9.962 8.104 29.138 23.287 51.42 33.398v13.73c-2.792.2-5.208 2.26-5.513 6.186 2.385-.762 5.387 1.204 5.418 6.51.047 7.978.094 18.252.094 27.12 0 7.504 7.074 15.94 18.425 19.67.15-.48.316-.923.48-1.373-2.244-.8-10.268-3.986-12.44-9.46 4.46 4.31 10.982 6.484 13.354 7.168 3.466-7.754 8.18-10.06 8.616-10.26.05.02 5.035 2.18 8.655 10.278 2.37-.685 8.892-2.86 13.354-7.167-2.174 5.473-10.197 8.66-12.44 9.458.16.45.328.893.48 1.374 11.35-3.73 18.684-12.173 18.594-19.675-.106-8.974 0-19.24.108-27.135.075-5.305 2.85-7.254 5.234-6.49-.298-3.845-2.62-5.897-5.338-6.17l-.003-5.148c11.228-2.87 22.37-8.355 33.23-22.01 3.784-2.78 7.17-6.89 9.258-13.183 38.418-24.13 62.312-66.425 62.312-112.845-.007-50.455-28.175-94.453-69.61-117.084m-2.226-19.8c-3.212.057-6.013.05-7.678.644 1.643 2.035 3.48 4.066 5.067 5.748l-1.482 3.448c-9.994-3.847-27.073-9.478-52.938-10.58 4.787-2.535 9.044-4.716 13.97-7.532-2.814-2.11-5.42-3.94-11.05-7.038 30.51 1.875 45.55 7.977 55.695 11.43l-1.586 3.88zM283.53 138.6c-3.817-1.904-6.075-2.894-10.364-4.83 3.562-2.056 7.69-4.218 10.374-5.846 2.685 1.628 6.806 3.787 10.365 5.84-4.293 1.94-6.55 2.927-10.375 4.836m13.425-60.44l.013 14.887s-4.61-2.315-10.802-3.05c1.72-.89 2.905-2.665 2.905-4.734 0-1.895-.99-3.55-2.477-4.5 4.53-.148 10.36-2.603 10.36-2.603m-21.114-10.27l15.39-.005s-5.17 6.885-5.43 12.448c-.64-.27-1.34-.42-2.077-.42-.885 0-1.707.236-2.442.617-.15-5.595-5.44-12.64-5.44-12.64m-5.738 25.16l.013-14.885s6.15 2.585 10.725 2.603c-1.48.952-2.466 2.605-2.466 4.495 0 2.046 1.162 3.802 2.85 4.702-6.352.692-11.122 3.087-11.122 3.087m-56.622 24.763c21.396 4.13 27.756-8.82 29.163-13.044 19.13 17.987 41.32-1.485 39.006-14.576.64.268 1.34.417 2.073.417.59 0 1.147-.12 1.678-.295-2.148 13.09 19.957 32.376 39.024 14.447 1.408 4.223 7.77 17.173 29.165 13.045-11.26 8.82-26.63 3.706-30.15-6.288-7.11 7.043-30.817 8.216-39.724-8.288-.005-.247-.01-.458-.017-.622-.05.102-.11.195-.16.296-.056-.104-.114-.197-.166-.3-.007.164-.014.38-.018.632-8.907 16.503-32.614 15.33-39.726 8.287-3.518 9.994-18.885 15.108-30.147 6.287m4.504 15.883c-2.346.89-5.524-1.865-.634-3.87 26.324-10.277 51.286-11.92 66.396-12.013 15.147.12 39.885 1.823 65.97 12.006 4.893 2.006 1.715 4.763-.632 3.87-7.636-2.92-32.94-12.245-66.09-12.034v.007c-32.617-.003-57.457 9.145-65.01 12.033m2.372 4.745c10.146-3.455 25.186-9.556 55.693-11.43-5.63 3.095-8.235 4.925-11.05 7.037 4.926 2.815 9.183 4.997 13.97 7.53-25.865 1.103-42.943 6.734-52.94 10.582l-1.478-3.45c1.587-1.68 3.424-3.71 5.067-5.747-1.666-.595-4.465-.586-7.678-.644l-1.584-3.878zm-49.365 215.672c-1.125.655-2.814-.75-1.03-1.972s14.45-8.634 20.362-10.746c-5.35 4.785-18.205 12.06-19.332 12.717m62.125-19.685c-3.454-4.865-6.91-11.55-9.572-15.203-1.8-2.472-6.74 1.173-8.248-1.505-6.4-11.37-10.053-24.495-10.053-38.474 0-43.38 35.168-78.546 78.548-78.546s78.547 35.166 78.547 78.547c0 30.954-17.27 57.234-43.285 70.032-1.507.74 1.415-4.076-.773-3.378-7.454 2.375-17.903 7.32-33.995 7.32-5.687 0-13.69-.295-18.935-1.34-1.748-.346-2.526 3.208-4.223 2.746-10.453-2.844-18.46-7.17-26.745-14.146-1.515-1.274.28-3.87-1.267-6.052m-39.907 1.548c.06.042.122.097.184.14 2.314 4.216 6.086 10.147 8.38 10.863 3.003.94 6.192 0 5.066-4.504-.043-.172-.118-.354-.205-.54 2.442 1.754 2.054 4.978.11 6.45-4.08 3.1-9.102-.093-9.758-3.846-.657 6.944 8.195 11.084 12.855 5.35 4.86-5.98-.673-12.82-6.865-12.02-.328-.273-.664-.547-1.012-.82l10.773-6.632c4.038 5.577 8.767 10.712 14.126 15.29l-22.98 26.84c-8.176-6.99-15.3-14.905-21.276-23.532l11.98-7.415s-1.025-1.543-1.377-5.625m17.907-12.03c-8.187-13.255-12.637-28.643-12.637-44.72 0-46.98 38.207-85.202 85.17-85.202 46.964 0 85.172 38.22 85.172 85.2 0 33.102-19.526 63.25-48.836 77.128-.173.08-2.046.955-4.034 1.8.3-1.2.617-2.39.964-3.55.197-.658.44-1.156.706-1.805 5.817-2.72 10.8-6.042 14.646-8.95 19.998-15.12 32.298-39.1 32.298-64.646 0-44.606-36.275-80.896-80.867-80.896s-80.868 36.29-80.868 80.896c0 15.16 4.295 29.83 12.06 42.438l-3.775 2.307m3.548 5.288l3.765-2.317c3.673 5.035 7.933 9.667 12.73 13.778l-2.83 3.305c-5.18-4.424-9.752-9.383-13.665-14.765m93.337 73.608c-1.563-.833-3.126-1.75-4.688-2.718.038-3.588.62-41.144 7.7-49.317 1.452-.52 2.82-1.048 4.088-1.565-7.808 15.393-7.175 47.19-7.1 53.6m-6.667-3.98c-11.698-7.65-23.353-18.664-34.206-29.38.282-4.124 1.562-11.198 5.506-14.552 15.1 1.782 26.767-.367 35.492-3.147-6.844 10.343-6.826 42.812-6.792 47.08m-36.575-31.725c-1.14-1.13-2.27-2.25-3.387-3.364.097-.975 1.007-8.803 5.208-9.75 1.098.196 2.182.377 3.247.532-3.448 2.504-4.716 9.933-5.067 12.583m-7.444-10.86c-.49 1.25-.694 2.168-.775 2.71-1.608-1.584-3.19-3.134-4.743-4.625 1.98.79 3.892 1.456 5.517 1.914m-20.048-10.2c29.247 24.705 52.996 57.82 80.16 64.047-33.405-3.326-50.626-37.128-83.07-60.727l2.91-3.32zm78.05 14.768c1.108-.435 2.53-1.046 4.244-1.817 31.063-13.996 51.51-45.332 51.51-79.8 0-48.224-39.216-87.456-87.422-87.456s-87.423 39.232-87.423 87.455c0 16.5 4.566 32.29 12.968 45.894l-13.043 7.97c-1.057-.622-2.03-1.14-2.824-1.5-1.73-.782-1.892.68-1.313 1.877.23.473.512 1.03.834 1.643-4.98 3.042-9.853 6.017-13.815 8.435-11.744-19.07-18.13-41.196-18.13-64.317 0-67.708 55.066-122.792 122.75-122.792 67.687 0 122.75 55.084 122.75 122.793 0 52.974-33.474 99.485-83.475 116.348-3.104.922-3.97 1.476-10.845 3.413-.077-10.456.376-25.08 3.238-38.142m-137.79-8.682l3.16-1.958c6.1 8.822 13.376 16.912 21.732 24.056l-2.41 2.813c-8.653-7.398-16.184-15.775-22.483-24.91m24.478 32.025c-1.69 1.972-4.223 0-2.393-1.97s19.426-21.397 26.746-28.013c-.42 3.096-22.663 28.01-24.353 29.982m61.515 54.745c-.882-2.536-2.384-4.332-4.08-5.406V420.04c1.35.622 2.712 1.21 4.08 1.774v17.125zm34.05 39.688c-5.33 3.566-10.822-.33-11.634-4.63-1.187-6.944 7.786-8.89 7.946-2.566 6.812-4.704-.487-14.757-5.836-8.27 1.707-7.3-4.005-11.612-4.493-11.966v-.053s-.022.02-.036.028l-.01-.01v.018c-.49.354-6.2 4.666-4.494 11.965-5.35-6.485-12.647 3.567-5.837 8.272.16-6.325 9.135-4.378 7.945 2.565-.812 4.3-6.303 8.197-11.635 4.63-2.63-1.76-4.466-6.478-4.418-11.493.068-7.34 3.62-15.124 10.106-13.647 2.134-7.37-4.52-10.79-9.543-6.854v-23.95c11.6 4.498 23.707 6.82 35.613 5.866v17.964c-4.998-3.72-11.47-.292-9.362 6.99 6.484-1.477 10.037 6.31 10.107 13.647.05 5.016-1.787 9.736-4.417 11.495m10.228-45.187c-1.902 1.138-3.57 3.175-4.443 6.113v-11.228c1.487-.168 2.972-.39 4.45-.666l-.006 5.782zm-101.46-51.345l2.193-2.562c6.673 5.146 20.693 17 37.813 27.232 22.6 13.507 50.713 24.012 75.59 10.792-25.334 11.316-52.4.48-74.275-12.95-16.622-10.2-30.324-21.788-37.535-26.933l22.73-26.558c31.71 23.348 52.602 64.763 94.65 60.02 1.645-.05 3.308-.204 4.988-.477 1.66-.37 3.45-.844 5.276-1.482-46.183 42.554-108.656-9.182-131.43-27.08m115.34 24.953c15.045-4.516 24.64-10.08 27.83-11.892-7.113 11.75-19.665 12.704-27.83 11.892m16.085-10.913c-1.238.573-10.367 5.145-25.555 8.777-.01-.006-.024-.01-.036-.017-.03-1.168-.055-2.464-.074-3.822 15.834-3.673 27.737-9.826 34.33-13.64 38.076-22.03 62.222-62.777 62.222-108.202 0-68.95-56.077-125.045-125.004-125.045-68.926 0-125 56.094-125 125.045 0 23.543 6.5 46.072 18.456 65.49l-3.168 1.934c-12.31-19.987-18.994-43.177-18.994-67.448 0-71.02 57.758-128.8 128.754-128.8 70.994 0 128.753 57.78 128.753 128.8 0 50.437-29.17 95.868-74.686 116.93"/><path fill="#FFF" d="M283.738 340.743h-.218c-14.067-.077-25.473-7.643-25.425-16.865.022-4.037 2.27-7.923 6.323-10.94 3.053-2.555 4.71-5.308 4.53-7.543-.105-1.292-.81-2.336-2.1-3.103-3.413-2.026-6.5.095-9.126 6.24-1.62 4.67-4.596 7.944-8.37 9.195-1.145.38-2.35.573-3.58.573-8.024 0-16.573-8.21-20.327-19.523-4.43-13.353-.912-26.58 7.84-29.483 4.03-1.338 8.724-.268 13.038 2.95 2.18 1.228 4.247 1.888 5.942 1.888 2.27 0 3.82-1.15 4.482-3.323.272-.895.256-2.31-.605-3.604-1.078-1.617-3.205-2.63-6.15-2.924-.502.04-1.06.062-1.602.062-5.085 0-9.225-1.79-11.654-5.04-5.523-7.385-.85-20.248 10.415-28.674 5.893-4.407 12.742-6.935 18.794-6.935 5.084 0 9.224 1.792 11.657 5.045 1.91 2.555 2.66 5.88 2.17 9.615l-.024-.004v.054l.012.004-.013-.003c-.03.71-.448 2.41-.454 2.43-.862 4.38-.632 7.315.71 8.95.802.974 2.03 1.467 3.65 1.467 1.612-.01 2.798-.51 3.575-1.488 1.755-2.21 1.155-6.35.642-8.62-.15-.494-.287-1.014-.41-1.567l-.02-.06.006-.002c-.947-4.367-.292-8.222 1.896-11.147 2.432-3.254 6.57-5.045 11.656-5.045 6.05 0 12.9 2.526 18.795 6.933 11.264 8.426 15.936 21.29 10.415 28.676-2.417 3.23-6.54 5.015-11.605 5.027-3.895.233-6.438 1.246-7.54 3.006-1.096 1.75-.33 3.654-.322 3.674.045.188.722 3.27 4.202 3.27 1.605 0 3.563-.654 5.82-1.943 4.275-3.207 8.995-4.293 13.037-2.953 8.752 2.904 12.27 16.13 7.84 29.484-3.754 11.312-12.303 19.522-20.328 19.522-1.232 0-2.438-.192-3.584-.572-3.923-1.302-6.96-4.773-8.55-9.776-1.605-3.853-3.696-5.902-6.038-5.902-1.225 0-2.216.55-2.698.877-.442.3-1.896 1.436-2.005 3.393-.116 2.087 1.283 4.395 4.16 6.86 4.227 3.088 6.553 7.093 6.53 11.26-.05 9.142-11.44 16.583-25.387 16.583zm-19.347-39.83c.91 0 1.845.28 2.78.838 1.454.865 2.286 2.108 2.405 3.595.196 2.44-1.54 5.39-4.767 8.086-3.906 2.91-6.062 6.617-6.084 10.452-.046 8.874 11.08 16.156 24.8 16.23h.213c13.603 0 24.71-7.158 24.76-15.958.02-3.96-2.214-7.78-6.293-10.764-3.053-2.613-4.525-5.094-4.397-7.388.125-2.246 1.776-3.536 2.28-3.88.542-.367 1.66-.984 3.052-.984 1.824 0 4.455 1.096 6.628 6.315 1.537 4.83 4.43 8.16 8.158 9.396 1.08.357 2.22.54 3.384.54 7.762 0 16.06-8.03 19.73-19.093 4.32-13.022.98-25.893-7.44-28.688-3.844-1.276-8.34-.232-12.494 2.88-2.386 1.365-4.448 2.047-6.165 2.047-4.003 0-4.793-3.68-4.8-3.717-.02-.03-.88-2.167.387-4.19 1.217-1.942 3.927-3.054 8.055-3.302 4.882-.012 8.825-1.707 11.12-4.775 5.313-7.107.698-19.575-10.286-27.793-5.787-4.326-12.5-6.81-18.418-6.81-4.88 0-8.842 1.703-11.153 4.794-2.08 2.783-2.695 6.475-1.776 10.674h-.002c.125.56.257 1.063.41 1.563.544 2.404 1.16 6.76-.758 9.176-.9 1.135-2.253 1.716-4.016 1.727-1.87 0-3.263-.57-4.188-1.697-1.47-1.79-1.744-4.895-.836-9.494.164-.613.453-2.256.467-2.4l.147.015-.148-.032c.47-3.57-.238-6.736-2.047-9.156-2.313-3.09-6.274-4.792-11.154-4.792-5.918 0-12.63 2.48-18.416 6.81-10.987 8.216-15.603 20.685-10.287 27.792 2.557 3.418 7.18 5.128 12.76 4.727 4.02.396 5.84 1.96 6.665 3.202.984 1.476 1 3.103.686 4.134-.742 2.43-2.55 3.77-5.086 3.77-1.83 0-3.943-.67-6.285-1.99-4.195-3.124-8.66-4.15-12.498-2.88-8.422 2.795-11.76 15.664-7.44 28.687 3.672 11.064 11.97 19.094 19.73 19.094 1.163 0 2.302-.183 3.383-.54 3.584-1.19 6.418-4.324 7.982-8.827 2.094-4.915 4.532-7.395 7.25-7.395zm19.466 10.332l-.175-.067c-.24-.095-1.5-.877-2.406-7.052-.397-2.718-.086-4.828.878-5.943.89-1.028 2.305-.98 3.25.1.904 1.032 1.274 2.746 1.016 4.7-.9 6.79-2.357 8.09-2.42 8.142l-.142.12zm-.16-13.196c-.39 0-.76.187-1.067.544-.83.96-1.098 2.943-.732 5.44.66 4.5 1.504 5.96 1.86 6.395.387-.57 1.362-2.45 2.035-7.53.235-1.774-.08-3.308-.866-4.204-.365-.417-.802-.647-1.232-.647zm-.018-2.154c-8.983 0-16.293-7.32-16.293-16.316 0-8.996 7.31-16.315 16.293-16.315 8.984 0 16.294 7.32 16.294 16.315 0 8.997-7.31 16.316-16.294 16.316zm0-32c-8.637 0-15.662 7.034-15.662 15.684s7.025 15.686 15.662 15.686 15.663-7.036 15.663-15.686-7.025-15.685-15.662-15.685zm-26.803 26.275c-2.187 0-2.88-.4-2.952-.446l-.156-.1.012-.187c.017-.26.388-1.694 6.013-4.398 1.68-.81 3.16-1.218 4.397-1.218 1.945 0 2.724.997 2.804 1.93.13 1.502-1.402 3.31-4.576 3.855-2.172.375-4.037.564-5.543.564zm-2.36-.88c.34.103 1.056.252 2.36.252 1.47 0 3.3-.187 5.434-.555 2.77-.478 4.156-1.994 4.055-3.18-.07-.835-.905-1.354-2.176-1.354-1.128 0-2.555.4-4.126 1.155-4.104 1.972-5.242 3.21-5.55 3.68zm56.24.737c-1.214 0-2.727-.14-4.496-.415-4.426-.69-5.873-2.53-5.768-3.895.097-1.24 1.376-2.107 3.112-2.107.967 0 2.004.253 3.083.75 6.218 2.867 7.032 4.643 7.064 4.717l.074.173-.116.146c-.116.148-.675.63-2.953.63zm-7.15-5.786c-1.393 0-2.414.628-2.483 1.526-.092 1.184 1.49 2.64 5.235 3.223 1.737.27 3.217.407 4.398.407 1.318 0 1.97-.173 2.263-.294-.432-.537-1.938-2.024-6.594-4.17-.982-.453-1.957-.692-2.82-.692zm-8.234-18.352c-.818 0-1.478-.444-1.807-1.218-.464-1.09-.28-3.117 1.764-5.24 4.75-4.932 6.694-5.117 6.774-5.122l.188-.013.1.158c.142.22.69 1.596-2.24 7.105-1.467 2.752-3.207 4.33-4.777 4.33zm6.513-10.877c-.655.234-2.554 1.172-6.104 4.856-1.83 1.9-2.026 3.644-1.638 4.557.23.538.665.835 1.228.835 1.31 0 2.888-1.494 4.22-3.996 2.137-4.013 2.324-5.688 2.293-6.25zm-29.827 10.723c-1.498 0-3.087-1.156-4.25-3.092-3.527-5.867-3.198-7.794-3.183-7.873l.036-.184.178-.056c.175-.058 1.598-.365 6.276 4.014 2.387 2.235 3.457 4.466 2.863 5.97-.302.766-1.02 1.223-1.92 1.223zm-6.812-10.574c.054.683.46 2.76 3.102 7.157 1.235 2.054 2.727 2.785 3.71 2.785.644 0 1.13-.3 1.337-.824.383-.968-.128-2.862-2.707-5.276-3.336-3.12-4.892-3.73-5.442-3.843z"/><path fill="#FFF" d="M283.38 242.303c-.127-.717-.232-1.566-.354-2.55-.672-5.433-1.796-14.522-9.324-18.405l-.552-.283.556-.277c1.33-.665 2.478-1.107 3.754-1.107.56 0 1.12.087 1.703.265.262-2.04 1.213-7.225 4.32-10.223l.162-.156.2.104c2.533 1.314 4.156 7.02 4.454 10.205 1.614-.54 3.402-.255 5.453.873l.515.282-.52.272c-7.888 4.127-8.955 13.887-9.528 19.13-.076.696-.145 1.323-.22 1.86l-.62.01zm-8.842-21.22c7.333 4.18 8.443 13.17 9.114 18.59l.01.082c.596-5.354 1.852-14.466 9.272-18.726-1.816-.888-3.393-1.026-4.79-.424l-.414.18-.026-.45c-.164-2.786-1.657-8.534-3.95-9.995-3.038 3.096-3.836 8.465-4.01 10.06l-.043.398-.376-.138c-1.707-.62-3.135-.34-4.786.424zM224.292 272.002l-.092-.613c-.325-2.167-.28-3.782.888-5.453-1.86-.88-6.493-3.392-8.38-7.27l-.1-.204.16-.158c1.328-1.31 4.086-1.584 6.166-1.584 1.682 0 3.52.193 4.916.51-.017-1.7.81-3.313 2.518-4.915l.43-.402.098.58c1.464 8.66 10.01 12.443 15.116 14.703.718.318 1.36.604 1.897.863l-.183.595c-.673-.095-1.45-.24-2.353-.407-2.44-.454-5.48-1.02-8.702-1.02-5.083 0-8.988 1.42-11.94 4.338l-.44.436zm-6.913-13.4c2 3.844 6.857 6.266 8.32 6.924l.365.166-.247.315c-1.143 1.462-1.3 2.82-1.078 4.683 3.018-2.752 6.928-4.092 11.932-4.092 3.236 0 6.267.556 8.715 1.01-5.136-2.276-13.253-6.05-15.003-14.425-1.408 1.46-2.025 2.91-1.885 4.423l.04.447-.435-.113c-1.386-.363-3.368-.588-5.172-.588-2.614 0-4.57.44-5.554 1.25zM342.566 271.35l-.423-.408c-2.95-2.844-6.767-4.225-11.67-4.225-3.55 0-6.95.74-9.43 1.28-.714.155-1.355.294-1.906.396l-.208-.587c.627-.34 1.385-.703 2.263-1.123 4.96-2.375 13.263-6.35 14.568-14.742l.097-.612.438.438c1.548 1.548 2.472 2.874 2.525 4.908 1.158-.23 2.81-.47 4.66-.47 2.548 0 4.702.45 6.402 1.337l.2.105-.034.225c-.446 2.816-5.344 6.16-8.272 7.45 1.022 1.357 1.314 3.146.895 5.45l-.104.58zm-12.094-5.264c4.768 0 8.69 1.344 11.67 3.996.266-2.01-.1-3.544-1.11-4.678l-.3-.334.417-.168c2.59-1.037 7.57-4.27 8.23-6.908-1.576-.77-3.56-1.16-5.9-1.16-2.008 0-3.777.29-4.908.536l-.393.085.01-.4c.05-1.854-.628-3.04-1.914-4.404-1.648 8.302-9.858 12.23-14.81 14.603l-.032.016c2.454-.533 5.67-1.184 9.038-1.184zM242.317 336.05l-.1-.203c-1.29-2.644.787-8.322 2.4-11.003-1.613-.524-2.88-1.82-3.857-3.95l-.245-.536.58.092c.746.118 1.5.178 2.242.178 7.628 0 13.335-6.17 16.743-9.855.495-.535.94-1.016 1.332-1.414l.506.36c-.32.64-.733 1.37-1.212 2.22-2.704 4.786-7.23 12.8-3.493 20.427l.273.558-.61-.108c-2.157-.383-3.675-.94-4.884-2.576-1.967 2.066-5.586 5.283-9.45 5.784l-.225.027zm-.728-14.896c.936 1.8 2.114 2.848 3.59 3.194l.44.103-.248.378c-1.54 2.347-3.647 8.002-2.68 10.535 3.765-.602 7.308-3.898 9.105-5.837l.273-.295.22.336c1.02 1.547 2.258 2.13 4.096 2.514-3.404-7.75 1.07-15.672 3.77-20.45l.02-.032c-3.516 3.79-9.208 9.66-16.84 9.66 0 0 .002 0 0 0-.578 0-1.164-.035-1.747-.104zM323.937 335.923c-2.96 0-7.255-3.614-9.103-5.73-.992 1.376-2.613 2.185-4.938 2.466l-.584.07.265-.525c3.988-7.917-.653-16.13-3.427-21.036-.357-.635-.68-1.203-.94-1.698l.5-.372c.51.5 1.08 1.116 1.74 1.83 3.578 3.866 8.983 9.71 16.36 9.71.672 0 1.355-.05 2.03-.15l.614-.09-.29.55c-1.02 1.936-2.014 3.21-3.944 3.865.976 1.81 3.22 6.572 2.446 10.822l-.04.223-.225.032c-.148.02-.303.03-.463.03zm-9.17-6.804l.282.35c1.692 2.09 6.11 5.824 8.887 5.824.05 0 .1 0 .15-.004.66-4.29-1.817-9.112-2.605-10.508l-.197-.35.387-.108c1.787-.5 2.72-1.5 3.645-3.134-.504.053-1.01.08-1.508.08-7.652 0-13.393-6.206-16.822-9.913l-.02-.022c2.634 4.677 6.974 12.828 3.43 20.615 1.997-.343 3.353-1.146 4.137-2.445l.23-.386zM283.744 263.667c-8.79 0-15.913 7.124-15.913 15.913 0 8.788 7.125 15.913 15.914 15.913s15.913-7.125 15.913-15.913-7.124-15.913-15.913-15.913m-14.092 16.088c0-1.657 1.364-3.003 3.047-3.003s3.047 1.346 3.047 3.003c0 1.66-1.364 3.005-3.048 3.005s-3.048-1.344-3.048-3.005m6.225 10.817c-1.683 0-3.048-1.346-3.048-3.005s1.364-3.004 3.047-3.004c1.686 0 3.05 1.345 3.05 3.004s-1.364 3.005-3.05 3.005m.106-15.755c-1.684 0-3.048-1.344-3.048-3.004s1.364-3.004 3.048-3.004c1.685 0 3.048 1.343 3.048 3.003s-1.363 3.004-3.047 3.004m7.672 19.062c-1.683 0-3.047-1.346-3.047-3.005s1.364-3.004 3.047-3.004c1.685 0 3.048 1.346 3.048 3.005s-1.364 3.004-3.048 3.004m.046-11.098c-1.68 0-3.046-1.346-3.046-3.004 0-1.66 1.365-3.004 3.047-3.004 1.686 0 3.05 1.345 3.05 3.004 0 1.658-1.365 3.004-3.05 3.004m.035-11.11c-1.682 0-3.047-1.345-3.047-3.005 0-1.658 1.365-3.003 3.047-3.003 1.685 0 3.05 1.345 3.05 3.003 0 1.66-1.366 3.005-3.05 3.005m7.802-2.838c1.688 0 3.048 1.346 3.048 3.003 0 1.66-1.36 3.005-3.048 3.005-1.682 0-3.046-1.345-3.046-3.005 0-1.657 1.365-3.003 3.047-3.003m.14 21.62c-1.682 0-3.048-1.344-3.048-3.004s1.365-3.004 3.046-3.004c1.686 0 3.05 1.345 3.05 3.004 0 1.66-1.364 3.005-3.05 3.005m3.028-7.754c-1.68 0-3.046-1.344-3.046-3.003s1.365-3.005 3.046-3.005c1.688 0 3.048 1.346 3.048 3.005s-1.36 3.004-3.048 3.004M331.2 303.866c-.456 11.21-16.663 15.096-16.104-.564 2.782 8.42 12.546 8.512 12.71-2.75.165-6.54.79-7.374 4.28-10.826 3.863-3.823 5.002-16.07-8.066-11.637 8.788-10.567 19.792 1.032 12.886 11.01-4.087 6.736-5.378 6.846-5.706 14.766M321.99 241.963c10.532 3.868 9.266 20.486-5.47 15.156 8.867-.07 11.946-9.337 1.277-12.942-6.178-2.162-6.78-3.01-8.996-7.39-2.454-4.85-13.766-9.687-13.548 4.11-7.365-11.602 7.048-18.52 14.432-8.89 5.16 5.953 4.868 7.217 12.307 9.955M235.857 304.476c.457 11.21 16.668 15.095 16.11-.564-2.784 8.42-12.55 8.512-12.715-2.75-.166-6.54-.79-7.374-4.28-10.826-3.865-3.823-5.005-16.07 8.067-11.638-8.792-10.565-19.8 1.035-12.89 11.013 4.088 6.736 5.38 6.846 5.707 14.766M292.284 332.782c10.77 3.14 19.62-10.988 4.6-15.45 7.094 5.322 4.067 14.61-6.66 11.176-6.252-1.93-7.24-1.603-11.626.606-4.854 2.445-16.827-.378-8.458-11.355-12.817 4.963-5.33 19.095 6.33 15.727 7.687-1.73 8.2-2.92 15.814-.705M245.037 241.977c-10.49 3.98-9.043 20.59 5.635 15.104-8.868.025-12.047-9.212-1.417-12.932 6.153-2.228 6.747-3.082 8.916-7.487 2.403-4.874 13.662-9.833 13.593 3.972 7.24-11.684-7.247-18.453-14.525-8.74-5.097 6.007-4.792 7.267-12.2 10.085"/></svg>