<svg xmlns="http://www.w3.org/2000/svg" width="1132.527" height="2000" viewBox="433.699 0 1132.527 2000"><path d="M1420.715 0h-841.58C498.696 0 433.7 65.294 433.7 145.66v1708.754c0 80.292 64.994 145.586 145.436 145.586h841.505c80.442 0 145.587-65.294 145.587-145.586V145.66C1566.3 65.295 1501.23 0 1420.715 0zm-628.46 88.5h415.49c10.522 0 18.954 15.67 18.954 35.147 0 19.4-8.433 35.146-18.954 35.146H792.254c-10.52 0-18.88-15.745-18.88-35.146 0-19.476 8.358-35.146 18.88-35.146zM1000 1856.206c-51.265 0-92.98-41.64-92.98-92.98s41.79-92.828 92.98-92.828 92.903 41.564 92.903 92.83c0 51.34-41.788 92.978-92.903 92.978zm457.205-318.484h-914.41V245.804h914.41V1537.72z"/></svg>