<svg xmlns="http://www.w3.org/2000/svg" width="1463.141" height="2000" viewBox="268.4 0 1463.141 2000"><path d="M1595.87 0H404.013C328.883 0 268.4 60.775 268.4 135.848V1864.21c0 74.838 60.48 135.79 135.612 135.79H1595.87c74.896 0 135.67-60.893 135.67-135.79V135.85C1731.66 60.775 1670.825 0 1595.87 0zM1000 1949.108c-44.596 0-80.66-36.064-80.66-80.603 0-44.596 36.064-80.72 80.66-80.72 44.48 0 80.66 36.124 80.66 80.72 0 44.538-36.18 80.603-80.66 80.603zm594.28-231.98H405.72V163.204h1188.56v1553.922z"/></svg>