<svg xmlns="http://www.w3.org/2000/svg" viewBox="0 0 768.94 458.48"><defs><style>.a,.b,.d{fill:none;}.b,.d,.e{stroke:#571e59;stroke-miterlimit:10;}.b{stroke-width:16px;}.c,.e{fill:#571e59;}.d,.e{stroke-width:11px;}</style></defs><title>about-2</title><rect class="a" width="768.94" height="458.48"/><path class="b" d="M413.09,398.45H250.38a6.24,6.24,0,0,1-6.22-6.22l5.19-117.48a6.24,6.24,0,0,1,6.22-6.22H407.9a6.24,6.24,0,0,1,6.22,6.22l5.19,117.48A6.24,6.24,0,0,1,413.09,398.45Z" transform="translate(-71.75 -152.61)"/><path class="c" d="M397.41,381.34H266.06a4.83,4.83,0,0,1-5-4.58l3.15-86.53a4.83,4.83,0,0,1,5-4.58h125a4.83,4.83,0,0,1,5,4.58l3.15,86.53A4.83,4.83,0,0,1,397.41,381.34Z" transform="translate(-71.75 -152.61)"/><polyline class="d" points="247.67 245.84 247.67 259.07 235.95 264.48 284.02 264.48 273.76 259.07 273.76 245.84"/><rect class="c" x="463.96" y="121.47" width="83.46" height="31.53"/><path class="e" d="M637,315H517.89a17.77,17.77,0,0,0-17.77,17.77V391.1h40.94V372.57h78.1V391.1h35.59V332.81A17.77,17.77,0,0,0,637,315Zm1.29,27.58A11.63,11.63,0,1,1,649.92,331,11.63,11.63,0,0,1,638.28,342.61Z" transform="translate(-71.75 -152.61)"/><polyline class="d" points="547.42 238.49 547.42 264.48 469.31 264.48 469.31 238.49"/><path class="c" d="M322.69,530.33a10.51,10.51,0,0,1-3.44,7.27,11.72,11.72,0,0,1-8,2.61,11.35,11.35,0,0,1-6.13-1.65,10.82,10.82,0,0,1-4.09-4.69,16.91,16.91,0,0,1-1.5-7.06V524.1a17,17,0,0,1,1.46-7.25,11,11,0,0,1,4.19-4.84,11.68,11.68,0,0,1,6.31-1.7,11.25,11.25,0,0,1,7.75,2.61,10.9,10.9,0,0,1,3.42,7.39h-5a7.19,7.19,0,0,0-1.83-4.53,6,6,0,0,0-4.31-1.39,5.9,5.9,0,0,0-5.07,2.41q-1.77,2.41-1.81,7.07v2.58q0,4.72,1.69,7.2a5.6,5.6,0,0,0,4.95,2.48,6.54,6.54,0,0,0,4.48-1.34,7,7,0,0,0,1.9-4.46h5Z" transform="translate(-71.75 -152.61)"/><path class="c" d="M350.44,526a17.86,17.86,0,0,1-1.48,7.5,11.18,11.18,0,0,1-4.23,5,12.4,12.4,0,0,1-12.63,0,11.35,11.35,0,0,1-4.28-4.93,17.29,17.29,0,0,1-1.53-7.37v-1.64A17.7,17.7,0,0,1,327.8,517a11.34,11.34,0,0,1,4.26-5,12.43,12.43,0,0,1,12.61,0,11.2,11.2,0,0,1,4.25,4.92,17.66,17.66,0,0,1,1.52,7.46V526Zm-5.06-1.52q0-4.84-1.83-7.41a6.45,6.45,0,0,0-10.31,0q-1.85,2.57-1.89,7.27V526q0,4.8,1.87,7.42a6,6,0,0,0,5.19,2.62,6,6,0,0,0,5.17-2.56q1.81-2.56,1.81-7.48V524.5Z" transform="translate(-71.75 -152.61)"/><path class="c" d="M360.53,535.73h13.21v4.08H355.47v-29.1h5.06v25Z" transform="translate(-71.75 -152.61)"/><path class="c" d="M399.56,526a17.86,17.86,0,0,1-1.48,7.5,11.18,11.18,0,0,1-4.23,5,12.4,12.4,0,0,1-12.63,0,11.35,11.35,0,0,1-4.28-4.93,17.29,17.29,0,0,1-1.53-7.37v-1.64a17.7,17.7,0,0,1,1.51-7.51,11.34,11.34,0,0,1,4.26-5,12.43,12.43,0,0,1,12.61,0,11.2,11.2,0,0,1,4.25,4.92,17.66,17.66,0,0,1,1.52,7.46V526Zm-5.06-1.52q0-4.84-1.83-7.41a6.45,6.45,0,0,0-10.31,0q-1.85,2.57-1.89,7.27V526q0,4.8,1.87,7.42a6,6,0,0,0,5.19,2.62,6,6,0,0,0,5.17-2.56q1.81-2.56,1.81-7.48V524.5Z" transform="translate(-71.75 -152.61)"/><path class="c" d="M425.88,510.71v19.45a9.45,9.45,0,0,1-3,7.34,13,13,0,0,1-15.84,0,9.5,9.5,0,0,1-2.94-7.4V510.71h5v19.44a6.17,6.17,0,0,0,1.48,4.45,5.77,5.77,0,0,0,4.36,1.54q5.84,0,5.84-6.15V510.71h5Z" transform="translate(-71.75 -152.61)"/><path class="c" d="M442,528.62h-5.64v11.19h-5.06v-29.1h10.23q5,0,7.77,2.26a8,8,0,0,1,2.74,6.54,8.19,8.19,0,0,1-1.41,4.89,9,9,0,0,1-3.93,3l6.54,12.12v0.26h-5.42Zm-5.64-4.08h5.2a5.78,5.78,0,0,0,4-1.29,4.49,4.49,0,0,0,1.44-3.53,4.79,4.79,0,0,0-1.33-3.62,5.65,5.65,0,0,0-4-1.32h-5.34v9.75Z" transform="translate(-71.75 -152.61)"/><path class="c" d="M473.57,510.71L482,533l8.37-22.3h6.54v29.1h-5v-9.59l0.5-12.83-8.59,22.42h-3.62l-8.57-22.4,0.5,12.81v9.59h-5v-29.1h6.56Z" transform="translate(-71.75 -152.61)"/><path class="c" d="M526.07,526a17.86,17.86,0,0,1-1.48,7.5,11.18,11.18,0,0,1-4.23,5,12.4,12.4,0,0,1-12.63,0,11.35,11.35,0,0,1-4.28-4.93,17.29,17.29,0,0,1-1.53-7.37v-1.64a17.7,17.7,0,0,1,1.51-7.51,11.34,11.34,0,0,1,4.26-5,12.43,12.43,0,0,1,12.61,0,11.2,11.2,0,0,1,4.25,4.92,17.66,17.66,0,0,1,1.52,7.46V526ZM521,524.5q0-4.84-1.83-7.41a6.45,6.45,0,0,0-10.31,0q-1.85,2.57-1.89,7.27V526q0,4.8,1.87,7.42a6,6,0,0,0,5.19,2.62,6,6,0,0,0,5.17-2.56Q521,530.93,521,526V524.5Z" transform="translate(-71.75 -152.61)"/><path class="c" d="M531.11,539.81v-29.1h8.59a13.48,13.48,0,0,1,6.85,1.72,11.72,11.72,0,0,1,4.63,4.88,15.48,15.48,0,0,1,1.64,7.23V526a15.41,15.41,0,0,1-1.65,7.27,11.58,11.58,0,0,1-4.7,4.84,14.11,14.11,0,0,1-7,1.7h-8.37Zm5.06-25v20.95h3.3a7.6,7.6,0,0,0,6.11-2.48q2.13-2.48,2.17-7.13V524.5q0-4.73-2.06-7.22a7.31,7.31,0,0,0-6-2.49h-3.54Z" transform="translate(-71.75 -152.61)"/><path class="c" d="M574.86,526.82h-12v8.91h14v4.08h-19v-29.1h18.89v4.08H562.91v8h12v4Z" transform="translate(-71.75 -152.61)"/><path class="c" d="M586.05,535.73h13.21v4.08H581v-29.1h5.06v25Z" transform="translate(-71.75 -152.61)"/><path class="c" d="M618.35,532.31a3.51,3.51,0,0,0-1.35-3,16.24,16.24,0,0,0-4.87-2.1,23.48,23.48,0,0,1-5.6-2.36q-4-2.5-4-6.52a7.09,7.09,0,0,1,2.87-5.8,11.6,11.6,0,0,1,7.44-2.28,12.58,12.58,0,0,1,5.42,1.12,8.89,8.89,0,0,1,3.74,3.19,8.17,8.17,0,0,1,1.36,4.59h-5a4.5,4.5,0,0,0-1.43-3.54,5.93,5.93,0,0,0-4.09-1.28,6.18,6.18,0,0,0-3.85,1.05,3.51,3.51,0,0,0-1.37,2.95A3.17,3.17,0,0,0,609.1,521a17.07,17.07,0,0,0,4.88,2.07,22.34,22.34,0,0,1,5.46,2.29,8.68,8.68,0,0,1,3,3,7.7,7.7,0,0,1,1,3.91,6.92,6.92,0,0,1-2.79,5.79,12.09,12.09,0,0,1-7.57,2.15,14.22,14.22,0,0,1-5.81-1.17,9.75,9.75,0,0,1-4.12-3.23,8,8,0,0,1-1.47-4.8h5.06a4.71,4.71,0,0,0,1.64,3.84,7.17,7.17,0,0,0,4.7,1.36,6.24,6.24,0,0,0,4-1.07A3.45,3.45,0,0,0,618.35,532.31Z" transform="translate(-71.75 -152.61)"/></svg>