<svg xmlns="http://www.w3.org/2000/svg" viewBox="0 0 768.94 458.48"><defs><style>.a,.c{fill:none;}.b,.d{fill:#571e59;}.c,.d{stroke:#571e59;stroke-miterlimit:10;stroke-width:9px;}</style></defs><title>about-3</title><rect class="a" width="768.94" height="458.48"/><path class="b" d="M324.73,530.33a10.51,10.51,0,0,1-3.44,7.27,11.72,11.72,0,0,1-8,2.61,11.35,11.35,0,0,1-6.13-1.65,10.82,10.82,0,0,1-4.09-4.69,16.91,16.91,0,0,1-1.5-7.06V524.1a17,17,0,0,1,1.46-7.25,11,11,0,0,1,4.19-4.84,11.68,11.68,0,0,1,6.31-1.7,11.25,11.25,0,0,1,7.75,2.61,10.9,10.9,0,0,1,3.42,7.39h-5a7.19,7.19,0,0,0-1.83-4.53,6,6,0,0,0-4.31-1.39,5.9,5.9,0,0,0-5.07,2.41q-1.77,2.41-1.81,7.07v2.58q0,4.72,1.69,7.2a5.6,5.6,0,0,0,4.95,2.48,6.54,6.54,0,0,0,4.48-1.34,7,7,0,0,0,1.9-4.46h5Z" transform="translate(-71.75 -152.61)"/><path class="b" d="M352.47,526a17.86,17.86,0,0,1-1.48,7.5,11.18,11.18,0,0,1-4.23,5,12.4,12.4,0,0,1-12.63,0,11.35,11.35,0,0,1-4.28-4.93,17.29,17.29,0,0,1-1.53-7.37v-1.64a17.7,17.7,0,0,1,1.51-7.51,11.34,11.34,0,0,1,4.26-5,12.43,12.43,0,0,1,12.61,0,11.2,11.2,0,0,1,4.25,4.92,17.66,17.66,0,0,1,1.52,7.46V526Zm-5.06-1.52q0-4.84-1.83-7.41a6.45,6.45,0,0,0-10.31,0q-1.85,2.57-1.89,7.27V526q0,4.8,1.87,7.42a6,6,0,0,0,5.19,2.62,6,6,0,0,0,5.17-2.56q1.81-2.56,1.81-7.48V524.5Z" transform="translate(-71.75 -152.61)"/><path class="b" d="M362.57,535.73h13.21v4.08H357.51v-29.1h5.06v25Z" transform="translate(-71.75 -152.61)"/><path class="b" d="M401.6,526a17.86,17.86,0,0,1-1.48,7.5,11.18,11.18,0,0,1-4.23,5,12.4,12.4,0,0,1-12.63,0,11.35,11.35,0,0,1-4.28-4.93,17.29,17.29,0,0,1-1.53-7.37v-1.64A17.7,17.7,0,0,1,379,517a11.34,11.34,0,0,1,4.26-5,12.43,12.43,0,0,1,12.61,0,11.2,11.2,0,0,1,4.25,4.92,17.66,17.66,0,0,1,1.52,7.46V526Zm-5.06-1.52q0-4.84-1.83-7.41a6.45,6.45,0,0,0-10.31,0q-1.85,2.57-1.89,7.27V526q0,4.8,1.87,7.42a6,6,0,0,0,5.19,2.62,6,6,0,0,0,5.17-2.56q1.81-2.56,1.81-7.48V524.5Z" transform="translate(-71.75 -152.61)"/><path class="b" d="M427.92,510.71v19.45a9.45,9.45,0,0,1-3,7.34,13,13,0,0,1-15.84,0,9.5,9.5,0,0,1-2.94-7.4V510.71h5v19.44a6.17,6.17,0,0,0,1.48,4.45,5.77,5.77,0,0,0,4.36,1.54q5.84,0,5.84-6.15V510.71h5Z" transform="translate(-71.75 -152.61)"/><path class="b" d="M444,528.62h-5.64v11.19h-5.06v-29.1h10.23q5,0,7.77,2.26a8,8,0,0,1,2.74,6.54,8.19,8.19,0,0,1-1.41,4.89,9,9,0,0,1-3.93,3l6.54,12.12v0.26h-5.42Zm-5.64-4.08h5.2a5.78,5.78,0,0,0,4-1.29,4.49,4.49,0,0,0,1.44-3.53,4.79,4.79,0,0,0-1.33-3.62,5.65,5.65,0,0,0-4-1.32h-5.34v9.75Z" transform="translate(-71.75 -152.61)"/><path class="b" d="M484.26,532.31a3.51,3.51,0,0,0-1.35-3,16.24,16.24,0,0,0-4.87-2.1,23.49,23.49,0,0,1-5.6-2.36q-4-2.5-4-6.52a7.09,7.09,0,0,1,2.87-5.8,11.61,11.61,0,0,1,7.44-2.28,12.58,12.58,0,0,1,5.42,1.12,8.89,8.89,0,0,1,3.74,3.19,8.17,8.17,0,0,1,1.36,4.59h-5a4.5,4.5,0,0,0-1.43-3.54,5.93,5.93,0,0,0-4.09-1.28,6.18,6.18,0,0,0-3.85,1.05,3.51,3.51,0,0,0-1.37,2.95A3.17,3.17,0,0,0,475,521a17.06,17.06,0,0,0,4.88,2.07,22.33,22.33,0,0,1,5.46,2.29,8.68,8.68,0,0,1,3,3,7.7,7.7,0,0,1,1,3.91,6.92,6.92,0,0,1-2.79,5.79,12.09,12.09,0,0,1-7.56,2.15,14.22,14.22,0,0,1-5.81-1.17,9.75,9.75,0,0,1-4.12-3.23,8,8,0,0,1-1.47-4.8h5.06a4.71,4.71,0,0,0,1.64,3.84,7.18,7.18,0,0,0,4.7,1.36,6.23,6.23,0,0,0,4-1.07A3.45,3.45,0,0,0,484.26,532.31Z" transform="translate(-71.75 -152.61)"/><path class="b" d="M498.81,529v10.79h-5.06v-29.1h11.13a11.26,11.26,0,0,1,7.74,2.54A8.55,8.55,0,0,1,515.5,520a8.26,8.26,0,0,1-2.81,6.66q-2.81,2.38-7.86,2.38h-6Zm0-4.08h6.08a6,6,0,0,0,4.12-1.27,4.67,4.67,0,0,0,1.42-3.67,5,5,0,0,0-1.44-3.77,5.55,5.55,0,0,0-4-1.45h-6.22v10.15Z" transform="translate(-71.75 -152.61)"/><path class="b" d="M532.65,533H521.38L519,539.81h-5.26l11-29.1h4.54l11,29.1H535ZM522.8,529h8.43L527,516.88Z" transform="translate(-71.75 -152.61)"/><path class="b" d="M565.39,530.33a10.51,10.51,0,0,1-3.44,7.27,11.72,11.72,0,0,1-8,2.61,11.35,11.35,0,0,1-6.13-1.65,10.82,10.82,0,0,1-4.09-4.69,16.91,16.91,0,0,1-1.5-7.06V524.1a17,17,0,0,1,1.46-7.25,11,11,0,0,1,4.19-4.84,11.68,11.68,0,0,1,6.31-1.7,11.25,11.25,0,0,1,7.75,2.61,10.9,10.9,0,0,1,3.42,7.39h-5a7.19,7.19,0,0,0-1.83-4.53,6,6,0,0,0-4.31-1.39,5.9,5.9,0,0,0-5.07,2.41q-1.77,2.41-1.81,7.07v2.58q0,4.72,1.69,7.2a5.6,5.6,0,0,0,4.95,2.48,6.54,6.54,0,0,0,4.48-1.34,7,7,0,0,0,1.9-4.46h5Z" transform="translate(-71.75 -152.61)"/><path class="b" d="M586.91,526.82H575v8.91h14v4.08h-19v-29.1h18.89v4.08H575v8h12v4Z" transform="translate(-71.75 -152.61)"/><path class="b" d="M608.26,532.31a3.51,3.51,0,0,0-1.35-3,16.24,16.24,0,0,0-4.87-2.1,23.49,23.49,0,0,1-5.6-2.36q-4-2.5-4-6.52a7.09,7.09,0,0,1,2.87-5.8,11.61,11.61,0,0,1,7.45-2.28,12.58,12.58,0,0,1,5.42,1.12,8.9,8.9,0,0,1,3.74,3.19,8.17,8.17,0,0,1,1.36,4.59h-5a4.51,4.51,0,0,0-1.43-3.54,5.93,5.93,0,0,0-4.09-1.28,6.18,6.18,0,0,0-3.85,1.05,3.51,3.51,0,0,0-1.37,2.95A3.17,3.17,0,0,0,599,521a17,17,0,0,0,4.88,2.07,22.31,22.31,0,0,1,5.46,2.29,8.69,8.69,0,0,1,3,3,7.7,7.7,0,0,1,1,3.91,6.92,6.92,0,0,1-2.79,5.79,12.09,12.09,0,0,1-7.56,2.15,14.22,14.22,0,0,1-5.81-1.17,9.75,9.75,0,0,1-4.12-3.23,8,8,0,0,1-1.47-4.8h5.06a4.71,4.71,0,0,0,1.64,3.84,7.18,7.18,0,0,0,4.7,1.36,6.23,6.23,0,0,0,4-1.07A3.45,3.45,0,0,0,608.26,532.31Z" transform="translate(-71.75 -152.61)"/><path class="c" d="M261,435L379,404.23s-62.42-138.85-99.6-125.49S248.9,394.35,261,435Z" transform="translate(-71.75 -152.61)"/><path class="c" d="M494,327.05l-5.19-8.13-2-3.08c-19.71-31.32-35-49-52.78-42.63-37.18,13.36-30.51,115.61-18.45,156.28L533.59,398.7s-8.75-21.45-26-51.17l-4.94-8.13" transform="translate(-71.75 -152.61)"/><polygon class="d" points="227.42 147.89 192.34 181.23 210.75 261.34 284.5 234.06 227.42 147.89"/><path class="c" d="M573.34,435L691.4,404.23S629,265.38,591.79,278.74,561.28,394.35,573.34,435Z" transform="translate(-71.75 -152.61)"/><polygon class="d" points="562.23 181.75 522.25 191.39 517.67 233.39 551.57 247.39 590.72 224.75 562.23 181.75"/><polygon class="d" points="428.56 177.12 388.61 160.23 350.93 213.93 358.47 251.82 441.01 229.62 428.56 177.12"/></svg>