<?xml version="1.0" encoding="utf-8"?>
<!-- Generator: Adobe Illustrator 19.2.1, SVG Export Plug-In . SVG Version: 6.00 Build 0)  -->
<svg version="1.1" xmlns="http://www.w3.org/2000/svg" xmlns:xlink="http://www.w3.org/1999/xlink" x="0px" y="0px"
	 viewBox="0 0 768.9 458.5" style="enable-background:new 0 0 768.9 458.5;" xml:space="preserve">
<style type="text/css">
	.st0{fill:none;}
	.st1{fill:#571E59;}
	.st2{fill:#571E59;stroke:#571E59;stroke-width:9;stroke-miterlimit:10;}
	.st3{fill:#FFFFFF;}
	.st4{fill:#FFFFFF;stroke:#571E59;stroke-width:1.6954;stroke-miterlimit:10;}
</style>
<g id="Layer_1">
	<title>about-4</title>
	<rect y="0" class="st0" width="768.9" height="458.5"/>
	<path class="st1" d="M237.1,378.2c-0.1,2.8-1.4,5.4-3.4,7.2c-2.2,1.8-5.1,2.7-7.9,2.6c-2.1,0-4.3-0.5-6.1-1.6
		c-1.8-1.1-3.2-2.7-4.1-4.7c-1-2.2-1.5-4.6-1.5-7V372c-0.1-2.5,0.4-4.9,1.5-7.2c0.9-2,2.3-3.7,4.2-4.8c1.9-1.1,4.1-1.7,6.3-1.7
		c2.8-0.1,5.6,0.8,7.7,2.6c2,1.9,3.3,4.5,3.4,7.3h-5c-0.1-1.7-0.7-3.3-1.8-4.5c-1.2-1-2.7-1.5-4.3-1.4c-2-0.1-3.8,0.8-5,2.4
		c-1.2,1.6-1.8,3.9-1.8,7v2.6c0,3.1,0.6,5.5,1.7,7.2c1.1,1.6,3,2.6,4.9,2.5c1.6,0.1,3.2-0.4,4.5-1.3c1.1-1.2,1.8-2.8,1.9-4.4
		L237.1,378.2L237.1,378.2z"/>
	<path class="st1" d="M264.7,373.9c0.1,2.6-0.4,5.1-1.4,7.5c-0.9,2-2.3,3.7-4.2,4.9c-3.9,2.3-8.7,2.3-12.5,0
		c-1.9-1.2-3.3-2.9-4.3-4.9c-1-2.3-1.6-4.8-1.5-7.3v-1.7c-0.1-2.6,0.5-5.1,1.5-7.5c0.9-2,2.4-3.8,4.2-5c3.9-2.3,8.7-2.3,12.5,0
		c1.9,1.2,3.3,2.9,4.2,4.9c1,2.3,1.6,4.9,1.5,7.4L264.7,373.9L264.7,373.9z M259.7,372.4c0-3.2-0.6-5.7-1.8-7.4
		c-2.1-2.8-6.1-3.4-9-1.3c-0.5,0.4-0.9,0.8-1.3,1.3c-1.2,1.7-1.9,4.1-1.9,7.2v1.7c0,3.2,0.6,5.6,1.9,7.4c1.2,1.7,3.1,2.7,5.1,2.6
		c2,0.1,4-0.9,5.1-2.5c1.2-1.7,1.8-4.2,1.8-7.4L259.7,372.4L259.7,372.4z"/>
	<path class="st1" d="M274.7,383.5h13.1v4h-18.2v-28.9h5L274.7,383.5L274.7,383.5z"/>
	<path class="st1" d="M313.5,373.9c0.1,2.6-0.4,5.1-1.5,7.5c-0.9,2-2.3,3.7-4.2,4.9c-3.9,2.3-8.7,2.3-12.5,0
		c-1.9-1.2-3.3-2.9-4.3-4.9c-1-2.3-1.6-4.8-1.5-7.3v-1.7c-0.1-2.6,0.5-5.1,1.5-7.5c0.9-2,2.4-3.8,4.2-5c3.9-2.3,8.7-2.3,12.5,0
		c1.9,1.2,3.3,2.9,4.2,4.9c1,2.3,1.6,4.9,1.5,7.4L313.5,373.9L313.5,373.9z M308.5,372.4c0-3.2-0.6-5.7-1.8-7.4
		c-2.1-2.8-6.1-3.4-9-1.3c-0.5,0.4-0.9,0.8-1.3,1.3c-1.2,1.7-1.9,4.1-1.9,7.2v1.7c0,3.2,0.6,5.6,1.9,7.4c1.2,1.7,3.1,2.7,5.1,2.6
		c2,0.1,4-0.9,5.1-2.5c1.2-1.7,1.8-4.2,1.8-7.4L308.5,372.4L308.5,372.4z"/>
	<path class="st1" d="M339.6,358.7V378c0.1,2.7-0.9,5.4-3,7.3c-4.6,3.6-11.1,3.6-15.7,0c-2-1.9-3.1-4.6-2.9-7.4v-19.3h5V378
		c-0.1,1.6,0.4,3.2,1.5,4.4c1.2,1.1,2.7,1.6,4.3,1.5c3.9,0,5.8-2,5.8-6.1v-19.1H339.6L339.6,358.7z"/>
	<path class="st1" d="M355.6,376.5H350v11.1h-5v-28.9h10.2c3.3,0,5.9,0.8,7.7,2.3c1.9,1.6,2.9,4,2.7,6.5c0.1,1.7-0.4,3.4-1.4,4.9
		c-1,1.3-2.3,2.4-3.9,3l6.5,12v0.3h-5.4L355.6,376.5z M350,372.4h5.2c1.4,0.1,2.9-0.4,4-1.3c1-0.9,1.5-2.2,1.4-3.5
		c0.1-1.3-0.4-2.6-1.3-3.6c-1.1-0.9-2.5-1.4-3.9-1.3h-5.3L350,372.4L350,372.4z"/>
	<path class="st1" d="M395.6,380.2c0.1-1.1-0.4-2.2-1.3-2.9c-1.5-1-3.1-1.7-4.8-2.1c-1.9-0.5-3.8-1.3-5.6-2.3c-2.7-1.7-4-3.8-4-6.5
		c0-2.3,1-4.4,2.9-5.8c2.1-1.6,4.7-2.4,7.4-2.3c1.9,0,3.7,0.3,5.4,1.1c1.5,0.7,2.8,1.8,3.7,3.2c0.9,1.4,1.4,2.9,1.4,4.6h-5
		c0.1-1.3-0.4-2.6-1.4-3.5c-1.1-0.9-2.6-1.4-4.1-1.3c-1.3-0.1-2.7,0.3-3.8,1c-0.9,0.7-1.4,1.8-1.4,2.9c0,1.1,0.6,2.1,1.5,2.6
		c1.5,0.9,3.1,1.6,4.9,2.1c1.9,0.5,3.7,1.3,5.4,2.3c1.2,0.7,2.3,1.7,3,2.9c0.7,1.2,1,2.5,1,3.9c0.1,2.3-1,4.4-2.8,5.8
		c-2.2,1.5-4.8,2.3-7.5,2.1c-2,0-3.9-0.4-5.8-1.2c-1.6-0.7-3-1.8-4.1-3.2c-1-1.4-1.5-3.1-1.5-4.8h5c-0.1,1.5,0.5,2.9,1.6,3.8
		c1.4,1,3,1.5,4.7,1.3c1.4,0.1,2.8-0.3,3.9-1.1C395.1,382.3,395.6,381.2,395.6,380.2z"/>
	<path class="st1" d="M427.1,378.2c-0.1,2.8-1.4,5.4-3.4,7.2c-2.2,1.8-5.1,2.7-7.9,2.6c-2.1,0-4.3-0.5-6.1-1.6
		c-1.8-1.1-3.2-2.7-4.1-4.7c-1-2.2-1.5-4.6-1.5-7V372c-0.1-2.5,0.4-4.9,1.5-7.2c0.9-2,2.3-3.7,4.2-4.8c1.9-1.1,4.1-1.7,6.3-1.7
		c2.8-0.1,5.6,0.8,7.7,2.6c2,1.9,3.3,4.5,3.4,7.3h-5c-0.1-1.7-0.7-3.3-1.8-4.5c-1.2-1-2.7-1.5-4.3-1.4c-2-0.1-3.8,0.8-5,2.4
		c-1.2,1.6-1.8,3.9-1.8,7v2.6c0,3.1,0.6,5.5,1.7,7.2c1.1,1.6,3,2.6,4.9,2.5c1.6,0.1,3.2-0.4,4.5-1.3c1.1-1.2,1.8-2.8,1.9-4.4
		L427.1,378.2L427.1,378.2z"/>
	<path class="st1" d="M454.6,387.6h-5v-12.8h-12.9v12.8h-5v-28.9h5v12h12.9v-12h5V387.6L454.6,387.6z"/>
	<path class="st1" d="M477.4,374.7h-11.9v8.9h13.9v4h-18.9v-28.9h18.7v4.1h-13.7v8h11.9L477.4,374.7L477.4,374.7z"/>
	<path class="st1" d="M490,358.7l8.3,22.2l8.3-22.2h6.5v28.9h-5v-9.5l0.5-12.8l-8.5,22.3h-3.6l-8.5-22.3l0.5,12.7v9.5h-5v-28.9H490
		L490,358.7z"/>
	<path class="st1" d="M536,374.7h-11.9v8.9H538v4h-18.9v-28.9h18.8v4.1h-13.8v8H536L536,374.7L536,374.7z"/>
	<path class="st1" d="M557.3,380.2c0.1-1.1-0.4-2.2-1.3-2.9c-1.5-1-3.1-1.7-4.8-2.1c-1.9-0.5-3.8-1.3-5.6-2.3c-2.7-1.7-4-3.8-4-6.5
		c0-2.3,1-4.4,2.8-5.8c2.1-1.6,4.7-2.4,7.4-2.3c1.9,0,3.7,0.3,5.4,1.1c1.5,0.7,2.8,1.8,3.7,3.2c0.9,1.4,1.4,2.9,1.3,4.6h-5
		c0.1-1.3-0.4-2.6-1.4-3.5c-1.1-0.9-2.6-1.4-4.1-1.3c-1.3-0.1-2.7,0.3-3.8,1c-0.9,0.7-1.4,1.8-1.4,2.9c0,1.1,0.6,2.1,1.5,2.6
		c1.5,0.9,3.1,1.6,4.8,2.1c1.9,0.5,3.7,1.3,5.4,2.3c1.2,0.7,2.3,1.7,3,2.9c0.7,1.2,1,2.5,1,3.9c0.1,2.3-1,4.4-2.8,5.8
		c-2.2,1.5-4.8,2.3-7.5,2.1c-2,0-3.9-0.4-5.8-1.2c-1.6-0.7-3-1.8-4.1-3.2c-1-1.4-1.5-3.1-1.5-4.8h5c-0.1,1.5,0.5,2.9,1.6,3.8
		c1.4,1,3,1.5,4.7,1.3c1.4,0.1,2.8-0.3,3.9-1.1C556.8,382.3,557.3,381.2,557.3,380.2z"/>
	<circle class="st2" cx="389.3" cy="193.4" r="98"/>
</g>
<g id="Layer_2">
	<path class="st3" d="M327.6,130c18.9-18.8,33.5-19.9,33.5-19.9l27.3,63.5c0,0-5.4,1.8-10.3,6.7c-4.9,4.9-7.7,11.2-7.7,11.2
		l-63.5-27.4C306.9,164.2,308.9,148.7,327.6,130z"/>
	<path class="st4" d="M381.9,184.2"/>
	<path class="st1" d="M315.1,160.8l14.4,6.8c0,0,4.3-9.9,15.1-20.7c10.8-10.8,19.7-14.1,19.7-14.1l-7.2-14c0,0-11.2,3.2-24.3,16.3
		C319.7,148.3,315.1,160.8,315.1,160.8z"/>
	<path class="st1" d="M333.6,169.3l12.8,5.7c0,0,3.1-7.2,11.1-15.2c8-8,15.2-11,15.2-11l-6.4-12.3c0,0-9.3,3.6-19,13.2
		C337.7,159.4,333.6,169.3,333.6,169.3z"/>
	<path class="st1" d="M351.5,177.5l12.6,6c0,0,3.6-5.6,7.5-9.6c3.2-3.2,9.4-7.2,9.4-7.2l-5.8-12.6c0,0-4.3-0.2-14,9.5
		C351.5,173.2,351.5,177.5,351.5,177.5z"/>
	<path class="st1" d="M375.2,154.1c0,0-6.6,2.1-14,9.5c-7.1,7.1-9.7,14-9.7,14"/>
	<path class="st3" d="M451.2,254.7c-18.9,18.8-33.5,19.9-33.5,19.9l-26.3-62.5c0,0,4.4-1.8,9.3-6.7c4.9-4.9,7.7-11.2,7.7-11.2
		l63.5,26.4C471.9,220.6,469.9,236.1,451.2,254.7z"/>
	<path class="st4" d="M381.2,184.9"/>
	<path class="st1" d="M463.8,224l-14.4-6.8c0,0-4.3,9.9-15.1,20.7c-10.8,10.8-19.7,14.1-19.7,14.1l7.2,14c0,0,11.2-3.2,24.3-16.3
		C459.2,236.5,463.8,224,463.8,224z"/>
	<path class="st1" d="M445.2,215.5l-12.8-5.7c0,0-3.1,7.2-11.1,15.2c-8,8-15.2,11-15.2,11l6.4,12.3c0,0,9.3-3.6,19-13.2
		C441.2,225.4,445.2,215.5,445.2,215.5z"/>
	<path class="st1" d="M427.3,207.2l-12.6-6c0,0-3.6,5.6-7.5,9.6c-3.2,3.2-9.4,7.2-9.4,7.2l5.8,12.6c0,0,4.3,0.2,14-9.5
		C427.3,211.5,427.3,207.2,427.3,207.2z"/>
	<path class="st1" d="M403.6,230.7c0,0,6.6-2.1,14-9.5c7.1-7.1,9.7-14,9.7-14"/>
</g>
</svg>
