<svg xmlns="http://www.w3.org/2000/svg" viewBox="0 0 768.94 458.48"><defs><style>.a{fill:none;}.b{fill:#fff;stroke-width:16px;}.b,.c{stroke:#571e59;stroke-miterlimit:10;}.c,.d{fill:#571e59;}.c{stroke-width:11px;}</style></defs><title>about-1</title><rect class="a" width="768.94" height="458.48"/><line class="b" x1="352.98" y1="229.89" x2="544.21" y2="229.89"/><line class="b" x1="224.73" y1="229.89" x2="279.6" y2="229.89"/><rect class="c" x="279.6" y="193.2" width="73.38" height="73.38" rx="12" ry="12"/><line class="b" x1="495.18" y1="129.51" x2="544.21" y2="129.51"/><line class="b" x1="224.73" y1="129.51" x2="421.8" y2="129.51"/><rect class="c" x="421.8" y="92.82" width="73.38" height="73.38" rx="12" ry="12"/><path class="d" d="M253.69,530.33a10.51,10.51,0,0,1-3.44,7.27,11.72,11.72,0,0,1-8,2.61,11.35,11.35,0,0,1-6.13-1.65,10.82,10.82,0,0,1-4.09-4.69,16.91,16.91,0,0,1-1.5-7.06V524.1a17,17,0,0,1,1.46-7.25,11,11,0,0,1,4.19-4.84,11.68,11.68,0,0,1,6.31-1.7,11.25,11.25,0,0,1,7.75,2.61,10.9,10.9,0,0,1,3.42,7.39h-5a7.19,7.19,0,0,0-1.83-4.53,6,6,0,0,0-4.31-1.39,5.9,5.9,0,0,0-5.07,2.41q-1.77,2.41-1.81,7.07v2.58q0,4.72,1.69,7.2a5.6,5.6,0,0,0,4.95,2.48,6.54,6.54,0,0,0,4.48-1.34,7,7,0,0,0,1.9-4.46h5Z" transform="translate(-71.75 -152.61)"/><path class="d" d="M281.43,526a17.86,17.86,0,0,1-1.48,7.5,11.18,11.18,0,0,1-4.23,5,12.4,12.4,0,0,1-12.63,0,11.35,11.35,0,0,1-4.28-4.93,17.29,17.29,0,0,1-1.53-7.37v-1.64A17.7,17.7,0,0,1,258.8,517a11.34,11.34,0,0,1,4.26-5,12.43,12.43,0,0,1,12.61,0,11.2,11.2,0,0,1,4.25,4.92,17.66,17.66,0,0,1,1.52,7.46V526Zm-5.06-1.52q0-4.84-1.83-7.41a6.45,6.45,0,0,0-10.31,0q-1.85,2.57-1.89,7.27V526q0,4.8,1.87,7.42a6,6,0,0,0,5.19,2.62,6,6,0,0,0,5.17-2.56q1.81-2.56,1.81-7.48V524.5Z" transform="translate(-71.75 -152.61)"/><path class="d" d="M291.52,535.73h13.21v4.08H286.47v-29.1h5.06v25Z" transform="translate(-71.75 -152.61)"/><path class="d" d="M330.56,526a17.86,17.86,0,0,1-1.48,7.5,11.18,11.18,0,0,1-4.23,5,12.4,12.4,0,0,1-12.63,0,11.35,11.35,0,0,1-4.28-4.93,17.29,17.29,0,0,1-1.53-7.37v-1.64a17.7,17.7,0,0,1,1.51-7.51,11.34,11.34,0,0,1,4.26-5,12.43,12.43,0,0,1,12.61,0,11.2,11.2,0,0,1,4.25,4.92,17.66,17.66,0,0,1,1.52,7.46V526Zm-5.06-1.52q0-4.84-1.83-7.41a6.45,6.45,0,0,0-10.31,0q-1.85,2.57-1.89,7.27V526q0,4.8,1.87,7.42a6,6,0,0,0,5.19,2.62,6,6,0,0,0,5.17-2.56q1.81-2.56,1.81-7.48V524.5Z" transform="translate(-71.75 -152.61)"/><path class="d" d="M356.88,510.71v19.45a9.45,9.45,0,0,1-3,7.34,13,13,0,0,1-15.84,0,9.5,9.5,0,0,1-2.94-7.4V510.71h5v19.44a6.17,6.17,0,0,0,1.48,4.45,5.77,5.77,0,0,0,4.36,1.54q5.84,0,5.84-6.15V510.71h5Z" transform="translate(-71.75 -152.61)"/><path class="d" d="M373,528.62h-5.64v11.19h-5.06v-29.1h10.23q5,0,7.77,2.26a8,8,0,0,1,2.74,6.54,8.19,8.19,0,0,1-1.41,4.89,9,9,0,0,1-3.93,3l6.54,12.12v0.26H378.8Zm-5.64-4.08h5.2a5.78,5.78,0,0,0,4-1.29,4.49,4.49,0,0,0,1.44-3.53,4.79,4.79,0,0,0-1.33-3.62,5.65,5.65,0,0,0-4-1.32h-5.34v9.75Z" transform="translate(-71.75 -152.61)"/><path class="d" d="M404.57,510.71L413,533l8.37-22.3h6.54v29.1h-5v-9.59l0.5-12.83-8.59,22.42h-3.62l-8.57-22.4,0.5,12.81v9.59h-5v-29.1h6.56Z" transform="translate(-71.75 -152.61)"/><path class="d" d="M450.49,533H439.22l-2.36,6.78h-5.26l11-29.1h4.54l11,29.1h-5.28ZM440.64,529h8.43l-4.22-12.07Z" transform="translate(-71.75 -152.61)"/><path class="d" d="M484.53,539.81h-5.06l-13-20.65v20.65h-5.06v-29.1h5.06l13,20.73V510.71h5v29.1Z" transform="translate(-71.75 -152.61)"/><path class="d" d="M495.84,539.81h-5v-29.1h5v29.1Z" transform="translate(-71.75 -152.61)"/><path class="d" d="M507.11,529v10.79h-5.06v-29.1h11.13a11.26,11.26,0,0,1,7.74,2.54A8.55,8.55,0,0,1,523.8,520a8.26,8.26,0,0,1-2.81,6.66q-2.81,2.38-7.86,2.38h-6Zm0-4.08h6.08a6,6,0,0,0,4.12-1.27,4.67,4.67,0,0,0,1.42-3.67,5,5,0,0,0-1.44-3.77,5.55,5.55,0,0,0-4-1.45h-6.22v10.15Z" transform="translate(-71.75 -152.61)"/><path class="d" d="M549.51,510.71v19.45a9.45,9.45,0,0,1-3,7.34,13,13,0,0,1-15.84,0,9.5,9.5,0,0,1-2.94-7.4V510.71h5v19.44a6.17,6.17,0,0,0,1.48,4.45,5.77,5.77,0,0,0,4.36,1.54q5.84,0,5.84-6.15V510.71h5Z" transform="translate(-71.75 -152.61)"/><path class="d" d="M560,535.73h13.21v4.08H554.9v-29.1H560v25Z" transform="translate(-71.75 -152.61)"/><path class="d" d="M593.72,533H582.44l-2.36,6.78h-5.26l11-29.1h4.54l11,29.1h-5.28ZM583.86,529h8.43l-4.22-12.07Z" transform="translate(-71.75 -152.61)"/><path class="d" d="M623.29,514.79h-9.07v25h-5v-25h-9v-4.08h23.08v4.08Z" transform="translate(-71.75 -152.61)"/><path class="d" d="M632.45,539.81h-5v-29.1h5v29.1Z" transform="translate(-71.75 -152.61)"/><path class="d" d="M661.89,526a17.86,17.86,0,0,1-1.48,7.5,11.18,11.18,0,0,1-4.23,5,12.4,12.4,0,0,1-12.63,0,11.35,11.35,0,0,1-4.28-4.93,17.28,17.28,0,0,1-1.53-7.37v-1.64a17.69,17.69,0,0,1,1.51-7.51,11.34,11.34,0,0,1,4.26-5,12.43,12.43,0,0,1,12.61,0,11.19,11.19,0,0,1,4.25,4.92,17.67,17.67,0,0,1,1.52,7.46V526Zm-5.06-1.52q0-4.84-1.83-7.41a6.45,6.45,0,0,0-10.31,0q-1.85,2.57-1.89,7.27V526q0,4.8,1.87,7.42a6,6,0,0,0,5.19,2.62,6,6,0,0,0,5.17-2.56q1.81-2.56,1.81-7.48V524.5Z" transform="translate(-71.75 -152.61)"/><path class="d" d="M690,539.81H685l-13-20.65v20.65h-5.06v-29.1H672l13,20.73V510.71h5v29.1Z" transform="translate(-71.75 -152.61)"/></svg>