<svg xmlns="http://www.w3.org/2000/svg" viewBox="0 0 1365.85 415.06"><defs><style>.a,.b{fill:#565656;}.b,.c,.j,.k{stroke:#565656;}.b,.c,.j,.k,.l,.m,.n,.o{stroke-miterlimit:10;}.b,.c{stroke-width:13.82px;}.c,.j,.k,.l{fill:none;}.d{fill:#30d2d6;}.e{fill:#f53eff;}.f{fill:#c4bc30;}.g{fill:#d33131;}.h{fill:#39d331;}.i{fill:#315fd3;}.j{stroke-width:16.75px;}.k{stroke-width:11.51px;}.l{stroke:#535554;stroke-width:10px;}.m,.n{fill:#009846;}.m,.n,.o{stroke:#fff;}.m{stroke-width:10.75px;}.n,.o{stroke-width:6.76px;}.o{fill:#217c47;}</style></defs><title>cdm</title><rect class="a" x="908.69" y="228.53" width="104.83" height="39.6"/><path class="b" d="M1229,628.45H1079.4a22.32,22.32,0,0,0-22.32,22.32V724h51.42V700.76h98.09V724h44.7V650.82A22.32,22.32,0,0,0,1229,628.45h0Zm1.62,34.64a14.61,14.61,0,1,1,14.61-14.61v0.06a14.61,14.61,0,0,1-14.62,14.58v0Z" transform="translate(-193.1 -348.53)"/><polyline class="c" points="1013.51 375.51 1013.51 408.15 915.41 408.15 915.41 375.51"/><path class="d" d="M641.08,698.3c-3.4,1.7-10.19,3.4-18.89,3.4-20.16,0-35.34-12.74-35.34-36.19,0-22.39,15.18-37.57,37.36-37.57,8.91,0,14.54,1.91,17,3.18L639,638.66a33.62,33.62,0,0,0-14.43-3c-16.77,0-27.91,10.72-27.91,29.5,0,17.51,10.08,28.76,27.49,28.76,5.62,0,11.36-1.17,15.07-3Z" transform="translate(-193.1 -348.53)"/><path class="e" d="M712.92,669.22c-0.53-10-1.17-22-1.06-30.88h-0.32c-2.44,8.38-5.41,17.3-9,27.17l-12.63,34.7h-7l-11.57-34.07c-3.4-10.08-6.26-19.31-8.28-27.8h-0.21c-0.21,8.91-.74,20.91-1.38,31.63l-1.91,30.67h-8.81l5-71.53H667.5l12.2,34.6c3,8.81,5.41,16.66,7.22,24.09h0.32c1.8-7.22,4.35-15.07,7.54-24.09l12.73-34.6h11.78l4.46,71.53h-9Z" transform="translate(-193.1 -348.53)"/><path class="f" d="M753.88,700.63V670.28l-22.6-41.18h10.51l10.08,19.74c2.76,5.41,4.88,9.76,7.11,14.75h0.21c2-4.67,4.46-9.34,7.22-14.75l10.29-19.74H787.2l-24,41.07v30.46h-9.34Z" transform="translate(-193.1 -348.53)"/><path d="M794.62,629.1h9.23v34.49h0.32c1.91-2.76,3.82-5.31,5.62-7.64l21.86-26.85h11.46l-25.89,30.35,27.91,41.18H834.21l-23.56-35.13-6.79,7.85v27.27h-9.23V629.1Z" transform="translate(-193.1 -348.53)"/><path class="g" d="M630.21,398.35a96.18,96.18,0,0,1,17.72-1.49c9.87,0,16.24,1.8,20.69,5.84,3.61,3.18,5.62,8.07,5.62,13.58,0,9.44-5.94,15.71-13.48,18.25v0.32c5.52,1.91,8.81,7,10.51,14.43,2.33,10,4,16.87,5.52,19.63h-9.55c-1.17-2-2.76-8.17-4.78-17.09-2.12-9.87-5.94-13.58-14.33-13.9h-8.7v31h-9.23V398.35Zm9.23,32.58h9.45c9.87,0,16.13-5.41,16.13-13.58,0-9.23-6.69-13.27-16.45-13.37a38,38,0,0,0-9.13.85v26.11Z" transform="translate(-193.1 -348.53)"/><path class="h" d="M742.06,465.74a66.65,66.65,0,0,1-22,3.93c-10.82,0-19.74-2.76-26.74-9.44-6.16-5.94-10-15.49-10-26.64,0.11-21.33,14.75-36.93,38.74-36.93,8.28,0,14.75,1.8,17.83,3.29l-2.23,7.53a37.07,37.07,0,0,0-15.81-3.08c-17.4,0-28.76,10.82-28.76,28.76,0,18.15,10.93,28.87,27.59,28.87,6,0,10.19-.85,12.31-1.91V438.78H718.5v-7.43h23.56v34.38Z" transform="translate(-193.1 -348.53)"/><path class="i" d="M756.17,398.35A89.5,89.5,0,0,1,773,396.87c9.23,0,15.18,1.59,19.63,5.2,3.71,2.76,5.94,7,5.94,12.63,0,6.9-4.56,12.95-12.1,15.71v0.21c6.79,1.7,14.75,7.32,14.75,17.94a19.28,19.28,0,0,1-6,14.33c-5,4.56-13.05,6.69-24.73,6.69a107.88,107.88,0,0,1-14.33-.85V398.35Zm9.23,29.29h8.38c9.76,0,15.49-5.09,15.49-12,0-8.38-6.37-11.67-15.71-11.67a39.61,39.61,0,0,0-8.17.64v23Zm0,34.28a49.33,49.33,0,0,0,7.75.42c9.55,0,18.36-3.5,18.36-13.9,0-9.76-8.38-13.8-18.47-13.8H765.4v27.27Z" transform="translate(-193.1 -348.53)"/><path class="j" d="M1239.34,492.88H1069a6.53,6.53,0,0,1-6.51-6.51l5.43-123a6.53,6.53,0,0,1,6.51-6.51h159.44a6.53,6.53,0,0,1,6.51,6.51l5.43,123A6.53,6.53,0,0,1,1239.34,492.88Z" transform="translate(-193.1 -348.53)"/><path class="a" d="M1222.93,475H1085.45a5.06,5.06,0,0,1-5.23-4.79l3.3-90.57a5.06,5.06,0,0,1,5.23-4.79h130.83a5.06,5.06,0,0,1,5.23,4.79l3.3,90.57A5.06,5.06,0,0,1,1222.93,475Z" transform="translate(-193.1 -348.53)"/><polyline class="k" points="948.2 144.36 948.2 158.21 935.94 163.87 986.25 163.87 975.51 158.21 975.51 144.36"/><rect class="l" x="348.65" y="249.3" width="347.83" height="138.08" rx="7.87" ry="7.87"/><rect class="l" x="348.65" y="17.08" width="347.83" height="138.08" rx="7.87" ry="7.87"/><circle class="m" cx="86.72" cy="201.74" r="81.34"/><circle class="n" cx="1311.29" cy="95.11" r="51.19"/><circle class="o" cx="1311.29" cy="328.39" r="51.19"/><path d="M375,473l22.26-22.28c3-3,6.48-8.06,10.69-9.51,4.69-1.62,11.08-1.08,16-1.31a391.29,391.29,0,0,1,65.93,2.54c6.37,0.78,6.32-9.23,0-10a390.77,390.77,0,0,0-71.83-2.21c-4.83.3-10.26,0.14-14.77,2.1-4.15,1.81-7.24,5.48-10.37,8.62l-25,25c-4.55,4.56,2.52,11.63,7.07,7.07h0Z" transform="translate(-193.1 -348.53)"/><path d="M468.19,424c8.34,6.08,17,11.7,25.33,17.78l-1-7.85Q482.05,444.36,470.83,454c-4.89,4.2,2.21,11.25,7.07,7.07q11.23-9.65,21.68-20.13c2.46-2.46,1.55-6-1-7.85-8.34-6.08-17-11.7-25.33-17.78-5.21-3.8-10.2,4.88-5,8.63h0Z" transform="translate(-193.1 -348.53)"/><path d="M1008,432.4c-28.2,1.41-56.46-.18-84.68.46-6.43.14-6.45,10.14,0,10,28.22-.63,56.48,1,84.68-0.46,6.4-.32,6.44-10.32,0-10h0Z" transform="translate(-193.1 -348.53)"/><path d="M986.27,424c8.34,6.08,17,11.7,25.33,17.78l-1-7.85q-10.45,10.48-21.68,20.13c-4.89,4.2,2.21,11.25,7.07,7.07q11.23-9.65,21.68-20.13c2.46-2.46,1.55-6-1-7.85-8.34-6.08-17-11.7-25.33-17.78-5.21-3.8-10.2,4.88-5,8.63h0Z" transform="translate(-193.1 -348.53)"/><path d="M1390.87,432.4c-28.2,1.41-56.46-.18-84.68.46-6.43.14-6.45,10.14,0,10,28.22-.63,56.48,1,84.68-0.46,6.4-.32,6.44-10.32,0-10h0Z" transform="translate(-193.1 -348.53)"/><path d="M1369.17,424c8.34,6.08,17,11.7,25.33,17.78l-1-7.85Q1383,444.36,1371.81,454c-4.89,4.2,2.21,11.25,7.07,7.07q11.23-9.65,21.68-20.13c2.46-2.46,1.55-6-1-7.85-8.34-6.08-17-11.7-25.33-17.78-5.21-3.8-10.2,4.88-5,8.63h0Z" transform="translate(-193.1 -348.53)"/><path d="M923.29,680.37c28.22-.51,56.45-0.46,84.68-0.46,6.43,0,6.45-10,0-10-28.23,0-56.46-.05-84.68.46-6.43.12-6.45,10.12,0,10h0Z" transform="translate(-193.1 -348.53)"/><path d="M986.27,661.47c8.34,6.08,17,11.7,25.33,17.78l-1-7.85q-10.45,10.48-21.68,20.13c-4.89,4.2,2.21,11.25,7.07,7.07q11.23-9.65,21.68-20.13c2.46-2.46,1.55-6-1-7.85-8.34-6.08-17-11.7-25.33-17.78-5.21-3.8-10.2,4.88-5,8.63h0Z" transform="translate(-193.1 -348.53)"/><path d="M1317.52,680.37c28.22-.51,56.45-0.46,84.68-0.46,6.43,0,6.45-10,0-10-28.23,0-56.46-.05-84.68.46-6.43.12-6.45,10.12,0,10h0Z" transform="translate(-193.1 -348.53)"/><path d="M1380.5,661.47c8.34,6.08,17,11.7,25.33,17.78l-1-7.85q-10.45,10.48-21.68,20.13c-4.89,4.2,2.21,11.25,7.07,7.07q11.23-9.65,21.68-20.13c2.46-2.46,1.55-6-1-7.85-8.34-6.08-17-11.7-25.33-17.78-5.21-3.8-10.2,4.88-5,8.63h0Z" transform="translate(-193.1 -348.53)"/><path d="M367.84,630.63l24.28,25.95c3.16,3.38,6.28,7.49,10.48,9.62,4.6,2.34,10.44,2.15,15.45,2.49a366.41,366.41,0,0,0,71.83-2.36c6.5-.85,6.58-11.19,0-10.33A366.9,366.9,0,0,1,424,658.7c-4.85-.24-10.51.07-15.2-1.23-4.38-1.21-7.71-6.47-10.68-9.65l-22.93-24.5c-4.55-4.86-11.85,2.45-7.31,7.31h0Z" transform="translate(-193.1 -348.53)"/><path d="M474.36,683.76c8.33-6.48,17-12.49,25.33-19,2.26-1.75,1.71-5.47,0-7.31Q489.26,646.33,478,636c-4.89-4.49-12.22,2.8-7.31,7.31q11.26,10.33,21.68,21.49v-7.31c-8.33,6.48-17,12.49-25.33,19-5.24,4.08,2.12,11.34,7.31,7.31h0Z" transform="translate(-193.1 -348.53)"/></svg>