<svg xmlns="http://www.w3.org/2000/svg" viewBox="0 0 258.46 218.08"><defs><style>.a{fill:#f9f9f9;stroke:#e8e8e8;stroke-miterlimit:10;stroke-width:2px;}.b{opacity:0.91;}</style></defs><title>computer</title><polyline class="a" points="110.49 177.51 107.49 213.86 92.67 213.66 92.67 217.08 165.79 217.08 165.79 213.83 153.19 213.86 150.18 177.51"/><path class="a" d="M394.57,540.9H156.33c-5,0-9.11-3.83-9.11-8.5l5.72-160.48c0-4.68,4.1-8.5,9.11-8.5h226.8c5,0,9.11,3.83,9.11,8.5l5.72,160.48C403.68,537.08,399.58,540.9,394.57,540.9Z" transform="translate(-146.22 -362.42)"/><path class="b" d="M156.26,514.79l4.36-137.13c0-3.76,3.84-6.84,8.54-6.84H381.74c4.7,0,8.54,3.08,8.54,6.84l4.36,137.13H156.26Z" transform="translate(-146.22 -362.42)"/></svg>