<svg xmlns="http://www.w3.org/2000/svg" viewBox="0 0 491.48 295.98"><defs><style>.a{fill:#d6d6d6;}.b{fill:#f7f7f7;}.c{fill:#1c1b1a;}.d{fill:#bababa;}</style></defs><title>congratulations</title><path class="a" d="M1006.27,288.18c14.92,4.79,10.94,26.05,10.94,26.05l4.4,6.81s3.06-18.11,11.53-24.22,16.53-.1,16.53-0.1-0.08,14.56-10.51,29.82-14.44,43.75-14.26,48.95S1043.39,419,1043.39,419c14.82,19.13.6,20.86,0.6,20.86s-14.77-5.93-17.57-9.94c-10.5-15-26.19-31.74-31.78-30s-19.29,23.38-19.29,23.38l-24.92,17.92-7.78-3.16s6.7-20.11,11.74-29.79,13.94-30.43,13.94-30.43a35.38,35.38,0,0,0,.56-20.9c-3.25-11.28-12.5-21.45-18.46-34.16s-13.17-26.51-5.89-36.14,24.35,27.58,24.35,27.58,2-22.53,13.71-25.09S979.4,279.54,1006.27,288.18Z" transform="translate(-750.51 -281.84)"/><path class="b" d="M971.66,323.13s3.71-15.89,15.88-20.85a236.47,236.47,0,0,1,25.92-8.52s-19.49-14.3-30.87-4.62S967.61,304,971.66,323.13Z" transform="translate(-750.51 -281.84)"/><path class="b" d="M956.4,295.41s-4-20.94-11.86-8.77,5.89,36.14,5.89,36.14S949.09,308.51,956.4,295.41Z" transform="translate(-750.51 -281.84)"/><path class="b" d="M971.66,365.45s1.95,1.86,0,18.61-24.59,64.26-29,54,5.41-14.82,11.74-29.79S971.66,365.45,971.66,365.45Z" transform="translate(-750.51 -281.84)"/><path class="c" d="M968.67,342.63a129.74,129.74,0,0,1-19-31.09c-2.14-5-4.16-10.55-4.23-15.82,0-1.14-.07-5.44,1.62-5.35,0.92,0,2.21,1.75,2.73,2.38a30.45,30.45,0,0,1,3,5.06L968,326c2.62,4.87,10,.54,7.41-4.33-5.28-9.82-10.53-19.66-15.84-29.47-2.08-3.84-4.83-7.76-9-9.55a9.18,9.18,0,0,0-11.76,4c-3.45,6.21-1.84,14.42.2,20.82A109.35,109.35,0,0,0,949,329a143.65,143.65,0,0,0,13.6,19.65c1.48,1.78,4.54,1.53,6.07,0a4.39,4.39,0,0,0,0-6.07h0Z" transform="translate(-750.51 -281.84)"/><path class="c" d="M980.06,326.73c-4.37-4.42-7.44-9.23-6.76-15.61a37.43,37.43,0,0,1,3.57-11.51,12.63,12.63,0,0,1,7.08-6.44c6.31-2.6,15.73-4,21.88-.44,4.73,2.72,7.94,8.32,9.38,13.65,1.83,6.82.69,13.88-4.66,18.75-4.09,3.73,2,9.79,6.07,6.07,13.23-12.05,8.82-34.83-4.78-44.79-7.92-5.81-19.77-5-28.67-2.06-4.41,1.46-8.62,3.73-11.54,7.43-3.23,4.08-5.18,9.87-6.25,14.92a25.82,25.82,0,0,0,.46,14A33.41,33.41,0,0,0,974,332.8c3.89,3.94,10-2.13,6.07-6.07h0Z" transform="translate(-750.51 -281.84)"/><path class="c" d="M1013.58,332.47c9.22-1,12.49-10.28,15.28-17.85a77.4,77.4,0,0,1,4.91-10.89c2.08-3.75,4.67-7.61,9-8.9l-3.31-.43c4.41,3.13,4.27,9.76,3,14.41-2,7.12-7.54,12.88-11.59,18.89-8.22,12.21-9.51,27.18-10,41.51-0.27,7.28-.2,14.41,1.74,21.49a71.48,71.48,0,0,0,9.79,20.65c2.31,3.45,4.84,6.76,7.46,10a43.59,43.59,0,0,1,4.45,6c1,1.81,1.61,3.57.69,5.47-0.73,1.5-2.45,2.15-3.23,3.46-0.18.3,0.26,0,.33-0.1s-1.21.54,0.2,0a1.42,1.42,0,0,1-.51,0c-0.33-.27.54,0.11,0.05,0-4.13-1.13-8.89-5.89-12.35-9.27a149,149,0,0,1-13.78-15c-3.51-4.54-6.45-9.68-11.33-12.92-5.64-3.75-13-4.65-18.39-.2-4.34,3.55-7.17,8.76-10.79,13-4.3,5-8.8,9.84-13.19,14.77a57.39,57.39,0,0,1-8.09,8,13.22,13.22,0,0,1-3,1.8,4,4,0,0,1-2.65.25c-1.77-.5-4.47-2.49-4.24-4.56,0.29-2.68,3.31-5.55,4.88-7.59a174.75,174.75,0,0,0,13.38-20.92,114.09,114.09,0,0,0,8.49-18.41,56.71,56.71,0,0,0,1.64-32.54,71.35,71.35,0,0,0-2.56-8,4.41,4.41,0,0,0-5.28-3c-2.07.57-3.83,3.1-3,5.28a54.66,54.66,0,0,1,4,18.15,51.21,51.21,0,0,1-3.27,18.42c-2.68,7.56-6.62,14.66-10.77,21.51-2.7,4.45-5.46,8.92-8.51,13.14-2.49,3.45-5.59,6.64-7,10.75-2.72,8.08,5.3,16.68,13.42,16.44,8.71-.25,15.29-8.93,20.53-14.83,4.73-5.32,9.69-10.48,14.13-16.05,2.14-2.69,4-5.68,6.41-8.15,0.87-.9,1.92-1.94,3.21-2a10.48,10.48,0,0,1,4.23,1,14.88,14.88,0,0,1,5.94,5.06c2.43,3.1,4.62,6.37,7.12,9.41A148.1,148.1,0,0,0,1027.73,437c4.21,3.67,10.46,9.18,16.58,7.43,3.93-1.13,7.47-5.51,8.87-9.19a13.77,13.77,0,0,0-.76-10.72,38.2,38.2,0,0,0-5.65-8.14,111.78,111.78,0,0,1-8.41-11.46c-4.53-7.19-8.17-15.27-9-23.82-0.76-8.26,0-17,.91-25.24s2.86-16.12,7.46-23.1c4.9-7.44,11.42-14.29,13.32-23.27,1.59-7.54.43-16.34-5.92-21.43-2.2-1.77-4.09-1.83-6.65-.79a19.92,19.92,0,0,0-5.56,3.47,32.84,32.84,0,0,0-7.12,9.64c-3.27,6.18-5,13-8.25,19.16a13.76,13.76,0,0,1-2.15,3.18,3.79,3.79,0,0,1-1.85,1.2c-2.3.25-4.29,1.79-4.29,4.29,0,2.13,2,4.54,4.29,4.29h0Z" transform="translate(-750.51 -281.84)"/><path class="c" d="M974.84,451v14.61c0,2.82,4.38,2.83,4.38,0V451c0-2.82-4.38-2.83-4.38,0h0Z" transform="translate(-750.51 -281.84)"/><path class="c" d="M995.3,443.7v51.15c0,2.82,4.38,2.83,4.38,0V443.7c0-2.82-4.38-2.83-4.38,0h0Z" transform="translate(-750.51 -281.84)"/><path class="c" d="M1014.29,456.85v19c0,2.82,4.38,2.83,4.38,0v-19c0-2.82-4.38-2.83-4.38,0h0Z" transform="translate(-750.51 -281.84)"/><path class="c" d="M881.86,519c13.53,0,27-1.52,40.46-2.79,4.47-.42,9-0.93,13.49-0.91,7,0,13.66,2.69,20.48,3.84a83.79,83.79,0,0,0,23.34.71c7.38-.84,14.4-3.15,21.7-4.35,7.93-1.31,16.24-.45,24.23-0.21l24,0.73,55.91,1.7c4.49,0.14,4.49-6.84,0-7l-49.92-1.52-24-.73c-8.16-.25-16.41-0.86-24.57-0.52-7.81.33-15.1,2.77-22.72,4.19a77.26,77.26,0,0,1-22.4.76c-7.89-.86-15.38-3.72-23.28-4.47a68.43,68.43,0,0,0-12.26.42c-14.8,1.28-29.57,3.12-44.46,3.15-4.49,0-4.5,7,0,7h0Z" transform="translate(-750.51 -281.84)"/><path class="d" d="M911.64,538.18c41.76-4,83.74-4.5,125.65-4.21,11.89,0.08,23.78.23,35.67,0.37l-0.93-6.85a469.53,469.53,0,0,0-86.76,25.46c-3.52,1.42-3.23,6.69.93,6.85q17.74,0.67,35.43,2l-1.76-6.5-9.93,6.71c-2.73,1.85-6.11,3.59-6.5,7.24a7.82,7.82,0,0,0,4,7.41c3.33,1.87,7.16,1.07,10.6,0,4.27-1.33,2.45-8.06-1.85-6.73-1.58.49-3.93,1.51-5.51,0.54-0.14-.08-0.47-0.86-0.47-0.18,0-.41,1.69-1.23,2-1.42l11.17-7.55a3.52,3.52,0,0,0-1.76-6.5q-17.7-1.36-35.43-2l0.93,6.85a469.53,469.53,0,0,1,86.76-25.46c3.95-.75,2.91-6.8-0.93-6.85-41.92-.51-83.89-1-125.78,1.21q-17.8.95-35.54,2.62c-4.43.42-4.47,7.4,0,7h0Z" transform="translate(-750.51 -281.84)"/><path class="c" d="M751,368.39a87.65,87.65,0,0,0,6.5,43.92c2.4,5.62,6.77,12.48,14,10.72,3.21-.78,5.12-3.24,6.33-6.17,1.57-3.8,2.87-7.73,4.29-11.59l-6.4.84a83.45,83.45,0,0,0,7.42,9c2.35,2.45,5.25,6,8.71,6.75,7.7,1.73,10-10,11.33-15.2A124.69,124.69,0,0,0,806.35,383a217.87,217.87,0,0,0,.35-22.19c-0.42-8-2.19-15.64-7.2-22.07-1.17-1.5-3.72-1.21-4.95,0-1.49,1.46-1.16,3.47,0,4.95,4.26,5.47,5.08,12.8,5.23,19.5,0.19,7.94-.12,16-0.68,23.88a94.27,94.27,0,0,1-4.39,23.81,23,23,0,0,1-1.87,4.24q1.05,0.15.21-.23-0.54-.44-1-0.91c-0.67-.6-1.32-1.22-2-1.84a71.3,71.3,0,0,1-8.22-9.52,3.55,3.55,0,0,0-6.4.84L772,412.71c-0.62,1.69-1.11,4.1-3.37,3.39-2.08-.65-3.17-3.18-4-5a69.69,69.69,0,0,1-3.17-8.22,82.43,82.43,0,0,1-3.4-34.5c0.21-1.89-1.76-3.48-3.5-3.5a3.58,3.58,0,0,0-3.5,3.5h0Z" transform="translate(-750.51 -281.84)"/><path class="c" d="M827.65,351.1c-8.56,1.2-14.16,8.61-17,16.22a65.2,65.2,0,0,0-3.18,12.86c-0.56,3.87.07,7.79,3.09,10.54,5,4.55,13,3.75,18.89,1.61,6.92-2.52,13.51-7.25,15.26-14.79,1-4.38-5.73-6.25-6.75-1.86-1.15,5-5.5,8-10,9.77-3.39,1.3-9.18,2.92-12.42.32-2.15-1.73-1.11-4.95-.61-7.22a68.28,68.28,0,0,1,2.51-9.36c2-5.53,5.93-10.47,12.06-11.33,1.89-.27,2.88-2.65,2.44-4.31-0.53-2-2.44-2.71-4.31-2.44h0Z" transform="translate(-750.51 -281.84)"/><path class="c" d="M816,379.18a68.24,68.24,0,0,0,16.22-8.77c3.59-2.64.1-8.72-3.53-6a61.81,61.81,0,0,1-14.55,8.06c-4.16,1.59-2.36,8.37,1.86,6.75h0Z" transform="translate(-750.51 -281.84)"/><path class="c" d="M845.56,349.59a212.35,212.35,0,0,0,2,36.79c0.27,2,2.65,2.78,4.31,2.44l22-4.49c4.41-.9,2.54-7.65-1.86-6.75l-22,4.49,4.31,2.44a202,202,0,0,1-1.77-34.93c0.15-4.51-6.85-4.5-7,0h0Z" transform="translate(-750.51 -281.84)"/><path class="c" d="M872.74,341.18c-0.25,9.1.68,18.22,0.84,27.32,0,2-.28,4.18.17,6.12,0.73,3.16,3.67,4.53,6.68,4.09,3.2-.47,6.4-1.72,9.51-2.61l11-3.15c4.32-1.24,2.48-8-1.86-6.75l-17.7,5.07a8.33,8.33,0,0,0-2.11.58l1.29,1.18q0-.43,0-0.86a10.62,10.62,0,0,0,0-2.07c0-1.84-.06-3.67-0.12-5.51-0.27-7.79-.95-15.61-0.73-23.4,0.12-4.51-6.88-4.5-7,0h0Z" transform="translate(-750.51 -281.84)"/><path class="c" d="M1095.7,333.4a180.67,180.67,0,0,1-15.63,47.05c-2,4,4,7.57,6,3.53a187.25,187.25,0,0,0,16.33-48.73c0.82-4.4-5.92-6.29-6.75-1.86h0Z" transform="translate(-750.51 -281.84)"/><path class="c" d="M1096.16,333.88a42.1,42.1,0,0,1,6.85-2.11c2.16-.52,4.58-1.24,6.79-0.65,6.55,1.74,10.37,8.72,10.51,15.14,0.31,14.82-12.44,27.88-24.83,34.13a49.24,49.24,0,0,1-23.09,5.24c-4.51-.08-4.51,6.92,0,7a57,57,0,0,0,45.13-21.22c5.69-7.19,10.16-16.19,9.79-25.57-0.34-8.4-4.94-16.89-12.82-20.43-6.82-3.06-15.36-.6-21.85,2.43-4.08,1.9-.53,7.94,3.53,6h0Z" transform="translate(-750.51 -281.84)"/><path class="c" d="M1122.58,364.94c-1.39,2.59-3,4-4.29,6.74-1.89,4.12-3.71,9.35-1.39,13.64,4.49,8.29,16.89,6.38,23.71,2.78,4.08-2.16,8-5.64,10-9.89,1.7-3.72,2.19-9,1.8-13-0.42-4.36-2.39-7.82-6.41-9.73-3.07-1.46-7.18-3.29-10.64-2.4-5.46,1.41-9.8,7.45-12.74,11.92-2.48,3.77,3.58,7.29,6,3.53a33.63,33.63,0,0,1,6.14-7.2,10.82,10.82,0,0,1,2.06-1.39,0.55,0.55,0,0,1,.37-0.13s0.43,0.09,1,.25c2,0.58,5.53,1.24,6.64,3.3,1.31,2.44.57,6,.18,8.64a11.93,11.93,0,0,1-4.72,8A19.19,19.19,0,0,1,1131,384c-2.3.32-5.73,0.36-7.47-1.52s0.34-6.57,1.52-8.61,2.43-3.22,3.62-5.43C1130.76,364.51,1124.72,361,1122.58,364.94Z" transform="translate(-750.51 -281.84)"/><path class="c" d="M1184.56,357.29A413.49,413.49,0,0,1,1169.8,397l6.4,0.84-5.32-37.21c-0.5-3.51-6-3.15-6.75,0a93.06,93.06,0,0,1-12.9,29.39l6,3.53,1.26-2.61c2-4-4.08-7.59-6-3.53l-1.26,2.61a3.5,3.5,0,0,0,6,3.53,98.86,98.86,0,0,0,13.61-31.06h-6.75l5.32,37.21c0.41,2.87,5.24,3.5,6.4.84a431,431,0,0,0,15.46-41.34c1.36-4.31-5.4-6.15-6.75-1.86h0Z" transform="translate(-750.51 -281.84)"/><path class="c" d="M1217.33,373.25c-2.9-3.54-10.43-4-14.25-2-3.12,1.63-5.6,4.61-7.91,7.2a32.76,32.76,0,0,0-5.9,8.71c-2.54,5.92-2.27,13.56,2.86,18.07,4.83,4.24,11.71,4.52,17.67,3,4.37-1.09,2.52-7.84-1.86-6.75-3.41.85-7.71,1.13-10.69-1.11-3.5-2.63-3-7.77-1.21-11.26a27.41,27.41,0,0,1,4.08-5.74,37.8,37.8,0,0,1,5.21-5.33c1.56-1.15,5.76-1.45,7,.13,2.85,3.49,7.78-1.49,4.95-4.95h0Z" transform="translate(-750.51 -281.84)"/><path class="c" d="M1193.18,393a44.08,44.08,0,0,0,18,.36c4.42-.81,2.55-7.56-1.86-6.75a35.26,35.26,0,0,1-14.29-.36c-4.39-1-6.26,5.74-1.86,6.75h0Z" transform="translate(-750.51 -281.84)"/><path class="c" d="M1235.09,365.69A205.83,205.83,0,0,1,1218.78,406l6,3.53L1226,407c1.88-4.06-4.15-7.62-6-3.53l-1.18,2.56c-1.86,4,3.89,7.57,6,3.53a214.76,214.76,0,0,0,17-42c1.24-4.34-5.51-6.19-6.75-1.86h0Z" transform="translate(-750.51 -281.84)"/><path class="c" d="M1215.5,422.1c5.79,0,5.8-9,0-9s-5.8,9,0,9h0Z" transform="translate(-750.51 -281.84)"/></svg>