<svg xmlns="http://www.w3.org/2000/svg" viewBox="0 0 764.8 626.91"><defs><style>.a{fill:#1c1b1a;}.b{fill:none;stroke:#1c1b1a;stroke-miterlimit:10;stroke-width:7px;}</style></defs><title>nomixing</title><path d="M648.58,318.89A916.33,916.33,0,0,1,764,302.67q16.56-1.26,33.15-1.92a6,6,0,0,0,0-12,942,942,0,0,0-118.59,12.35q-16.62,2.8-33.12,6.21c-3.18.65-5,4.4-4.19,7.38a6.12,6.12,0,0,0,7.38,4.19h0Z" transform="translate(-368.5 -180.92)"/><path d="M704,333.36a352.48,352.48,0,0,1,61.55-4.11c7.72,0.15,7.72-11.85,0-12a370.47,370.47,0,0,0-64.74,4.54c-3.2.5-5,4.51-4.19,7.38,0.94,3.42,4.17,4.7,7.38,4.19h0Z" transform="translate(-368.5 -180.92)"/><path class="a" d="M695.7,411.75V802.66c0,4.5,7,4.51,7,0V772.79c0-4.5-7-4.51-7,0v29.87c0,4.5,7,4.51,7,0V411.75c0-4.5-7-4.51-7,0h0Z" transform="translate(-368.5 -180.92)"/><path class="a" d="M699.2,414H815.67c4.5,0,4.51-7,0-7H699.2c-4.5,0-4.51,7,0,7h0Z" transform="translate(-368.5 -180.92)"/><path class="a" d="M812.17,411.75V802.66c0,4.5,7,4.51,7,0V411.75c0-4.5-7-4.51-7,0h0Z" transform="translate(-368.5 -180.92)"/><path class="a" d="M699.2,462H815.67c4.5,0,4.51-7,0-7H699.2c-4.5,0-4.51,7,0,7h0Z" transform="translate(-368.5 -180.92)"/><path class="a" d="M740.09,411.75v46.36c0,4.5,7,4.51,7,0v-3.5c0-4.5-7-4.51-7,0v3.5c0,4.5,7,4.51,7,0V411.75c0-4.5-7-4.51-7,0h0Z" transform="translate(-368.5 -180.92)"/><path class="a" d="M699.2,507.85H815.67c4.5,0,4.51-7,0-7H699.2c-4.5,0-4.51,7,0,7h0Z" transform="translate(-368.5 -180.92)"/><path class="a" d="M780.11,459.11v44.23c0,4.5,7,4.51,7,0V503.1c0-4.5-7-4.51-7,0v1.49c0,4.5,7,4.51,7,0v-0.24c0-4.5-7-4.51-7,0v0.24c0,4.5,7,4.51,7,0V503.1c0-4.5-7-4.51-7,0v0.24c0,4.5,7,4.51,7,0V459.11c0-4.5-7-4.51-7,0h0Z" transform="translate(-368.5 -180.92)"/><path class="a" d="M699.2,555.88H815.67c4.5,0,4.51-7,0-7H699.2c-4.5,0-4.51,7,0,7h0Z" transform="translate(-368.5 -180.92)"/><path class="a" d="M728.16,504.35v45c0,4.5,7,4.51,7,0v-0.16c0-4.5-7-4.51-7,0v3.33c0,4.5,7,4.51,7,0v-0.16c0-4.5-7-4.51-7,0v0.16c0,4.5,7,4.51,7,0v-3.33c0-4.5-7-4.51-7,0v0.16c0,4.5,7,4.51,7,0v-45c0-4.5-7-4.51-7,0h0Z" transform="translate(-368.5 -180.92)"/><path class="a" d="M699.2,602.24H815.67c4.5,0,4.51-7,0-7H699.2c-4.5,0-4.51,7,0,7h0Z" transform="translate(-368.5 -180.92)"/><path class="a" d="M765.83,552.38v44.36c0,4.5,7,4.51,7,0v-0.33c0-4.5-7-4.51-7,0v0.66c0,4.5,7,4.51,7,0v-0.33c0-4.5-7-4.51-7,0v0.33c0,4.5,7,4.51,7,0v-0.66c0-4.5-7-4.51-7,0v0.33c0,4.5,7,4.51,7,0V552.38c0-4.5-7-4.51-7,0h0Z" transform="translate(-368.5 -180.92)"/><path class="a" d="M699.2,649.53H815.67c4.5,0,4.51-7,0-7H699.2c-4.5,0-4.51,7,0,7h0Z" transform="translate(-368.5 -180.92)"/><path class="a" d="M740.09,598.74v46.9c0,4.5,7,4.51,7,0v-3.5c0-4.5-7-4.51-7,0v3.5c0,4.5,7,4.51,7,0v-46.9c0-4.5-7-4.51-7,0h0Z" transform="translate(-368.5 -180.92)"/><path class="a" d="M699.2,695.89H815.67c4.5,0,4.51-7,0-7H699.2c-4.5,0-4.51,7,0,7h0Z" transform="translate(-368.5 -180.92)"/><path class="a" d="M765.83,647.64V692c0,4.5,7,4.51,7,0v-3.5c0-4.5-7-4.51-7,0V692c0,4.5,7,4.51,7,0V647.64c0-4.5-7-4.51-7,0h0Z" transform="translate(-368.5 -180.92)"/><path class="a" d="M699.2,744.34H815.67c4.5,0,4.51-7,0-7H699.2c-4.5,0-4.51,7,0,7h0Z" transform="translate(-368.5 -180.92)"/><path class="a" d="M728.16,694.08v46.36c0,4.5,7,4.51,7,0v-3.5c0-4.5-7-4.51-7,0v3.5c0,4.5,7,4.51,7,0V694.08c0-4.5-7-4.51-7,0h0Z" transform="translate(-368.5 -180.92)"/><path class="a" d="M699.2,790.7H815.67c4.5,0,4.51-7,0-7H699.2c-4.5,0-4.51,7,0,7h0Z" transform="translate(-368.5 -180.92)"/><path class="a" d="M780.11,740.45v46.36c0,4.5,7,4.51,7,0v-3.5c0-4.5-7-4.51-7,0v3.5c0,4.5,7,4.51,7,0V740.45c0-4.5-7-4.51-7,0h0Z" transform="translate(-368.5 -180.92)"/><path class="a" d="M500,203.76q10,46.85,22.91,93c1.57,5.62,9.44,4.18,9.82-1.33a19.7,19.7,0,0,0-4.83-14c-1.72-2.09-5.29-1.78-7.07,0-2.06,2.06-1.72,5,0,7.07a9.55,9.55,0,0,1,1.9,7l9.82-1.33q-12.93-46.13-22.91-93c-1.34-6.29-11-3.63-9.64,2.66h0Z" transform="translate(-368.5 -180.92)"/><path class="a" d="M482,205.09a138.82,138.82,0,0,1,48-5c11.85,0.84,26,3.89,28.22,17.63,1,6.28-.31,12.82-1.84,18.9a147.63,147.63,0,0,1-6.08,18.78,128.64,128.64,0,0,1-19,32.8,108,108,0,0,1-33,27.76c-5.68,3-.63,11.67,5,8.63,25.57-13.68,44.36-37.27,55.48-63.72a150.27,150.27,0,0,0,6.86-20.13c1.9-7.24,3.48-14.93,2.67-22.44-0.83-7.69-4-14.74-10.16-19.59-5.75-4.52-12.88-6.72-20-7.76-19.5-2.82-39.87-.87-58.76,4.53-6.18,1.76-3.55,11.42,2.66,9.64h0Z" transform="translate(-368.5 -180.92)"/><path class="a" d="M575.58,235.5c-6.53,6.1-11.61,15.42-10.76,24.59,0.94,10.15,8.79,16.83,18.62,18a36.13,36.13,0,0,0,26.35-8c8-6.83,7.57-18,1.48-25.89-7.23-9.36-18.89-11-29.94-11-6.43,0-6.44,10,0,10,6.7,0,13.89.1,19.47,4.41,4,3.12,7.21,9.37,3.49,13.85-6,7.21-26.94,11.46-29.39-1.15-1.26-6.48,3.13-13.47,7.75-17.79s-2.37-11.46-7.07-7.07h0Z" transform="translate(-368.5 -180.92)"/><path class="a" d="M661.94,195.22q-5.87,43.58-9.15,87.44c-0.2,2.7,2.44,5,5,5,2.9,0,4.77-2.3,5-5l1.47-17.29c0.23-2.69-2.46-5-5-5-2.9,0-4.77,2.3-5,5l-1.47,17.29h10q3.14-42.51,8.8-84.79c0.36-2.67-.64-5.37-3.49-6.15-2.33-.64-5.79.8-6.15,3.49h0Z" transform="translate(-368.5 -180.92)"/><path class="a" d="M663.17,200c2.93,6.82,3.7,14.34,5.89,21.39,1.92,6.19,4.91,12.18,7.79,18,5.09,10.24,11.32,20.54,20.25,27.89,4.63,3.81,10.43,7.74,16.42,8.86,7.34,1.37,12.33-3.8,13.87-10.55,1.63-7.16,2-14.89,2.34-22.2a176.73,176.73,0,0,0-.54-22.77,185.66,185.66,0,0,0-3.86-24.77c-1.59-7-4.65-14-12.65-14.87-2.69-.29-5,2.51-5,5,0,2.95,2.3,4.71,5,5-0.35,0,.4.44,0.63,0.72a8.55,8.55,0,0,1,1,1.77c1.18,2.71,1.62,5.87,2.21,8.75a164.27,164.27,0,0,1,2.7,18.39,172,172,0,0,1-.87,38.93c-0.27,1.93-.45,4.27-1.41,6s-2.46.6-4.2-.14a38.29,38.29,0,0,1-11.43-7.77c-7.08-6.82-12-15.52-16.29-24.28-2.67-5.46-5.34-11-6.94-16.85-2-7.27-3.25-14.55-6.24-21.52-1.07-2.48-4.72-3-6.84-1.79-2.57,1.5-2.86,4.35-1.79,6.84h0Z" transform="translate(-368.5 -180.92)"/><path class="a" d="M750.29,223.67c-8.78.15-15,5.47-17.57,13.7a52.29,52.29,0,0,0-1.6,21.75c0.66,4.58,2.53,9.21,6.1,12.29a15.15,15.15,0,0,0,15.15,2.6,22.76,22.76,0,0,0,15.08-22.25c-0.2-9.84-4.36-20.19-12.29-26.24-2.15-1.64-5.6-.34-6.84,1.79-1.5,2.57-.36,5.2,1.79,6.84a9.54,9.54,0,0,0,1,1c0.35,0.36.89,1,1.09,1.21a25.75,25.75,0,0,1,2.33,3.84,28.61,28.61,0,0,1,2.73,8.84c0.78,5.63-.1,10.25-5.06,13.86-2.28,1.66-5.6,3.16-8.17,1.24-2-1.49-2.86-4.53-3.18-7a44.33,44.33,0,0,1,.06-7.74c0.06-1.15.13-2.29,0.25-3.44a18.89,18.89,0,0,1,.49-3.22,25,25,0,0,1,1.19-4.12c0.31-.77-0.28.58,0.08-0.16,0.18-.36.36-0.72,0.56-1.08s1-1.54.57-1a5.35,5.35,0,0,1,2.73-2.18c-0.59.28,1-.29,1.27-0.37a9.63,9.63,0,0,1,2.23-.21c6.43-.11,6.45-10.11,0-10h0Z" transform="translate(-368.5 -180.92)"/><path class="a" d="M772.25,210.82a156.4,156.4,0,0,0,6.08,57.83l9.14-3.85-1.83-3.9c-1.15-2.44-4.66-3.07-6.84-1.79-2.5,1.46-2.95,4.39-1.79,6.84l1.83,3.9c2.42,5.16,10.75,1.51,9.14-3.85a148.45,148.45,0,0,1-5.73-55.18c0.23-2.69-2.46-5-5-5a5.1,5.1,0,0,0-5,5h0Z" transform="translate(-368.5 -180.92)"/><path class="a" d="M772.16,241.44a117.21,117.21,0,0,0,27-8.93c2.45-1.14,3.07-4.66,1.79-6.84-1.47-2.51-4.38-2.94-6.84-1.79a106.83,106.83,0,0,1-24.63,7.92c-2.65.52-4.17,3.69-3.49,6.15a5.1,5.1,0,0,0,6.15,3.49h0Z" transform="translate(-368.5 -180.92)"/><path class="a" d="M829.51,280.37c8-13,16.36-25.78,24-39,7.11-12.26,13.36-25.35,15.6-39.45l-9.82-1.33c0.6,9.66.81,19.44,1.86,29.06,0.77,7.05,3.48,15.79,11.56,17.21a5.19,5.19,0,0,0,5.65-2.3,142.59,142.59,0,0,1,30.46-36.89l-8.54-3.54a491.48,491.48,0,0,1-2.56,84.17c-0.31,2.69,2.52,5,5,5,3,0,4.69-2.31,5-5a491.48,491.48,0,0,0,2.56-84.17,5.07,5.07,0,0,0-8.54-3.54,150.87,150.87,0,0,0-32,38.91l5.65-2.3c-1.77-.31-2.42-1.1-3.18-3.17a27.88,27.88,0,0,1-1.32-8.22l-1.57-25.24A5,5,0,0,0,865,195.7c-2.23-.27-5.09,1.09-5.49,3.58-2.17,13.64-8.13,26-15,37.83-7.55,12.91-15.68,25.5-23.57,38.21-3.41,5.48,5.24,10.51,8.63,5h0Z" transform="translate(-368.5 -180.92)"/><path class="a" d="M920,248.93a81.81,81.81,0,0,0-4.17,32.57c0.48,6.34,10.06,6.52,10,0l-0.05-5.58c-0.06-6.43-10.06-6.45-10,0l0.05,5.58h10a74.31,74.31,0,0,1,3.82-29.91c0.87-2.55-1-5.47-3.49-6.15a5.1,5.1,0,0,0-6.15,3.49h0Z" transform="translate(-368.5 -180.92)"/><path class="a" d="M925.27,240.42c6.43,0,6.45-10,0-10s-6.45,10,0,10h0Z" transform="translate(-368.5 -180.92)"/><path class="a" d="M936.57,251.87a106.49,106.49,0,0,0,25.24,41.5c4.52,4.59,11.59-2.48,7.07-7.07a95.35,95.35,0,0,1-22.67-37.08c-2-6.09-11.66-3.48-9.64,2.66h0Z" transform="translate(-368.5 -180.92)"/><path class="a" d="M957.39,247.11a147.65,147.65,0,0,0-20.88,42.17c-1.92,6.16,7.74,8.79,9.64,2.66A139.19,139.19,0,0,1,966,252.16c1.57-2.2.38-5.57-1.79-6.84-2.52-1.47-5.26-.41-6.84,1.79h0Z" transform="translate(-368.5 -180.92)"/><path class="a" d="M995.87,219.2a265.67,265.67,0,0,0-6.77,49.22c-0.28,6.43,9.72,6.42,10,0a250.87,250.87,0,0,1,6.42-46.56c1.47-6.26-8.17-8.93-9.64-2.66h0Z" transform="translate(-368.5 -180.92)"/><path class="a" d="M994.8,290.39l-1.5-1.5a5.16,5.16,0,0,0-3.54-1.46,5.09,5.09,0,0,0-3.54,1.46,5,5,0,0,0-1.46,3.54,5.21,5.21,0,0,0,1.46,3.54l1.5,1.5a5.16,5.16,0,0,0,3.54,1.46,5.09,5.09,0,0,0,3.54-1.46,5,5,0,0,0,1.46-3.54,5.21,5.21,0,0,0-1.46-3.54h0Z" transform="translate(-368.5 -180.92)"/><path class="a" d="M491.56,666.75c-4-7.92-6.95-15.39-6.09-24.26S491.13,625,499,620.38c8.43-4.94,19.84-5.41,29-2.28,8.6,2.95,14.32,11.39,16.89,19.8,2.94,9.65-.4,20.63-7.23,27.94-4,4.23,2.4,10.61,6.36,6.36,7.77-8.31,12.59-20.9,10.62-32.27-1.91-11-9-23.11-19.14-28.36-10.81-5.58-24.59-5.72-35.84-1.37a36.66,36.66,0,0,0-22.3,26.06,45.07,45.07,0,0,0-.52,16.75c1.07,6.44,4,12.51,6.95,18.29,2.61,5.17,10.37.62,7.77-4.54h0Z" transform="translate(-368.5 -180.92)"/><path class="a" d="M484.49,665.84C474.66,677.61,468.89,692,466.06,707a150.81,150.81,0,0,0-2.46,22.83c-0.25,7.56-.87,16.66,5.4,22.16a12.92,12.92,0,0,0,11.72,3.13,11.52,11.52,0,0,0,8.46-8.72,4.63,4.63,0,0,0-3.14-5.54c-2.18-.6-5.11.74-5.54,3.14s-2.9,3.09-4.92,1.76c-2.71-1.78-3-5.36-3.06-8.3a136.29,136.29,0,0,1,1.42-23.28c2.24-15,7.06-30.17,16.92-42a4.62,4.62,0,0,0,0-6.36c-1.6-1.6-4.8-1.87-6.36,0h0Z" transform="translate(-368.5 -180.92)"/><path class="a" d="M537.66,672.2c9.77,11.52,14.44,26.48,16.48,41.23a159.78,159.78,0,0,1,1.36,22.76c0,3.24,0,7.29-2.92,9.42-2.17,1.6-3.83.94-4.26-1.63-0.4-2.4-3.37-3.74-5.54-3.14-2.55.7-3.54,3.13-3.14,5.54,1.36,8.2,10.49,11.35,17.24,7.14,7.49-4.66,7.72-13.38,7.59-21.27-0.24-15-2-30.35-7.5-44.39a76.79,76.79,0,0,0-12.95-22c-1.57-1.85-4.74-1.62-6.36,0a4.59,4.59,0,0,0,0,6.36h0Z" transform="translate(-368.5 -180.92)"/><path class="a" d="M481.87,722.44q-1.51,31.19-1.88,62.42a46.75,46.75,0,0,0,.62,10,11.48,11.48,0,0,0,7,8.06,32.16,32.16,0,0,0,12.14,2.45c3.62,0.1,7.78-.19,10.85-2.31,7.32-5.07,6.82-16.49,6.83-24.33,0-5.79-9-5.8-9,0a75.58,75.58,0,0,1-.45,10.47c-0.29,2-.84,4.85-2.07,6.12a3.59,3.59,0,0,1-2.12.86,21.61,21.61,0,0,1-4.81.16c-2.67-.13-6.08-0.48-8.38-2a3.73,3.73,0,0,1-1-.85c-0.19-.24,0,0.17.05,0.21a4.83,4.83,0,0,1-.27-1,19.85,19.85,0,0,1-.33-3.44c-0.14-3.45,0-6.92.05-10.38q0.2-13.13.6-26.26,0.46-15.11,1.2-30.21c0.28-5.79-8.72-5.77-9,0h0Z" transform="translate(-368.5 -180.92)"/><path class="a" d="M508.4,778.71a70.67,70.67,0,0,0,.56,9.68c0.43,3.52.83,7.67,3.42,10.35a21.15,21.15,0,0,0,13.24,6.11c3.79,0.29,8,.4,11.57-1,8.27-3.37,9.74-14.25,10.41-22a277.77,277.77,0,0,0,.57-28.64c-0.17-10.24-.6-20.47-0.76-30.7-0.09-5.79-9.09-5.8-9,0,0.25,16.64,1.21,33.28.71,49.92-0.21,6.89,0,15.13-3.49,21.31-0.14.25-.29,0.5-0.45,0.74-0.44.67,0.68-.74-0.21,0.28a1.63,1.63,0,0,1-.87.69,11.79,11.79,0,0,1-4.83.55c-2.88-.05-4.23.22-6.81-1a30,30,0,0,1-3-1.92l-0.36-.3q-0.73-.7,0,0.2a0.87,0.87,0,1,0-.16-0.18,19.64,19.64,0,0,1-1-4.31,64,64,0,0,1-.56-9.68c0.1-5.79-8.9-5.79-9,0h0Z" transform="translate(-368.5 -180.92)"/><line class="b" x1="4.8" y1="623.41" x2="764.8" y2="623.41"/><path class="a" d="M474.4,587.61l17.85,16.05c1.57,1.41,4.44,1.41,5.5-.71l11.51-23.06c2-4-4-7.57-6-3.53l-11.51,23.06,5.5-.71-17.85-16.05c-3.34-3-8.31,1.93-4.95,4.95h0Z" transform="translate(-368.5 -180.92)"/><path class="a" d="M496.67,598c0-9.17-3.55-17.62-6.8-26-3.34-8.65-6.66-17.32-10-26-6.29-16.08-13.1-32.13-23.32-46.17-2.63-3.61-8.7-.12-6,3.53,9.87,13.55,16.54,29,22.62,44.49,3.26,8.33,6.46,16.69,9.68,25,3.11,8.05,6.91,16.3,6.9,25.08,0,4.5,7,4.51,7,0h0Z" transform="translate(-368.5 -180.92)"/><path class="a" d="M400.79,444.09c-1.53-6.95-10-4.33-14-1.7a41,41,0,0,0-12.9,13.53c-6.18,10.52-9.64,28.46,4.75,33.78,7.84,2.9,15.9-.44,23.06-3.63,4.11-1.83.55-7.86-3.53-6-5.38,2.4-11.91,5.36-17.8,2.88s-5.39-9.15-4.13-14.36a33.67,33.67,0,0,1,7.51-14.38,32.68,32.68,0,0,1,6-5.32,17.29,17.29,0,0,1,3.38-2,13.35,13.35,0,0,0,1.38-.29c0.45-.57.19,2-0.39-0.59,1,4.4,7.72,2.54,6.75-1.86h0Z" transform="translate(-368.5 -180.92)"/><path class="a" d="M413.71,484a226.66,226.66,0,0,1,12.72-35.75l-6.4-.84a146,146,0,0,1,6.63,21.69c0.67,3,4.93,3.35,6.4.84a135.79,135.79,0,0,1,13.82-19.55l-6-2.47a86,86,0,0,0,9.2,34.93c1.56,3.09,6.66,1.64,6.52-1.77L456.5,478c-0.19-4.49-7.19-4.51-7,0l0.13,3.09,6.52-1.77a77.5,77.5,0,0,1-8.24-31.4c-0.13-2.79-3.89-4.93-6-2.47a146,146,0,0,0-14.91,21l6.4,0.84a146,146,0,0,0-6.63-21.69c-1-2.46-5-3.87-6.4-.84A237.38,237.38,0,0,0,407,482.15c-1.16,4.36,5.59,6.22,6.75,1.86h0Z" transform="translate(-368.5 -180.92)"/><path class="a" d="M464.69,488.57a252,252,0,0,1,30.06-40.85c3-3.33-1.92-8.3-4.95-4.95A261.19,261.19,0,0,0,458.65,485c-2.3,3.89,3.75,7.41,6,3.53h0Z" transform="translate(-368.5 -180.92)"/><path class="a" d="M461.27,451.75a78.68,78.68,0,0,1,11,12.81c2.53,3.7,8.6.2,6-3.53a87.14,87.14,0,0,0-12.1-14.23c-3.27-3.09-8.23,1.85-4.95,4.95h0Z" transform="translate(-368.5 -180.92)"/><path class="a" d="M491.5,456v29.77c0,4.5,7,4.51,7,0V483c0-4.5-7-4.51-7,0v2.77c0,4.5,7,4.51,7,0V456c0-4.5-7-4.51-7,0h0Z" transform="translate(-368.5 -180.92)"/><path class="a" d="M496.49,472.6a179.66,179.66,0,0,1,17.12-9.9c4-2,.48-8.08-3.53-6a179.66,179.66,0,0,0-17.12,9.9c-3.76,2.46-.25,8.52,3.53,6h0Z" transform="translate(-368.5 -180.92)"/><path class="a" d="M496,472.58a38.68,38.68,0,0,1,19.5,13.54,3.62,3.62,0,0,0,4.79,1.26c1.5-.85,2.39-3.28,1.26-4.79a46.64,46.64,0,0,0-23.68-16.76c-4.32-1.33-6.16,5.43-1.86,6.75h0Z" transform="translate(-368.5 -180.92)"/><path class="a" d="M995,671.29c2.58-5.38,5.18-11,6.38-16.83a43,43,0,0,0,.42-13.86c-1.4-11.57-7.56-22.68-18-28.5A41.91,41.91,0,0,0,948.8,610c-11,4.52-18.19,15.6-21,26.85-3.11,12.26,1.21,26,9.53,35.32,3.86,4.33,10.21-2.05,6.36-6.36-5.31-6-9-15.5-7.86-23.53,1.19-8.57,6.28-18.62,14.08-22.9,8.13-4.46,19.11-4.17,27.48-.54s13.91,12.1,15.35,20.85a35.18,35.18,0,0,1,.15,11.77c-1,5.37-3.24,10.39-5.59,15.28a4.62,4.62,0,0,0,1.61,6.16c2,1.15,5.1.59,6.16-1.61h0Z" transform="translate(-368.5 -180.92)"/><path class="a" d="M988,672.2c9.34,11.73,13.84,26.68,16,41.31a151.93,151.93,0,0,1,1.45,22.27c0,3.17.16,7.21-2.37,9.57-1.91,1.78-4.36,1.36-4.83-1.36-0.42-2.4-3.35-3.74-5.54-3.14-2.53.7-3.56,3.13-3.14,5.54,1.39,8,11,11.4,17.54,7.18,7.35-4.75,7.46-13.55,7.31-21.39-0.28-14.92-2.25-30.17-7.57-44.18a81.76,81.76,0,0,0-12.47-22.16c-1.52-1.9-4.78-1.58-6.36,0-1.88,1.88-1.52,4.46,0,6.36h0Z" transform="translate(-368.5 -180.92)"/><path class="a" d="M937.29,665.84c-9.49,11.74-14.78,26-17.29,40.76a165.43,165.43,0,0,0-2.2,22.83c-0.22,7.5-.93,16.27,4.77,22.08,3,3,7.51,4.78,11.7,3.66a10.76,10.76,0,0,0,7.56-8.78c0.38-2.4-.61-4.84-3.14-5.54-2.14-.59-5.15.73-5.54,3.14s-1.57,3.34-3.71,1.63c-2.65-2.12-2.69-5.91-2.72-9a166.1,166.1,0,0,1,1.3-23.24c1.9-14.57,6.27-29.58,15.64-41.18,1.53-1.89,1.85-4.52,0-6.36-1.58-1.58-4.83-1.9-6.36,0h0Z" transform="translate(-368.5 -180.92)"/><path class="a" d="M987.9,722.44q1.19,25.74,1.64,51.51c0.07,4.1.15,8.2,0.17,12.3a28.8,28.8,0,0,1-.47,7,0.93,0.93,0,1,0,0,.17,1.88,1.88,0,0,1-.39.51,5.18,5.18,0,0,1-1.41.92,18.13,18.13,0,0,1-4.41,1.21c-2.48.43-6.11,0.73-8.3-.16a3.08,3.08,0,0,1-1.33-1.52,15.49,15.49,0,0,1-1.17-4.07,67,67,0,0,1-.6-11.59c0-5.79-9-5.8-9,0,0,7.34-.42,16.79,4.75,22.7,4.89,5.59,15.17,4.53,21.51,2.47,3.9-1.27,7.62-3.68,8.92-7.77,1-3,.93-6.48.93-9.63,0-9.79-.28-19.59-0.54-29.38q-0.46-17.34-1.27-34.67c-0.27-5.77-9.27-5.8-9,0h0Z" transform="translate(-368.5 -180.92)"/><path class="a" d="M962.61,778.71a73.84,73.84,0,0,1-.41,8.52,27.49,27.49,0,0,1-.57,3.74,14.28,14.28,0,0,1-.48,1.74c0.3-.84.12-0.15-0.05,0.05a1.67,1.67,0,1,0,.29-0.38l-0.71.63a14.49,14.49,0,0,1-4.35,2.53,9.62,9.62,0,0,1-3.43.37,29.64,29.64,0,0,1-4,0c-1.64-.22-2-0.32-2.83-1.45,0.37,0.47-.46-0.9-0.59-1.15a14.45,14.45,0,0,1-.69-1.58,30.35,30.35,0,0,1-1.56-6.27c-0.49-3.43-.63-6.93-0.77-10.38-0.35-8.58-.25-17.17-0.08-25.75,0.18-9,.52-17.94.65-26.91,0.08-5.79-8.92-5.8-9,0-0.27,18.63-1.51,37.32-.42,55.94,0.45,7.65.88,17.9,7,23.41,3.46,3.11,7.92,3.14,12.3,3.12a19.54,19.54,0,0,0,11.22-3.28c2-1.35,4.08-2.88,5.12-5.1a20.36,20.36,0,0,0,1.53-5.81,76,76,0,0,0,.84-12c-0.09-5.79-9.09-5.8-9,0h0Z" transform="translate(-368.5 -180.92)"/><path class="a" d="M999,582.66l-17,16.05,5.5,0.71-11-23.06c-1.93-4.07-8-.52-6,3.53l11,23.06c1,2.11,4,2.14,5.5.71l17-16.05c3.28-3.1-1.67-8-4.95-4.95h0Z" transform="translate(-368.5 -180.92)"/><path class="a" d="M989.42,598c0-8.76,3.6-17,6.58-25.08,3-8.24,6-16.49,9.11-24.72,5.81-15.58,12.13-31.08,21.66-44.81,2.57-3.71-3.49-7.21-6-3.53-9.86,14.21-16.36,30.36-22.37,46.49-3.18,8.53-6.3,17.09-9.45,25.63s-6.49,16.9-6.49,26c0,4.5,7,4.51,7,0h0Z" transform="translate(-368.5 -180.92)"/><path class="a" d="M999.66,443.07a245.23,245.23,0,0,1-14.43,46.59c-0.9,2.12.06,5.6,3,5.27,3.63-.41,5.69-3,5.06-6.68-0.76-4.43-7.51-2.55-6.75,1.86l1.69-2.18,3,5.27a253.81,253.81,0,0,0,15.14-48.27c0.9-4.4-5.84-6.28-6.75-1.86h0Z" transform="translate(-368.5 -180.92)"/><path class="a" d="M1005.28,448.81c2.69-2,6.45-2.64,9.23-.37a7.24,7.24,0,0,1,1.7,8.87c-1.82,3.65-5.32,6.83-8.3,9.53a63,63,0,0,1-10.19,7.47,3.54,3.54,0,0,0,.84,6.4,129.27,129.27,0,0,1,23.49,10.63c3.91,2.26,7.44-3.79,3.53-6A138.65,138.65,0,0,0,1000.42,474l0.84,6.4a71,71,0,0,0,14.05-10.91c4-4,8.38-8.79,8.74-14.77,0.7-11.6-13.05-18.95-22.3-11.92a3.62,3.62,0,0,0-1.26,4.79c0.85,1.49,3.29,2.4,4.79,1.26h0Z" transform="translate(-368.5 -180.92)"/><path class="a" d="M1059.6,447l-0.95-3.68a3.54,3.54,0,0,0-5.85-1.54c-10.09,8.94-18.43,21.09-22,34.19-1.81,6.66,1.2,12.84,8.08,14.54,7.08,1.75,13.15-2.64,18.39-6.81l-6-2.47a20.85,20.85,0,0,0,2,10.88c1.87,4.09,7.91.54,6-3.53a14,14,0,0,1-1.05-7.35c0.33-3.37-3.89-4.14-6-2.47-3.31,2.64-8,6.51-12.5,4.75-5-1.94-1.51-8.42-.06-11.88a69,69,0,0,1,18-24.89l-5.85-1.54,0.95,3.68c1.12,4.36,7.88,2.51,6.75-1.86h0Z" transform="translate(-368.5 -180.92)"/><path class="a" d="M1051.48,476.53l-1.71-1.86-3.41,5.85a53.22,53.22,0,0,0,21.6,0c4.41-.91,2.54-7.66-1.86-6.75a44.37,44.37,0,0,1-17.88,0,3.53,3.53,0,0,0-3.41,5.85l1.71,1.86c3.06,3.32,8-1.64,4.95-4.95h0Z" transform="translate(-368.5 -180.92)"/><path class="a" d="M1080.13,454a237.72,237.72,0,0,1-5.61,35.08c-1,4.38,5.71,6.25,6.75,1.86a250.46,250.46,0,0,0,5.86-36.94c0.37-4.49-6.63-4.46-7,0h0Z" transform="translate(-368.5 -180.92)"/><path class="a" d="M1084.13,453c1.57-1.33,4.34-2.27,6.17-.88a2.82,2.82,0,0,1,.62,4.08c-1.3,1.43-3.48,2.1-5,3.2a9,9,0,0,0-3.92,5.4c-0.44,2,1,4.64,3.37,4.43,6.56-.59,13.47,5.46,12.09,12.39-1.22,6.16-8.38,9.9-14.17,8-4.3-1.38-6.14,5.38-1.86,6.75,9.6,3.08,21.08-3.52,22.9-13.56,2-10.87-8-21.59-19-20.61l3.37,4.43c0.48-2.23,4.63-3.43,6.3-4.78a9.24,9.24,0,0,0,3.23-9.67c-2.36-8.95-12.94-9.38-19.07-4.16-3.43,2.93,1.54,7.86,4.95,4.95h0Z" transform="translate(-368.5 -180.92)"/></svg>