<svg xmlns="http://www.w3.org/2000/svg" viewBox="0 0 231.92 201.49"><defs><style>.a{fill:#f9f9f9;}.a,.b{stroke:#e8e8e8;stroke-miterlimit:10;stroke-width:2px;}.b{fill:none;}</style></defs><title>shirt</title><path class="a" d="M674,459s25-58.7,36-65.7S753,383,753,383s9,15.12,34,15.12S822,383,822,383s34.59,4.8,42.83,10.88c16,11.81,38.17,60.61,38.17,60.61l-38,6-10-14V582.44H728V447.73L719.65,463Z" transform="translate(-672.51 -381.96)"/><line class="a" x1="4.47" y1="70.21" x2="50.75" y2="74.44"/><line class="a" x1="188.83" y1="73.5" x2="227.5" y2="66.31"/><line class="a" x1="55.46" y1="193.88" x2="182.46" y2="193.88"/><path class="b" d="M747.66,383.68s8.64,19.83,38,19.83,44.1-19.26,44.1-19.26" transform="translate(-672.51 -381.96)"/></svg>