<svg xmlns="http://www.w3.org/2000/svg" viewBox="0 0 310.09 547.3"><defs><style>.a{fill:#d163ce;}</style></defs><title>splat-1</title><path class="a" d="M425.6,551.36c-22.18-5.07-41.5,16.93-53.82,36.07-5.26,8.17-10.19,17.26-18.35,17.52V210.43c24.19-2.68,65-24.51,70.71-49.69,2.28-10.07,2.46-20.52,4.78-30.58,4.54-19.73,18.09-37.68,36.79-45.44s42.18-4,56.12,10.65,15.92,39.91,2.91,55.41c-9.7,11.56-25,16.3-38.14,23.79a96.39,96.39,0,0,0-43.82,54.84c-4.6,15-4.2,34,8.41,43.38,5.2,3.87,11.69,5.47,17.66,8,13.72,5.87,25.83,21.08,20.23,34.92-5,12.4-22.22,18.6-22.89,32-0.31,6.07,3.15,11.67,7,16.38,4.94,6,11,11.51,18.3,14.14,21,7.53,42.2-9.88,56.52-27s30.84-37.07,53.12-36.46c20.64,0.57,36.51,19.78,42,39.68,2.38,8.58,3.33,18-.21,26.2-7.1,16.42-28.81,20.8-46.42,17.67s-34.37-11.41-52.26-11.54c-14.07-.1-27.73,4.9-40.19,11.43-7.83,4.1-15.84,9.46-18.77,17.79-2.69,7.65-.46,16.19,3.05,23.5C497.2,458,513.5,471.6,530,483.65c13.42,9.79,27.64,19.09,43.7,23.33,20.13,5.32,42.13,2.43,61.41,10.28,15.9,6.48,29.21,21.94,28.36,39.09-0.51,10.3-5.85,19.72-11.85,28.11-6.63,9.27-14.46,18-24.53,23.38s-22.72,6.8-32.83,1.53c-10.82-5.63-16.66-17.4-22.54-28.08a277.44,277.44,0,0,0-38.5-53.62c-13.45-14.66-30.47-37.87-49.32-31.5-26,8.78-17,71.78-10,79.78s17,8,26,18,6,22-1,29-21,7-27-1-4-23-8-35S449.3,556.78,425.6,551.36Z" transform="translate(-353.43 -80.77)"/></svg>