<svg xmlns="http://www.w3.org/2000/svg" viewBox="0 0 547.3 310.09"><defs><style>.a{fill:#50d2ff;}</style></defs><title>splat-4</title><path class="a" d="M705.41,437.3c-5.07,22.18,16.93,41.5,36.07,53.82,8.17,5.26,17.26,10.19,17.52,18.35H364.49c-2.68-24.19-24.51-65-49.69-70.71-10.07-2.28-20.52-2.46-30.58-4.78-19.73-4.54-37.68-18.09-45.44-36.79s-4-42.18,10.65-56.12,39.91-15.92,55.41-2.91c11.56,9.7,16.3,25,23.79,38.14a96.39,96.39,0,0,0,54.84,43.82c15,4.6,34,4.2,43.38-8.41,3.87-5.2,5.47-11.69,8-17.66,5.87-13.72,21.08-25.83,34.92-20.23,12.4,5,18.6,22.22,32,22.89,6.07,0.31,11.67-3.15,16.38-7,6-4.94,11.51-11,14.14-18.3,7.53-21-9.88-42.2-27-56.52s-37.07-30.84-36.46-53.12c0.57-20.64,19.78-36.51,39.68-42,8.58-2.38,18-3.33,26.2.21,16.42,7.1,20.8,28.81,17.67,46.42S541,300.77,540.87,318.65c-0.1,14.07,4.9,27.73,11.43,40.19,4.1,7.83,9.46,15.84,17.79,18.77,7.65,2.69,16.19.46,23.5-3.05,18.42-8.85,32.07-25.15,44.11-41.66,9.79-13.42,19.09-27.64,23.33-43.7,5.32-20.13,2.43-42.13,10.28-61.41,6.48-15.9,21.94-29.21,39.09-28.36,10.3,0.51,19.72,5.85,28.11,11.85,9.27,6.63,18,14.46,23.38,24.53s6.8,22.72,1.53,32.83c-5.63,10.82-17.4,16.66-28.08,22.54a277.44,277.44,0,0,0-53.62,38.5c-14.66,13.45-37.87,30.47-31.5,49.32C659,405,722,396,730,389s8-17,18-26,22-6,29,1,7,21-1,27-23,4-35,8S710.83,413.61,705.41,437.3Z" transform="translate(-234.83 -199.38)"/></svg>