<svg xmlns="http://www.w3.org/2000/svg" viewBox="0 0 544.07 260.6"><defs><style>.a{fill:#ffe252;stroke:#dbd065;stroke-miterlimit:10;stroke-width:7px;}.b{fill:#756a16;}</style></defs><title>sun</title><path class="a" d="M656.35,646.58S688.79,519.09,802.7,519.09c115.57,0,154.35,127.49,154.35,127.49H656.35Z" transform="translate(-534.57 -389.48)"/><polygon class="a" points="246.37 111.75 284.09 111.75 310 3.5 219.72 3.5 246.37 111.75"/><polygon class="a" points="413.62 189.06 435.73 219.63 538.63 177.19 485.72 104.03 413.62 189.06"/><polygon class="a" points="112.94 219.63 131.09 186.56 48.66 111.75 5.22 190.9 112.94 219.63"/><path class="b" d="M799.51,599.1l-0.23-2.92c-0.67-6.08,1.35-12.71,7-19.46,5.06-6,7.88-10.35,7.88-15.41,0-5.74-3.6-9.56-10.69-9.68a20,20,0,0,0-11.36,3.49l-2.7-7.09c3.71-2.7,10.13-4.5,16.09-4.5,12.94,0,18.79,8,18.79,16.54,0,7.65-4.28,13.16-9.68,19.58-5,5.85-6.75,10.8-6.41,16.54l0.11,2.92h-8.78ZM797,614.85c0-4.16,2.81-7.09,6.75-7.09s6.64,2.92,6.64,7.09c0,3.94-2.59,7-6.75,7C799.74,621.82,797,618.79,797,614.85Z" transform="translate(-534.57 -389.48)"/></svg>