<svg xmlns="http://www.w3.org/2000/svg" xmlns:xlink="http://www.w3.org/1999/xlink" viewBox="0 0 564.91 257.79"><defs><style>.a{fill:url(#a);}.b{fill:url(#b);}.c{fill:url(#c);}.d{fill:url(#d);}.e{fill:url(#e);}.f{fill:url(#f);}.g{fill:#fffecc;stroke:#fff;stroke-miterlimit:10;stroke-width:4.56px;}.h{fill:#95dba2;}.i{fill:#c1eac6;}.j{fill:#2c471e;}.k{fill:#826143;}.l{fill:#604431;}.m{fill:#aa8d79;}.n{fill:#61b56d;}.o{fill:#afd895;}.p{fill:#adeab5;}.q{fill:#55935d;}.r{fill:#27381c;}.s{fill:#1c1b1a;}</style><linearGradient id="a" x1="251.5" y1="-41.15" x2="311.99" y2="301.94" gradientUnits="userSpaceOnUse"><stop offset="0" stop-color="#e9f8ff"/><stop offset="0.11" stop-color="#ccf0ff"/><stop offset="0.29" stop-color="#a2e3ff"/><stop offset="0.43" stop-color="#89dcff"/><stop offset="0.51" stop-color="#7fd9ff"/><stop offset="0.62" stop-color="#85daff"/><stop offset="0.77" stop-color="#95deff"/><stop offset="0.93" stop-color="#b0e5ff"/><stop offset="1" stop-color="#bfe8ff"/></linearGradient><linearGradient id="b" x1="401.07" y1="652.46" x2="401.07" y2="698.37" gradientTransform="translate(-164.13 46.2) rotate(-2.55)" gradientUnits="userSpaceOnUse"><stop offset="0" stop-color="#fbffd4"/><stop offset="0.23" stop-color="#fcffe3" stop-opacity="0.66"/><stop offset="0.44" stop-color="#fdffef" stop-opacity="0.38"/><stop offset="0.61" stop-color="#fefff8" stop-opacity="0.17"/><stop offset="0.74" stop-color="#fffffd" stop-opacity="0.05"/><stop offset="0.81" stop-color="#fff" stop-opacity="0"/></linearGradient><linearGradient id="c" x1="489.23" y1="568.68" x2="609.54" y2="448.37" xlink:href="#b"/><linearGradient id="d" x1="497.69" y1="602.61" x2="639.72" y2="744.64" xlink:href="#b"/><linearGradient id="e" x1="373.84" y1="594.79" x2="345.19" y2="594.79" gradientTransform="translate(-164.13 46.2) rotate(-2.55)" gradientUnits="userSpaceOnUse"><stop offset="0" stop-color="#fbff94"/><stop offset="1" stop-color="#fff" stop-opacity="0"/></linearGradient><linearGradient id="f" x1="390.47" y1="543.14" x2="360.53" y2="431.39" xlink:href="#b"/></defs><title>sunrise</title><rect class="a" x="1.08" y="3.01" width="561.34" height="254.78"/><path class="b" d="M297.68,724.57a341,341,0,0,1-3.44-39,51.13,51.13,0,0,1-29.56-5.42l-27.29,42Z" transform="translate(-86.44 -469.48)"/><path class="c" d="M326.54,565.69c8.41,5.26,19.12,17.19,22.91,26.36,32.89-21.76,66.28-42.76,143.22-99.59L409,472C375.33,511.41,326.54,565.69,326.54,565.69Z" transform="translate(-86.44 -469.48)"/><path class="d" d="M336.15,669.05c11.72-8.27,17.66-25.1,20.28-39.21,13.7,7.42,185.32,94.62,185.57,94.72H393.33Z" transform="translate(-86.44 -469.48)"/><path class="e" d="M205.71,591c6.37,2.49,29.22,12.13,29.22,12.13s-3.51,5.36-3,19.86c0.42,12,4.1,18.55,4.1,18.55S208.35,659.67,208.85,659Z" transform="translate(-86.44 -469.48)"/><path class="f" d="M257.66,472c1,7.81,22.53,76.8,22.87,84.68a63.45,63.45,0,0,0-29.75,14.23,1.91,1.91,0,0,1-1.57.66,1.86,1.86,0,0,1-.92-0.75c-7.62-9.6-60.81-88.9-68.43-98.5Z" transform="translate(-86.44 -469.48)"/><circle class="g" cx="293.08" cy="619.39" r="52" transform="translate(-113.75 -455.8) rotate(-2.55)"/><path class="h" d="M648.85,724.57l-560.19-1.2V632.48s71-.66,105.74,7.38,99.07,32.69,148.35,27.39,127.69-32.24,155.4-30,52.6,6.74,52.6,6.74,38.89-21,60.34-24.82l37.75-4.89V724.57" transform="translate(-86.44 -469.48)"/><path class="i" d="M88.66,661.74s56.89-12.36,92.73-7.14,140,26.35,170.67,20.48,63.44-21.77,63.44-21.77S342,677.83,305.23,666.7s-91.46-25.89-132.83-29.18S88.66,634,88.66,634v27.75Z" transform="translate(-86.44 -469.48)"/><path class="i" d="M650,615.47c-18.55,3.24-83.29,20.63-101.41,28.65s-68.24,17.61-68.24,17.61,16.65-4.92,53,0S616.56,649.26,650,634" transform="translate(-86.44 -469.48)"/><path class="j" d="M88.66,636.93a470.23,470.23,0,0,1,86.6,3.5,410.75,410.75,0,0,1,42.47,7.82c15,3.62,29.77,8.17,44.68,12.15s29.7,7.24,44.92,8.84a224.66,224.66,0,0,0,47.15,0c30.52-3.25,59.22-14,89-20.86a254.88,254.88,0,0,1,104.48-2c2.9,0.55,4.14-3.89,1.23-4.44a259.89,259.89,0,0,0-92.85-.85c-30.49,5.28-59.47,16.95-90,21.95-31.23,5.11-62.72,2.9-93.34-4.65-15-3.69-29.67-8.22-44.56-12.16a412.17,412.17,0,0,0-42.69-8.9,472.52,472.52,0,0,0-97-5c-2.95.16-3,4.77,0,4.61h0Z" transform="translate(-86.44 -469.48)"/><path class="j" d="M477.91,671.75c19.25-8.49,39.77-14.17,59.7-20.79,9.55-3.18,19.11-6.41,28.41-10.29,12.42-5.19,24.53-10.9,37.41-14.93a202.23,202.23,0,0,1,45.42-9.12c2.94-.22,3-4.83,0-4.61A199.94,199.94,0,0,0,608,619.54c-13.8,4-27,9.49-40.07,15.3-19.54,8.65-40.33,14.45-60.57,21.18-10.71,3.56-21.45,7.18-31.79,11.74-2.71,1.19-.37,5.17,2.33,4h0Z" transform="translate(-86.44 -469.48)"/><path class="k" d="M145.56,644.3s-0.12,30.05,3.23,46.5,5.84,25.64,5.84,25.64L145.56,714,137.71,719,130.62,717,122.17,719l-4.83.66s6.92-24.82,7.55-35.59,4-41.6,4-41.6,8.88,1,11,.93,7.12-.51,7.12-0.51Z" transform="translate(-86.44 -469.48)"/><path class="l" d="M139.83,643.36s0.9,9.59,1.15,18.41-1.15,8.86-1.15,8.86l4.29,10a54.4,54.4,0,0,1,0,5.49,44.36,44.36,0,0,0,.07,8.95c0.44,3.21-.1,8.34,0,9.27s2.75,8.49,2.75,8.49l5.48,3s-5.17-28-5.48-35,0-38,0-38Z" transform="translate(-86.44 -469.48)"/><path class="m" d="M127.69,642l5.51,22.69v6a3.81,3.81,0,0,0-1.73,4.3c0.71,3,0,9.11,0,9.11l-1.73,9.27s1.18,7.26,1.17,7.94-2.57,3.46-2.57,6.45,0,8.28,0,8.28l-8.15,2.48v-9.73s4.86-25.21,5.49-34.5S127.69,642,127.69,642Z" transform="translate(-86.44 -469.48)"/><path class="n" d="M217.7,570.42c-1.3,19.52,2.69,30.18-4.94,36.47s-10.7,6.57-10.7,6.57-0.41,18-14.1,20.48-13.64.49-13.64,0.49,0.25,9.7-7.49,11.34-21.65-3.36-21.65-3.36,1,1.82-8,.66-16.08-2.18-16.08-2.18a37.2,37.2,0,0,1-11.48,3.77c-7.18,1.25-6.73-3.17-6.73-3.17s1.34,4.42-5.34-.65-8.27-7.59-8.27-7.59V529.13l7.31-1.77s-1-12.25,4.64-14.09,8.15-1.13,8.15-1.13,0.71-10.35,7.76-11.37,21.83,2,21.83,2,9.9-9.58,14.42-7.33,9.54,5.35,9.54,5.35,15.08,0.4,19.77,5.32,8,18.65,8,18.65,5.26-2.09,7.68,7,4.06,12.49,4.06,12.49,9.33,7.2,11.19,11.08S217.7,570.42,217.7,570.42Z" transform="translate(-86.44 -469.48)"/><path class="o" d="M162.11,719.62c0.31-1.06-5-4.88-5-4.88l-3.45,2.93-4.44-3.91-8.93,2.09-3.24,2.6L133.43,715l-3.51.81-1.7,2.6L125.45,715l-4.33,2.5-9.34,2.76v1.25H161.5Z" transform="translate(-86.44 -469.48)"/><path class="p" d="M109.71,516.34s2.24-9.17,9.23-10.92,19.74,0,19.74,0a15.14,15.14,0,0,1,10-5.29,58.87,58.87,0,0,1,12.58.64s-4.47-6.77-10.33-5.3-8-.63-10.15,4.66-3.58,2.51-3.58,2.51-11.54-5.57-16.78-2.77-11.05,6.55-11,17.55" transform="translate(-86.44 -469.48)"/><path class="p" d="M164.71,506.34s7-1.12,14.64,5.06a47.58,47.58,0,0,1,11.42,13.38s3-13.1-8-18.65-19.77-5.32-19.77-5.32Z" transform="translate(-86.44 -469.48)"/><path class="p" d="M180.87,558.88s4.16,6.93,10.26,9.2a9.45,9.45,0,0,1,5.52,10.39c-1.67,7.23-9.33,8.28-9.33,8.28L183.68,584s4.1-3.56,3.64-12.32c-0.31-5.89-4.42-5.74-4.27-5.64Z" transform="translate(-86.44 -469.48)"/><path class="p" d="M88.3,540.44S87.62,540,93,537.77a21.22,21.22,0,0,1,10-1.52l-5.9-7.13a5.45,5.45,0,0,0-6.09,0C87.82,531.26,88.3,540.44,88.3,540.44Z" transform="translate(-86.44 -469.48)"/><path class="p" d="M166.42,517.42a20.36,20.36,0,0,1,4.92,7.36c1.67,4.47-.59,9.81-2.46,11.81a6.34,6.34,0,0,1-3.39,2.18,7.47,7.47,0,0,1-.79,3.82c-1,2.33-4.56,4.1-5.46,3.55s1.95-2.19,1.86-5.7a30.66,30.66,0,0,0-.76-6.13s5.44-.24,7.05-2.48S170.17,524.92,166.42,517.42Z" transform="translate(-86.44 -469.48)"/><path class="q" d="M89.6,625.14s6.22,9.51,13.4,10.4a35,35,0,0,0,14.34-1.74l5.44,5.44-13.14,5.43-6.73-3.17-5.34-.65-9.38-3.93Z" transform="translate(-86.44 -469.48)"/><path class="q" d="M168.43,633.27l3.5-4a37.89,37.89,0,0,0,13.25,0,62.82,62.82,0,0,0,14.38-5.07s-4.33,7.81-11.6,9.78S168.43,633.27,168.43,633.27Z" transform="translate(-86.44 -469.48)"/><path class="q" d="M117,612.06s6.3,4.86,11.25,2.86a44.63,44.63,0,0,1,11.47-2.46s-3.71,7-11.36,8S117,612.06,117,612.06Z" transform="translate(-86.44 -469.48)"/><path class="r" d="M167.9,635.86c8.46,2.49,18.26,2.46,25.82-2.61,6.5-4.36,10.79-11.86,10.3-19.78l-2,2c7.11,0.34,12.22-5.56,14.25-11.83a48.67,48.67,0,0,0,1.78-10.52q0.62-6.65,1.19-13.3c0.65-7.66.75-15.37-2.42-22.53a31.41,31.41,0,0,0-13.35-14.65c-2.21-1.24-4.2,2.16-2,3.4A27.71,27.71,0,0,1,213,558.23c3,6.16,3,13,2.5,19.68s-0.8,13.84-2,20.56c-1,5.9-4.31,13.37-11.44,13a2,2,0,0,0-2,2,18.66,18.66,0,0,1-9,16.78c-6.66,4.12-14.88,4-22.17,1.82-2.43-.72-3.47,3.08-1,3.79h0Z" transform="translate(-86.44 -469.48)"/><path class="r" d="M202.27,553.83c1.29-11.09,1.59-25.47-10.51-30.75l0.9,2.22A21.89,21.89,0,0,0,185,505.45c-6.12-5.17-14.2-6.9-22-6.6-2.52.1-2.54,4,0,3.94,6.5-.25,13.24.9,18.55,4.89,5,3.78,8.32,10.23,7.37,16.58a2,2,0,0,0,.9,2.22c10.73,4.68,9.69,17.66,8.56,27.35-0.29,2.51,3.64,2.49,3.94,0h0Z" transform="translate(-86.44 -469.48)"/><path class="r" d="M166.6,506.46c-2.22-6.21-7-11.91-13.9-12.82a13.91,13.91,0,0,0-9.31,2,12.4,12.4,0,0,0-3.19,3,10.92,10.92,0,0,1-1.1,1.63c-1.15,1-2.44.12-3.67-.26-6.85-2.06-16-4.3-22.06.82-5.17,4.35-5.74,11.88-5.63,18.16a2,2,0,0,0,3.94,0v-1.07c0-2.53-3.91-2.54-3.94,0V519h3.94c-0.09-5.28.06-12.41,5-15.7,6-4,14.2-.14,20.32,1.33,2.65,0.63,4.25-.59,5.72-2.63,1.7-2.37,3.64-4,6.62-4.44,6.46-1,11.5,4.35,13.51,10,0.85,2.37,4.65,1.35,3.79-1h0Z" transform="translate(-86.44 -469.48)"/><path class="r" d="M110.39,510.44a10.12,10.12,0,0,0-11.66,2.43c-3.68,3.81-4.29,9.44-4.09,14.48l2-2a15.25,15.25,0,0,0-8.57,2c-2.2,1.25-.22,4.65,2,3.4a11.4,11.4,0,0,1,6.58-1.5,2,2,0,0,0,2-2c-0.14-3.53,0-7.37,2-10.45,1.61-2.5,4.92-4.46,7.87-3.07,2.28,1.07,4.28-2.32,2-3.4h0Z" transform="translate(-86.44 -469.48)"/><path class="r" d="M172.29,636.46c0.44,6.19-6.57,7.41-11.29,7-4.16-.37-9.88-0.88-12.37-4.73a2,2,0,0,0-2.69-.71,20,20,0,0,1-27.28-5.73c-1.43-2.07-4.84-.11-3.4,2,7.37,10.71,21.48,14.09,32.66,7.14l-2.69-.71c3.62,5.6,11.41,6.62,17.56,6.79,6.46,0.18,14-3.57,13.43-11-0.18-2.51-4.12-2.53-3.94,0h0Z" transform="translate(-86.44 -469.48)"/><path class="r" d="M120.13,639.21c-2.5,1.25-14.48,6.6-15.32,1.78a2,2,0,0,0-2.89-1.18c-1.6.87-4.61-1.26-5.83-2.08-1.76-1.18-4.11-2.91-4.89-5-0.88-2.35-4.69-1.33-3.79,1,1.24,3.31,4.29,5.82,7.2,7.66,2.63,1.66,6.29,3.4,9.3,1.75L101,642c1.61,9.23,16.29,3,21.11.58,2.27-1.13.28-4.53-2-3.4h0Z" transform="translate(-86.44 -469.48)"/><path class="r" d="M165,718.3l-6.17-5.74a2,2,0,0,0-3.29.87c-1.17,3.22-4.44-.57-5.87-1.26a4.57,4.57,0,0,0-3.48,0c-2.68.86-5,2.49-7.52,3.76-2.26,1.15-.27,4.55,2,3.4,1.43-.73,2.81-1.58,4.24-2.32a9.64,9.64,0,0,1,2.34-1c1.22-.24,1,0,2.05.87,3.52,2.76,8.43,2.07,10-2.36l-3.29.87,6.17,5.74c1.85,1.72,4.64-1.05,2.78-2.78h0Z" transform="translate(-86.44 -469.48)"/><path class="r" d="M140.22,717.86c-2-.29-3.2-2.6-5.06-3.45a4.45,4.45,0,0,0-4,0c-0.43.24-2.16,1.2-.8,1.55a7.82,7.82,0,0,1-.84-1.21,3.23,3.23,0,0,0-3.92-.29c-2.05,1-3.75,2.28-6,2.89a21.18,21.18,0,0,1-5.86.58c-3.19,0-6.58.05-8.76,2.73-1.58,1.95,1.18,4.75,2.78,2.78,2.06-2.54,6.16-1.39,9-1.63s7.55-1.08,9.74-3.25q1.15-.26.46-0.76-0.51-.63,0,0.15a4.1,4.1,0,0,0,.94,1.09,3,3,0,0,0,3.36.26c0.48-.25.85-0.83,1.33-1,1.33-.59,1.82.31,2.64,1.07a7.34,7.34,0,0,0,4,2.31c2.48,0.35,3.55-3.44,1-3.79h0Z" transform="translate(-86.44 -469.48)"/><path class="r" d="M155.3,716.51c-6.54-23.85-8.71-49.41-8.16-74.08,0.06-2.53-3.88-2.53-3.94,0a298.39,298.39,0,0,0,1.72,38,233.44,233.44,0,0,0,6.58,37.08c0.67,2.44,4.47,1.4,3.79-1h0Z" transform="translate(-86.44 -469.48)"/><path class="r" d="M126.25,641.92c-0.42,25.35-2.5,51.13-7.9,75.94l3.6-.47c-1.05-2.19-4.32-.4-5.77.21-1.29.54-2.57,1.1-3.86,1.64-0.59.25-1.19,0.5-1.8,0.71a3.12,3.12,0,0,0-.55.18c-0.51.3-.67-0.26,0.28,0.1l1.18,0.9,0-.05c-1.1-2.28-4.49-.29-3.4,2s4.32,0.4,5.77-.21c1.29-.54,2.57-1.1,3.86-1.64,0.59-.25,1.19-0.5,1.8-0.71a3.12,3.12,0,0,0,.55-0.18c0.51-.3.67,0.26-0.28-0.1l-1.18-.9,0,0.05a2,2,0,0,0,3.6-.47c5.48-25.15,7.61-51.28,8-77,0-2.53-3.89-2.53-3.94,0h0Z" transform="translate(-86.44 -469.48)"/><path class="r" d="M185.71,584.49c2.26-4.52,5.44-16.54-2.25-18.09l0.72,0.95a25.8,25.8,0,0,0-17.49-22.16,1,1,0,0,0-.52,1.9,23.76,23.76,0,0,1,16,20.26,1,1,0,0,0,.72.95c6.08,1.23,2.74,11.87,1.08,15.2-0.56,1.13,1.13,2.13,1.7,1h0Z" transform="translate(-86.44 -469.48)"/><path class="r" d="M139.93,610.52c-3.18,4.25-8,10.45-14.14,8.68-2.61-.75-4.79-2.71-6.77-4.48s-3.63-3.63-4.15-6.25a1,1,0,0,0-1.64-.43c-2.46,2.56-6.4,1-9-.65-3.09-1.94-5.78-5.6-3.68-9.25a1,1,0,0,0-.59-1.45c-3.36-.73-1.44-4.9-0.48-6.71a1,1,0,0,0-1.7-1c-1.59,3-3.11,8.56,1.66,9.6l-0.59-1.45c-2.48,4.3,0,8.93,3.73,11.51,3.41,2.36,8.67,4.22,12,.77L113,609c0.59,3,2.46,5.16,4.66,7.12,2.43,2.17,5.15,4.57,8.45,5.16,6.93,1.24,11.89-4.87,15.55-9.77,0.76-1-.95-2-1.7-1h0Z" transform="translate(-86.44 -469.48)"/><path class="r" d="M112.66,536.79a11.46,11.46,0,0,0-10.1,8.2c-1.62,5.21.47,10.79,4.12,14.6a1,1,0,0,0,1.39-1.39c-3-3.15-4.85-7.63-3.8-12a9.5,9.5,0,0,1,8.39-7.42c1.26-.08,1.27-2,0-2h0Z" transform="translate(-86.44 -469.48)"/><path class="r" d="M165.12,516.84c1.62,3.23,3,6.95,2.7,10.62s-3.51,7.72-7.62,6.2a1,1,0,0,0-1.11,1.45c3.8,8.15-3.69,17.3-12.4,14.1-1.19-.44-1.7,1.46-0.52,1.9,10.49,3.86,19.08-7.44,14.62-17l-1.11,1.45c3.8,1.4,7.75-1.05,9.28-4.59,2.12-4.9.11-10.64-2.14-15.12-0.57-1.13-2.27-.14-1.7,1h0Z" transform="translate(-86.44 -469.48)"/><path class="r" d="M175.06,611a13.11,13.11,0,0,1-11.89-5.54,1,1,0,0,0-1.55-.2c-3.32,2.62-5.82-2.87-6.54-5.22a22,22,0,0,1-.76-8.62c0.12-1.26-1.85-1.25-2,0-0.43,4.5.16,9.9,2.91,13.67,1.88,2.58,5.12,3.63,7.75,1.56l-1.55-.2A15.1,15.1,0,0,0,175.06,613c1.25-.1,1.26-2.07,0-2h0Z" transform="translate(-86.44 -469.48)"/><path class="s" d="M89.14,474.48H648.85c3.22,0,3.22-5,0-5H89.14c-3.22,0-3.22,5,0,5h0Z" transform="translate(-86.44 -469.48)"/><path class="s" d="M86.64,472V724.57c0,3.22,5,3.22,5,0V472c0-3.22-5-3.22-5,0h0Z" transform="translate(-86.44 -469.48)"/><path class="s" d="M89.14,727.1H648.85c3.26,0,3.27-5.07,0-5.07H89.14c-3.26,0-3.27,5.07,0,5.07h0Z" transform="translate(-86.44 -469.48)"/><path class="s" d="M651.35,724.57V472c0-3.22-5-3.22-5,0V724.57c0,3.22,5,3.22,5,0h0Z" transform="translate(-86.44 -469.48)"/></svg>