<svg xmlns="http://www.w3.org/2000/svg" xmlns:xlink="http://www.w3.org/1999/xlink" viewBox="0 0 680.48 263.26"><defs><style>.a{fill:url(#a);}.b{fill:url(#b);}.c{fill:url(#c);}.d{fill:url(#d);}.e{fill:url(#e);}.f{fill:url(#f);}.g{fill:#ffff8d;stroke:#fff;stroke-width:4.56px;}.g,.s,.t{stroke-miterlimit:10;}.h{fill:#826649;}.i{fill:#1c1b1a;}.j{fill:#f7d47c;}.k{fill:#ffed9f;}.l{fill:#c19f63;}.m{fill:#232323;opacity:0.7;}.n{fill:#b28159;}.o{fill:#917343;}.p{fill:#e5e5e5;}.q{fill:#a05320;}.r{fill:#81fc68;}.s,.t{fill:none;stroke:#1c1b1a;}.s{stroke-width:4px;}.t{stroke-width:1.48px;}</style><linearGradient id="a" x1="308.07" y1="-52.17" x2="372.33" y2="312.27" gradientUnits="userSpaceOnUse"><stop offset="0" stop-color="#f5ffaa"/><stop offset="0.01" stop-color="#f5fda8"/><stop offset="0.23" stop-color="#fbd387"/><stop offset="0.41" stop-color="#feba72"/><stop offset="0.51" stop-color="#ffb06a"/><stop offset="0.63" stop-color="#ffb66a"/><stop offset="0.78" stop-color="#ffc66a"/><stop offset="0.95" stop-color="#ffe16a"/><stop offset="1" stop-color="#ffea6a"/></linearGradient><linearGradient id="b" x1="337.73" y1="308.2" x2="339.86" y2="183.79" gradientUnits="userSpaceOnUse"><stop offset="0" stop-color="#4f6a00"/><stop offset="0.12" stop-color="#536c01"/><stop offset="0.26" stop-color="#617102"/><stop offset="0.4" stop-color="#777905"/><stop offset="0.55" stop-color="#968408"/><stop offset="0.7" stop-color="#bd930d"/><stop offset="0.85" stop-color="#eda413"/><stop offset="0.9" stop-color="#ffab15"/></linearGradient><linearGradient id="c" x1="277.93" y1="533.63" x2="277.93" y2="609.83" gradientTransform="translate(-164.13 46.2) rotate(-2.55)" gradientUnits="userSpaceOnUse"><stop offset="0" stop-color="#fbff94"/><stop offset="0.23" stop-color="#fcffb8" stop-opacity="0.66"/><stop offset="0.44" stop-color="#fdffd7" stop-opacity="0.38"/><stop offset="0.61" stop-color="#feffec" stop-opacity="0.17"/><stop offset="0.74" stop-color="#fffffa" stop-opacity="0.05"/><stop offset="0.81" stop-color="#fff" stop-opacity="0"/></linearGradient><linearGradient id="d" x1="362.68" y1="444.36" x2="382.64" y2="424.4" xlink:href="#c"/><linearGradient id="e" x1="375.99" y1="486.72" x2="518.02" y2="628.76" xlink:href="#c"/><linearGradient id="f" x1="255.09" y1="476.03" x2="226.61" y2="476.03" gradientTransform="translate(-164.13 46.2) rotate(-2.55)" gradientUnits="userSpaceOnUse"><stop offset="0" stop-color="#fbff94"/><stop offset="1" stop-color="#fff" stop-opacity="0"/></linearGradient></defs><title>sunset</title><polygon class="a" points="676.54 258.63 1.62 258.63 1.62 1.87 678.86 1.87 676.54 258.63"/><rect class="b" x="1.62" y="196.33" width="674.92" height="66"/><path class="c" d="M177.62,641.36c0.42,1.48-6.54-44.46-7.32-69.18a51.13,51.13,0,0,1-29.56-5.42L102.89,625Z" transform="translate(-83.38 -461.67)"/><path class="d" d="M206.61,463.54c8.41,5.26,15.12,5.92,18.91,15.09,7.45-4.93,14.92-9.81,22.92-15.09" transform="translate(-83.38 -461.67)"/><path class="e" d="M212.22,555.63c11.72-8.27,17.66-25.1,20.28-39.21,13.7,7.42,182.2,88.28,182.44,88.38L343,693.24Z" transform="translate(-83.38 -461.67)"/><path class="f" d="M85,477.54c6.37,2.49,26,12.13,26,12.13s-3.51,5.36-3,19.86c0.42,12,4.1,18.55,4.1,18.55S84.5,546.24,85,545.62V477.54Z" transform="translate(-83.38 -461.67)"/><path class="g" d="M199.21,463.53a52,52,0,1,1-60.14,0" transform="translate(-83.38 -461.67)"/><polygon class="h" points="1.62 155.66 21.35 155.66 21.67 94.83 26.1 94.83 26.1 79.83 32.98 78.33 32.98 62.33 38.14 63.08 42.81 40.83 46.99 63.08 52.64 62.33 52.64 78.33 58.54 79.83 58.54 94.83 63.29 94.83 63.29 154.33 83.61 154.33 83.61 146.33 108.51 146.33 108.51 152.99 141.28 152.99 141.28 131.66 152.09 131.66 152.09 115.99 169.79 97.99 185.84 114.33 185.84 140.99 196.33 140.99 196.33 120.99 214.68 120.99 214.68 144.33 223.2 144.33 223.2 132.99 241.55 132.99 241.55 155.66 256.62 155.66 256.62 182.34 274.62 182.34 274.37 196.58 1.62 196.33 1.62 155.66"/><path class="i" d="M85,465.16H762.23a1.62,1.62,0,0,0,0-3.24H85a1.62,1.62,0,0,0,0,3.24h0Z" transform="translate(-83.38 -461.67)"/><path class="i" d="M83.38,463.54V723.3a1.62,1.62,0,0,0,3.24,0V463.54a1.62,1.62,0,0,0-3.24,0h0Z" transform="translate(-83.38 -461.67)"/><path class="i" d="M85,724.94H759.92a1.64,1.64,0,0,0,0-3.29H85a1.64,1.64,0,0,0,0,3.29h0Z" transform="translate(-83.38 -461.67)"/><path class="i" d="M760.61,463.54c0,67.46-1.4,134.9-2,202.35q-0.27,28.7-.29,57.4a1.62,1.62,0,0,0,3.24,0c0-67.46,1.4-134.9,2-202.35q0.27-28.7.29-57.4a1.62,1.62,0,0,0-3.24,0h0Z" transform="translate(-83.38 -461.67)"/><path class="i" d="M85,659l25.23,0,51.82,0,71.64,0.07,85.2,0.09,92.72,0.1,93.46,0.1,87.41,0.09,75.32,0.08,57,0.05,31.9,0h3.21a1,1,0,0,0,0-2l-24.86,0-51.53,0-71.43-.07L527,657.44l-92.67-.1-93.49-.1-87.52-.09-75.51-.08L120.56,657l-32.25,0H85a1,1,0,0,0,0,2h0Z" transform="translate(-83.38 -461.67)"/><path class="j" d="M741.9,585.16s-1.47,5.59-16.7-2.31c-13.07-6.78-10.8-10.73-10.8-10.73l0.79-2.09s9.14,4.31,14.61,7.7S741.9,585.16,741.9,585.16Z" transform="translate(-83.38 -461.67)"/><path class="j" d="M719.89,563.71s2.5-5.66,15.18,1.82,10.8,10.73,10.8,10.73l-0.79,2.09s-9.14-4.31-14.61-7.7S719.89,563.71,719.89,563.71Z" transform="translate(-83.38 -461.67)"/><path class="k" d="M735.5,650l-197.66-2.34L516,658l36.54,2L759,661.67s-0.27-2.82-2.26-3.8S735.5,650,735.5,650Z" transform="translate(-83.38 -461.67)"/><polygon class="k" points="469.86 210.33 466.62 204.33 646.53 204.33 647.09 210.33 469.86 210.33"/><polygon class="l" points="443.08 198.3 421.54 246.67 437.4 240.14 443.08 237.13 454.46 210.33 461.29 224.76 469.83 230.56 483.29 227.99 460.59 199.36 443.08 198.3"/><polyline class="m" points="464.9 229.36 488.65 240.37 452.34 240.66 443.08 237.13 417.5 251.21 447.69 261.62 676.54 261.62 676.54 251.61 676.54 251.4 676.54 246.83 676.54 246.68 676.54 237.13 667.47 235.62 653.92 234.47 637.53 228.62 636.35 230.57 652.37 238.26 511.63 238.26 486.29 227.99"/><polygon class="l" points="652.12 200.7 637.53 228.62 648.62 232.58 659.29 219.33 667.47 235.62 676.54 247.91 668.62 199.7 652.12 200.7"/><polygon class="k" points="408.88 221.83 435.53 209.13 485.83 209.13 670 210.66 677.37 211.08 676.54 221.83 676.54 223.33 408.88 221.83"/><path class="n" d="M592,566.67c21.38,1.23,22.81,14,23,20s-2.11,17.18-4.34,20.5,11.51,7.64,11.51,7.64a38.87,38.87,0,0,1,7.34,14.38c2.27,8.61,5.79,14.6,4.23,20.15s-4.4,7.44-4.4,7.44-3.4,1.31-5.27,7.23-9.6,10.32-21.8,10.42-26.58,2.33-31.87-3.08-6.53-7.6-6.32-12.83-4.55-3.83-4.55-3.83-7.05-1.5-6.26-5.34,1.63-15.91,3-21.12,3.56-13.53,7.32-15.87,7.75-5.44,7.75-5.44-1.66.57-3.36-4.23-3.38-11.09-1.3-16.44,5.6-11.24,9-13.54S587,566.38,592,566.67Z" transform="translate(-83.38 -461.67)"/><path class="n" d="M695.75,570.56c10.1,2.44,14.47,11.27,15.49,15.12,0.92,3.49,0,13.33,0,13.33s6.66-7.69,7-12.5-0.62-10.52.87-12.42,3.7,0,4.3-1.36a39.71,39.71,0,0,1,3.45-5.94c1.58-2.25,6.68-4,8.23-1.27s3.43,9.18,3,11.85-9,20.33-11.19,26.38-8.26,21.73-7.75,27.23-0.45,16.68.73,20.92,1.7,10.43-.6,14.08-11.13,10.08-17.13,8-26,.45-28.67,0-10.82,1-11.88-6,0.19-19.45,0-22.93,0.54-9.8-1.79-15,0-11.9-3.48-16.7-4.49-15.32-5.87-20.56-4-13.36-4.32-19.14S646.6,560,649.59,558s4.72-3.73,7.14-2.16,6.36,4.6,7.36,9.11,2.76,16.76,3.38,18.3,3.07-3.78,5.54-6.42a28.06,28.06,0,0,1,10.8-6.3A21.58,21.58,0,0,1,695.75,570.56Z" transform="translate(-83.38 -461.67)"/><path class="k" d="M570.33,602.67s-2-19.33,12-27,20-5,20-5l-14.51-3.48-17.15,10.68-4.88,14.31Z" transform="translate(-83.38 -461.67)"/><path class="k" d="M671,604.95s-2-19.33,12-27,20-5,20-5l-14.51-3.48-16.55,8.93-3.21,12.29Z" transform="translate(-83.38 -461.67)"/><path class="k" d="M660,560.09s-7,.39-8.5,5.28-1.25,14.22,0,19.55,5.08,31.35,5.08,31.35-10.83-34.53-10.49-42.67,0.91-12.84,4.41-14.34S655.91,555.21,660,560.09Z" transform="translate(-83.38 -461.67)"/><path class="k" d="M555.53,636.75c-0.54-.78,7.55-17,11.14-20.48a67.64,67.64,0,0,0,5.87-6.52s-1.7-2.5-5.87,1.25-6.92,10.73-8,13.49S555.53,636.75,555.53,636.75Z" transform="translate(-83.38 -461.67)"/><path class="o" d="M595.1,683.51s-23.64-5-24.76-8.86,14.75-.34,23.35-0.29S628.28,670,634.14,672s34.59,12.33,34.59,12.33Z" transform="translate(-83.38 -461.67)"/><path class="o" d="M686.4,683.51s-25.22-5-26.35-8.86,14.75-.34,23.35-0.29S718,670,723.86,672s34.65,12.33,34.65,12.33Z" transform="translate(-83.38 -461.67)"/><path class="p" d="M723.33,525.36s-2.12,5-2,6.65,3.07,7.21,3.22,8.63a78.55,78.55,0,0,1-.66,7.93s3.64-4.95,4-9.07a32.61,32.61,0,0,1-2.36-4.32C724.1,531.84,723.33,525.36,723.33,525.36Z" transform="translate(-83.38 -461.67)"/><path class="q" d="M716.88,567.63c-0.29.72-.71,2.07,0,2.93a21.27,21.27,0,0,0,3.54,2.53l2.55,0.82,1.42-3.14L723.75,569s0.09,0.29-1.17,0a18.52,18.52,0,0,1-3.25-1.33l-1.2-1Z" transform="translate(-83.38 -461.67)"/><path class="q" d="M738.36,578.79s2.48,0.13,3.38.85a3.28,3.28,0,0,1,1.05,1.91l-0.89,1.28-1.47.53-3.18-1.22Z" transform="translate(-83.38 -461.67)"/><path class="r" d="M717.42,565.36l3.33,2.64a7.51,7.51,0,0,0,2.51,1l1.77-1.8L723.26,566l-1.84-1.24-1.68.61h-2.31Z" transform="translate(-83.38 -461.67)"/><polygon class="r" points="659.41 115.33 661.29 116.88 662.15 119.4 662.5 120.47 660.65 119.88 658.36 117.97 655.88 117.2 654.56 117.22 655.66 113.68 657.05 113.68 659.41 115.33"/><path class="s" d="M553,647.5l-15.16.17L515.75,657a1.3,1.3,0,0,0,.48,2.5H562.5" transform="translate(-83.38 -461.67)"/><path class="i" d="M572,606.49c-11.57,1.66-15.53,16.27-17.65,25.85a73.12,73.12,0,0,0-2,18.41c0.23,5.62,6.29,6.69,10.84,5.23,2.44-.79,1.4-4.65-1.06-3.86a7.76,7.76,0,0,1-3.32.45c-1.56-.18-2.16-0.38-2.45-1.82-0.39-1.91.07-4.53,0.21-6.46a77.07,77.07,0,0,1,2.36-14c2-7.53,5-18.61,14.09-19.91,2.54-.36,1.46-4.22-1.06-3.86h0Z" transform="translate(-83.38 -461.67)"/><path class="i" d="M566.43,624.46A154.42,154.42,0,0,0,562,659.34c0,4.48.93,8.67,4.56,11.6,3.32,2.68,7.65,3.74,11.79,4.38a111.53,111.53,0,0,0,33.71,0c4.48-.68,9.44-1.42,12.52-5.1s3.56-8.64,3.62-13.11c0.18-12.37-5.17-24-10.29-34.94-1.09-2.33-4.54-.3-3.45,2,4,8.64,8.2,17.59,9.42,27.15,0.54,4.2.66,8.88-.63,13-1.5,4.75-5.41,6-9.9,6.77a106.61,106.61,0,0,1-29.75.9c-4.09-.44-8.56-0.91-12.3-2.77-4.13-2.06-5.31-5.47-5.29-9.9a149.5,149.5,0,0,1,4.29-33.82c0.59-2.5-3.26-3.57-3.86-1.06h0Z" transform="translate(-83.38 -461.67)"/><path class="i" d="M609.66,609.73c3.65,2.38,7.38,4.72,10.48,7.81A31.11,31.11,0,0,1,627.26,629a73.09,73.09,0,0,1,3.15,12.79c0.4,2.32.89,4.69,1.05,7a8.46,8.46,0,0,1-.32,3.7,4.6,4.6,0,0,1-.94,1.51q-1.14.37-.38,1.25l-0.51,1.95,0.26-.25c1.85-1.8-1-4.63-2.83-2.83-1.61,1.57-.54,3.94,1.49,4.51,2.37,0.66,4.84-1.43,6-3.31,1.61-2.7,1.4-5.85,1-8.84-0.49-3.43-1-6.87-1.76-10.26-1.32-6.26-3.37-12.54-7.21-17.74s-9.17-8.74-14.54-12.24c-2.16-1.41-4.17,2.05-2,3.45h0Z" transform="translate(-83.38 -461.67)"/><path class="i" d="M573.16,605.84c-6-4.92-6.38-13.66-4.13-20.59a24.47,24.47,0,0,1,12.34-13.85c6.94-3.5,15.18-3.78,21.87.38a21.77,21.77,0,0,1,7.62,8c1.91,3.51,2.13,7.18,2.22,11.1a29.12,29.12,0,0,1-.84,9.35,23.64,23.64,0,0,1-3.72,6.52c-1.5,2.09,2,4.09,3.45,2a27.17,27.17,0,0,0,4.06-7.28,30.42,30.42,0,0,0,1.06-9.87C617,587.23,616.83,583,615,579a25.35,25.35,0,0,0-8.18-9.67c-14-10.14-34.6-2.36-40.92,13-3.47,8.46-3.05,20.11,4.49,26.29,2,1.62,4.82-1.19,2.83-2.83h0Z" transform="translate(-83.38 -461.67)"/><path class="i" d="M519,673.33h51.33c2.57,0,2.58-4,0-4H519c-2.57,0-2.58,4,0,4h0Z" transform="translate(-83.38 -461.67)"/><path class="i" d="M493.27,685.23l26.65-12.7c2.32-1.11.3-4.56-2-3.45l-26.65,12.7c-2.32,1.11-.3,4.56,2,3.45h0Z" transform="translate(-83.38 -461.67)"/><path class="i" d="M492.67,686.33H758.92c2.57,0,2.58-4,0-4H492.67c-2.57,0-2.58,4,0,4h0Z" transform="translate(-83.38 -461.67)"/><path class="i" d="M619.67,674h43c2.57,0,2.58-4,0-4h-43c-2.57,0-2.58,4,0,4h0Z" transform="translate(-83.38 -461.67)"/><path class="i" d="M627.67,661.67h32c2.57,0,2.58-4,0-4h-32c-2.57,0-2.58,4,0,4h0Z" transform="translate(-83.38 -461.67)"/><path class="i" d="M672.33,604.69a198.22,198.22,0,0,0-3.42-22.34c-1.44-6.75-3-13.82-5.6-20.21-1.92-4.65-6-8.45-11.36-6.52-5.53,2-7.9,8-8.24,13.45-0.43,6.79,1.63,13.87,3.27,20.38,1.59,6.29,3.43,12.52,5.24,18.75,3.49,12,6.68,24.1,7.13,36.65a98.44,98.44,0,0,1-.2,10.62c-0.16,2.14-.61,4.24-0.73,6.38-0.26,4.67.67,11.21,5.41,13.36,5,2.26,10.77,2.16,16.13,2.23,6.79,0.08,13.57-.38,20.34-0.77,5.22-.3,11.62.11,16.25-2.79s6-9.22,6.32-14.32c0.34-5.93-1.05-11.76-1.3-17.66a73,73,0,0,1,2-19.77,155,155,0,0,1,6.89-20.93c2.8-7.15,6.29-14.3,8.32-21.72,1.53-5.58.75-13.54-5.82-15.53a8.5,8.5,0,0,0-7.45,1.42,8.38,8.38,0,0,0-2.53,3,8,8,0,0,0-.61,1.68q-0.12.65-.2,1.31a2.48,2.48,0,0,0,.33,2.39,2,2,0,0,0-3-1.73c-2.11,1.27-2.64,3.37-2.75,5.7a44.88,44.88,0,0,1-1,9.14,33.22,33.22,0,0,1-9.53,16.08c-1.88,1.77,1,4.59,2.83,2.83a37.46,37.46,0,0,0,9.36-14,37.18,37.18,0,0,0,2.32-12.25c0-1.12-.37-3.32.77-4l-3-1.73c0.48,4.68,6.36,3.56,7.36-.31,0.65-2.5.68-4.81,3.67-5.63s5.16,1.8,5.8,4.45c0.7,2.94-.25,6-1.22,8.73-1.1,3.14-2.35,6.23-3.58,9.32C728.3,595.83,726,601.37,724,607c-4,10.93-6.8,22.32-6.47,34,0.16,5.43,1.34,10.77,1.39,16.2,0,5-.74,12.1-6.16,14.05-4.93,1.78-11,1.32-16.13,1.62-6,.35-12,0.67-18,0.53a71.25,71.25,0,0,1-8.22-.45c-1.73-.24-4.65-0.69-6-2-1.71-1.66-2-5.6-2.05-7.83a44.14,44.14,0,0,1,.59-5.59c2.76-23-5.74-44.83-11.47-66.65-1.74-6.63-3.9-13.71-3.83-20.62,0-3.3.75-6.91,3.18-9.32,2.63-2.61,6-2.39,7.89.82,1.61,2.69,2.32,6,3.17,9q1.52,5.31,2.73,10.69a188.45,188.45,0,0,1,3.69,23.15c0.25,2.54,4.25,2.56,4,0h0Z" transform="translate(-83.38 -461.67)"/><path class="i" d="M671.18,594.47a20.83,20.83,0,0,1,.19-9.37c1.12-3.65,3.91-6.79,6.8-9.18,4.6-3.79,11.76-4.79,17.46-3.54,6.09,1.34,9.22,6.09,11.33,11.64,1.81,4.77,4.09,12.77.38,17.23-1.64,2,1.18,4.81,2.83,2.83,3.57-4.3,3.38-10.26,2.31-15.45-1.15-5.59-3.58-11.73-7.64-15.87s-10.45-5.2-16-4.75a24,24,0,0,0-16.66,8.17c-5.1,5.72-6,12-4.86,19.35,0.39,2.54,4.25,1.46,3.86-1.06h0Z" transform="translate(-83.38 -461.67)"/><path class="i" d="M633.67,651.33h24.67c2.57,0,2.58-4,0-4H633.67c-2.57,0-2.58,4,0,4h0Z" transform="translate(-83.38 -461.67)"/><path class="i" d="M720.67,651H734c2.57,0,2.58-4,0-4H720.67c-2.57,0-2.58,4,0,4h0Z" transform="translate(-83.38 -461.67)"/><path class="i" d="M721.33,663.67h38.58c2.57,0,2.58-4,0-4H721.33c-2.57,0-2.58,4,0,4h0Z" transform="translate(-83.38 -461.67)"/><path class="i" d="M733.74,650.85c4.53,1.92,9.3,3.19,13.86,5,2.08,0.85,4.72,1.65,6.55,2.94s2.85,3.36,4.76,4.56c2.19,1.37,4.2-2.09,2-3.45-1.79-1.12-2.79-3.21-4.55-4.4a37.49,37.49,0,0,0-6.54-3c-4.61-1.94-9.48-3.18-14.07-5.13-2.34-1-4.38,2.45-2,3.45h0Z" transform="translate(-83.38 -461.67)"/><path class="i" d="M716.25,674.5c14.25,0,28.5-.16,42.75-0.17,2.57,0,2.58-4,0-4-14.25,0-28.5.16-42.75,0.17-2.57,0-2.58,4,0,4h0Z" transform="translate(-83.38 -461.67)"/><path class="i" d="M513.9,684.81L502.38,709c-1.1,2.31,2.35,4.35,3.45,2l11.52-24.23c1.1-2.31-2.35-4.35-3.45-2h0Z" transform="translate(-83.38 -461.67)"/><path class="i" d="M505.09,712.75c6.06-5.31,13.68-8.13,21.14-10.85,2.4-.87,1.36-4.74-1.06-3.86-8.15,3-16.3,6.08-22.91,11.88-1.94,1.7.9,4.52,2.83,2.83h0Z" transform="translate(-83.38 -461.67)"/><path class="i" d="M527,700.64L532.79,687c1-2.34-2.46-4.38-3.45-2l-5.74,13.61c-1,2.34,2.46,4.38,3.45,2h0Z" transform="translate(-83.38 -461.67)"/><path class="i" d="M524.73,659A48.36,48.36,0,0,0,519,668.9c-1,2.34,2.45,4.38,3.45,2a48.36,48.36,0,0,1,5.69-9.94c1.53-2.07-1.94-4.07-3.45-2h0Z" transform="translate(-83.38 -461.67)"/><path class="i" d="M539.77,670.47a45.18,45.18,0,0,1,4.91-9c1.47-2.12-2-4.12-3.45-2a49.58,49.58,0,0,0-5.31,9.95c-1,2.39,2.91,3.43,3.86,1.06h0Z" transform="translate(-83.38 -461.67)"/><path class="i" d="M760.92,708.35A146,146,0,0,0,761,686.5c-0.4-4.54.39-9.24,0.72-13.75,0.19-2.57-3.81-2.56-4,0-0.33,4.52-1.12,9.21-.72,13.75a146,146,0,0,1-.11,21.84c-0.16,2.57,3.84,2.56,4,0h0Z" transform="translate(-83.38 -461.67)"/><path class="i" d="M741.77,686c2.39,4.76,4.93,9.44,7.35,14.19,2.14,4.2,4.67,9.41,9.26,11.31,2.38,1,3.41-2.89,1.06-3.86-3.37-1.39-5.41-6.61-7-9.65-2.4-4.68-4.9-9.31-7.25-14-1.15-2.3-4.61-.28-3.45,2h0Z" transform="translate(-83.38 -461.67)"/><path class="i" d="M740.81,669.06c-1.29-2.52-2.32-5.16-3.59-7.69-1.15-2.3-4.6-.28-3.45,2,1.26,2.53,2.3,5.17,3.59,7.69,1.17,2.29,4.62.27,3.45-2h0Z" transform="translate(-83.38 -461.67)"/><path class="i" d="M751.65,663.63c1.32,2.55,2.95,4.94,4.25,7.5,1.17,2.29,4.62.27,3.45-2-1.3-2.56-2.93-4.95-4.25-7.5-1.18-2.29-4.64-.27-3.45,2h0Z" transform="translate(-83.38 -461.67)"/><path class="i" d="M542.55,662.45l8.58,8.75c1.81,1.84,4.63-1,2.83-2.83l-8.58-8.75c-1.81-1.84-4.63,1-2.83,2.83h0Z" transform="translate(-83.38 -461.67)"/><path class="i" d="M562.16,686.82a16.23,16.23,0,0,0,4.48,3.94c2.21,1.33,4.22-2.12,2-3.45A13.31,13.31,0,0,1,565,684a2,2,0,0,0-2.83,0,2.05,2.05,0,0,0,0,2.83h0Z" transform="translate(-83.38 -461.67)"/><path class="i" d="M553.21,694.24a98.57,98.57,0,0,0,14-2.64c2.49-.65,1.43-4.51-1.06-3.86a91.16,91.16,0,0,1-12.93,2.5c-2.53.29-2.56,4.29,0,4h0Z" transform="translate(-83.38 -461.67)"/><path class="i" d="M541.43,686.22A50.76,50.76,0,0,0,552.2,694c2.27,1.21,4.29-2.24,2-3.45a46.69,46.69,0,0,1-10-7.12c-1.88-1.76-4.71,1.06-2.83,2.83h0Z" transform="translate(-83.38 -461.67)"/><path class="i" d="M732.34,663l-4.16,6.56c-1.38,2.18,2.08,4.19,3.45,2l4.16-6.56c1.38-2.18-2.08-4.19-3.45-2h0Z" transform="translate(-83.38 -461.67)"/><path class="i" d="M722.52,683.74a43.15,43.15,0,0,0-3.34,5.54,2.07,2.07,0,0,0,.72,2.74,2,2,0,0,0,2.74-.72,43.15,43.15,0,0,1,3.34-5.54c1.37-2.19-2.09-4.2-3.45-2h0Z" transform="translate(-83.38 -461.67)"/><path class="i" d="M720.38,692.22c4,0.93,7.73,2.85,11.71,3.91,2.49,0.66,3.55-3.2,1.06-3.86-4-1.06-7.69-3-11.71-3.91-2.51-.58-3.57,3.28-1.06,3.86h0Z" transform="translate(-83.38 -461.67)"/><path class="i" d="M734.35,695.21a75.82,75.82,0,0,1,6.19-8.23c1.68-1.93-1.14-4.78-2.83-2.83a83.5,83.5,0,0,0-6.82,9c-1.42,2.16,2,4.16,3.45,2h0Z" transform="translate(-83.38 -461.67)"/><path class="i" d="M550,668h12.5c2.57,0,2.58-4,0-4H550c-2.57,0-2.58,4,0,4h0Z" transform="translate(-83.38 -461.67)"/><path class="i" d="M624,669h36c2.57,0,2.58-4,0-4H624c-2.57,0-2.58,4,0,4h0Z" transform="translate(-83.38 -461.67)"/><path class="i" d="M721.5,669.5H732c2.57,0,2.58-4,0-4H721.5c-2.57,0-2.58,4,0,4h0Z" transform="translate(-83.38 -461.67)"/><path class="i" d="M720.55,564.95a15.69,15.69,0,0,0,4.44,2.5c1.21,0.44,1.73-1.49.53-1.93a12.74,12.74,0,0,1-3.56-2c-1-.79-2.42.61-1.41,1.41h0Z" transform="translate(-83.38 -461.67)"/><path class="i" d="M720.59,564.41c3.14-3.28,7.51-1.06,10.53,1.2,1,0.77,2-1,1-1.73C728.32,561,723,559,719.18,563a1,1,0,0,0,1.41,1.41h0Z" transform="translate(-83.38 -461.67)"/><path class="i" d="M715.82,571.5l3.62,2.45c1.07,0.72,2.07-1,1-1.73l-3.62-2.45c-1.07-.72-2.07,1-1,1.73h0Z" transform="translate(-83.38 -461.67)"/><path class="i" d="M715.22,569.69a4.1,4.1,0,0,0-1.87,4.79,8.56,8.56,0,0,0,4,4.76,1,1,0,0,0,1-1.73c-1.5-.95-5.21-4.58-2.15-6.09,1.15-.57.14-2.3-1-1.73h0Z" transform="translate(-83.38 -461.67)"/><path class="i" d="M716.48,569.78l0,0.06,0.56-.23c0.26,0.07.22,0.13,0.22-.21a2.74,2.74,0,0,0,0-.32,1.7,1.7,0,0,1,0-1c0.15-.24,1.24-1.22,1.49-1a0.5,0.5,0,0,0,.71-0.71,1.17,1.17,0,0,0-1.47-.17,5.11,5.11,0,0,0-1.53,1.22,2.12,2.12,0,0,0-.14,1.72c0.06,0.53-.16,1.21.54,1.41a0.51,0.51,0,0,0,.56-0.23l0-.06c0.3-.57-0.57-1.08-0.86-0.5h0Z" transform="translate(-83.38 -461.67)"/><path class="i" d="M721.25,564.44c-1.29.84-3.3,0-4.62,0.88a0.5,0.5,0,0,0,.25.93c1,0.1,2.32,1.29,3.07,1.91s1.6,1.64,2.77,1.15c0.58-.25.33-1.21-0.27-1-0.78.33-2.39-1.37-3.07-1.84a5.94,5.94,0,0,0-2.5-1.25l0.25,0.93c1.29-.84,3.3,0,4.63-0.87a0.5,0.5,0,0,0-.5-0.86h0Z" transform="translate(-83.38 -461.67)"/><path class="i" d="M734.78,588.51c1.89-.44,3.59,1.1,5.52.14,1.55-.77,2.28-2.45,2.87-4a1,1,0,0,0-.46-1.13q-2.4-1.38-4.74-2.84a1,1,0,0,0-1,1.73q2.34,1.47,4.74,2.84l-0.46-1.13c-0.58,1.52-1.33,3.16-3.24,2.81-1.32-.24-2.39-0.68-3.74-0.36a1,1,0,0,0,.53,1.93h0Z" transform="translate(-83.38 -461.67)"/><path class="i" d="M737.95,575.79a49.57,49.57,0,0,1,6.63,3.42,1,1,0,0,0,1.37-.36c4.41-6.94-5.93-11-10.7-12.77-1.21-.44-1.73,1.49-0.53,1.93,3.49,1.28,12.94,4.42,9.51,9.83l1.37-.36a52.9,52.9,0,0,0-7.11-3.62c-1.18-.5-1.7,1.44-0.53,1.93h0Z" transform="translate(-83.38 -461.67)"/><path class="i" d="M738.07,579.37c2.87-.71,5.13,2.14,7.11,3.82a0.51,0.51,0,0,0,.85-0.35,9.88,9.88,0,0,0-2-5.25c-0.38-.51-1.25,0-0.86.5a9,9,0,0,1,1.82,4.74l0.85-.35c-2.33-2-4.69-4.91-8.08-4.07a0.5,0.5,0,0,0,.27,1h0Z" transform="translate(-83.38 -461.67)"/><path class="i" d="M741.14,583.52a2.77,2.77,0,0,0,2.13-2.13c0.13-.63-0.83-0.9-1-0.27a1.79,1.79,0,0,1-1.43,1.43c-0.63.13-.36,1.1,0.27,1h0Z" transform="translate(-83.38 -461.67)"/><path class="t" d="M723.33,526s-2.95,4.52-1.85,8.19,3.38,5.82,3.2,8.29-0.8,6.43-.8,6.43,3.41-4.77,3.92-9.24c0.39-3.46-2.83-4.11-3.43-7.54S723.33,526,723.33,526Z" transform="translate(-83.38 -461.67)"/></svg>