<svg xmlns="http://www.w3.org/2000/svg" xmlns:xlink="http://www.w3.org/1999/xlink" width="4813" height="2979" viewBox="0 0 4813 2979">
  <metadata><?xpacket begin="﻿" id="W5M0MpCehiHzreSzNTczkc9d"?>
<x:xmpmeta xmlns:x="adobe:ns:meta/" x:xmptk="Adobe XMP Core 5.6-c138 79.159824, 2016/09/14-01:09:01        ">
   <rdf:RDF xmlns:rdf="http://www.w3.org/1999/02/22-rdf-syntax-ns#">
      <rdf:Description rdf:about=""/>
   </rdf:RDF>
</x:xmpmeta>
                                                                                                    
                                                                                                    
                                                                                                    
                                                                                                    
                                                                                                    
                                                                                                    
                                                                                                    
                                                                                                    
                                                                                                    
                                                                                                    
                                                                                                    
                                                                                                    
                                                                                                    
                                                                                                    
                                                                                                    
                                                                                                    
                                                                                                    
                                                                                                    
                                                                                                    
                                                                                                    
                           
<?xpacket end="w"?></metadata>
<defs>
    <style>
      .cls-1 {
        fill: #f9f9f9;
      }

      .cls-1, .cls-10, .cls-11, .cls-12, .cls-13, .cls-14, .cls-15, .cls-16, .cls-17, .cls-2, .cls-4, .cls-5, .cls-6 {
        fill-rule: evenodd;
      }

      .cls-2 {
        fill: #fafafa;
      }

      .cls-3 {
        fill: #fefff7;
        opacity: 0.6;
        filter: url(#filter);
      }

      .cls-4 {
        fill: #fbfbfb;
      }

      .cls-5 {
        fill: #f1f1f1;
      }

      .cls-5, .cls-6 {
        opacity: 0.54;
      }

      .cls-10, .cls-15, .cls-16, .cls-6 {
        fill: #f0f0f0;
      }

      .cls-13, .cls-7, .cls-8 {
        fill: #fff;
      }

      .cls-10, .cls-11, .cls-12, .cls-13, .cls-14, .cls-17, .cls-7, .cls-8 {
        opacity: 0.67;
      }

      .cls-7 {
        filter: url(#filter-2);
      }

      .cls-8 {
        filter: url(#filter-3);
      }

      .cls-9 {
        opacity: 0.9;
      }

      .cls-11 {
        fill: url(#linear-gradient);
      }

      .cls-12 {
        fill: url(#linear-gradient-2);
      }

      .cls-14 {
        fill: #ebebeb;
      }

      .cls-15 {
        opacity: 0.23;
      }

      .cls-16 {
        opacity: 0.47;
      }

      .cls-17 {
        fill: #f2f2f2;
      }
    </style>
    <filter id="filter" x="3103" y="299" width="1025" height="1014" filterUnits="userSpaceOnUse">
      <feOffset result="offset" in="SourceAlpha"/>
      <feGaussianBlur result="blur" stdDeviation="15.811"/>
      <feFlood result="flood" flood-color="#00ffde" flood-opacity="0.08"/>
      <feComposite result="composite" operator="in" in2="blur"/>
      <feGaussianBlur result="blur-2" stdDeviation="83.333" in="SourceAlpha"/>
      <feComposite result="composite-2"/>
      <feComposite result="composite-3"/>
      <feComposite result="composite-4"/>
      <feFlood result="flood-2" flood-color="#02d2ff" flood-opacity="0.06"/>
      <feComposite result="composite-5" operator="in" in2="composite-4"/>
      <feBlend result="blend" mode="screen" in2="composite"/>
      <feBlend result="blend-2" in="SourceGraphic"/>
    </filter>
    <filter id="filter-2" x="2853" y="1207" width="170" height="170" filterUnits="userSpaceOnUse">
      <feOffset result="offset" in="SourceAlpha"/>
      <feGaussianBlur result="blur" stdDeviation="7.55"/>
      <feFlood result="flood" flood-color="#00ffde" flood-opacity="0.08"/>
      <feComposite result="composite" operator="in" in2="blur"/>
      <feBlend result="blend" in="SourceGraphic"/>
    </filter>
    <filter id="filter-3" x="2947" y="1014" width="286" height="295" filterUnits="userSpaceOnUse">
      <feOffset result="offset" in="SourceAlpha"/>
      <feGaussianBlur result="blur" stdDeviation="9"/>
      <feFlood result="flood" flood-color="#00ffde" flood-opacity="0.08"/>
      <feComposite result="composite" operator="in" in2="blur"/>
      <feBlend result="blend" in="SourceGraphic"/>
    </filter>
    <linearGradient id="linear-gradient" x1="1571.467" y1="2122.28" x2="1405.153" y2="1967.19" gradientUnits="userSpaceOnUse">
      <stop offset="0" stop-color="#fff"/>
      <stop offset="0.01" stop-color="#fff"/>
      <stop offset="1" stop-color="#ededed"/>
    </linearGradient>
    <linearGradient id="linear-gradient-2" x1="2792.217" y1="2219.34" x2="2625.903" y2="2064.25" xlink:href="#linear-gradient"/>
  </defs>
  <path id="cloud" class="cls-1" d="M3665.05,130.227C3623.89,43.253,3975.56,29.1,3994.26,93.819c89.81-111.242,377.89-64.723,351.7,16.188,198.28-44.5,314.27,26.291,239.44,99.108,224.48,14.157,112.23,141.588,48.63,153.721,71.09,117.3-149.65,133.493-220.72,109.226-37.43,115.28-291.83,66.738-321.76,6.062-134.69,125.408-295.57,28.315-295.57-6.062-202.02,42.471-295.55-22.251-269.38-70.794-157.12-2.023-183.3-111.249-59.84-143.611C3343.3,172.706,3545.32,85.732,3665.05,130.227Z"/>
  <path id="cloud-2" data-name="cloud" class="cls-2" d="M493.8,350.429c-40.664-70.2,306.783-81.625,325.259-29.386,88.726-89.786,373.352-52.239,347.482,13.066,195.89-35.919,310.49,21.221,236.56,79.993,221.78,11.426,110.88,114.279,48.04,124.072,70.24,94.679-147.85,107.745-218.07,88.159-36.98,93.045-288.319,53.865-317.89,4.893-133.074,101.219-292.02,22.853-292.02-4.893-199.595,34.279-292-17.96-266.147-57.139C201.78,567.56,175.907,479.4,297.887,453.282,175.907,384.715,375.5,314.517,493.8,350.429Z"/>
  <path id="cloud-3" data-name="cloud" class="cls-1" d="M-449.142,920.8c-28.9-61.085,218.058-71.028,231.191-25.57C-154.885,817.1,47.422,849.769,29.033,906.6c139.242-31.256,220.7,18.465,168.147,69.607,157.642,9.943,78.815,99.447,34.15,107.967,49.922,82.38-105.092,93.75-155,76.71-26.285,80.97-204.936,46.87-225.955,4.26-94.587,88.08-207.565,19.88-207.565-4.26-141.869,29.83-207.553-15.63-189.174-49.72-110.337-1.42-128.728-78.14-42.026-100.86C-675.1,950.632-533.225,889.547-449.142,920.8Z"/>
  <ellipse class="cls-3" cx="3616" cy="806.5" rx="258" ry="252.5"/>
  <path id="cloud-4" data-name="cloud" class="cls-4" d="M1951.33,912.072c-31.66-53.634,238.84-62.364,253.22-22.451,69.08-68.6,290.66-39.913,270.52,9.983,152.51-27.444,241.73,16.212,184.17,61.116,172.66,8.73,86.32,87.31,37.4,94.8,54.68,72.33-115.1,82.32-169.77,67.35-28.79,71.09-224.46,41.16-247.49,3.74-103.6,77.33-227.34,17.46-227.34-3.74-155.39,26.19-227.33-13.72-207.2-43.65-120.85-1.25-140.99-68.61-46.03-88.565C1703.85,938.268,1859.24,884.634,1951.33,912.072Z"/>
  <path id="tree" class="cls-5" d="M4024.32,2679.07l-5.44-7.56c24.73,1.73-17.01-25.52-17.01-25.52-17.09-8.35-13.46-9.51-19.15-12.75-14.89-8.5-40.25-24.3-31.29-16.86-5.19-4.3-26.17-6.53-26.17-6.53s-12.37,3.65-12.66-3.14-5.69-15.66-5.69-15.66l-11.62-4.06c1.04-5.72.23-13.7-2.04-21.1,6.56,1.45,12.09,3.93,15.42,8.07,15.89,19.75,20.17,2.55,4.41-13.81l33.41,18.99-0.59-13.58,31.04,22.48,33.1,12.19s-5.45-9.96-26.04-22.71c-20.59-12.73-54-31.72-54-31.72s-52.96-7.93-61.05-21.19a120.887,120.887,0,0,0-11.28-14.86c25.48,8.5,51.84,15.69,51.84,15.69l-34.24-18.95-43.77-23.74-22.07-21.4c-4.03-11.24-4.13-20.93-2.59-28.86,0.61,1.93,1.22,3.84,1.82,5.67a31.663,31.663,0,0,0,5.66,20.43l9.99-26.38c0.05,0.09.12,0.2,0.17,0.31l-2.42,12.12a46.64,46.64,0,0,1,10.78,17.69c1.55,4.47,2.45.91,3.01-4.91a2.8,2.8,0,0,0,1.26.41c3.36,0.21,1.87-10.93-.43-22.05v-0.86l4.74,2.93,5.17,12.29s13.46,46.52,18.9,38.57c0.13-.2.22-0.46,0.33-0.67,3.95,6.9,4.47-5.61,4.21-17.41,3.24,8.33,6.96,15.5,9.72,13.79,2.36-1.48-.76-13.55-5.42-27.69l10.31,5.62s11.07,24.5,17.95,28.74-4.51-27.05-4.51-27.05l24.03,14.86s14.41,24.35,21.09,24.07-9.32-22.31-9.32-22.31l20.79,17.26c15.79,17.47,35.32,5.28,21.69-.93-13.65-6.23-58.66-42.88-58.66-42.88s-24.83-32.97-42.18-48.11c-5.59-4.88-14.78-8.17-24.64-10.42l-8.7-20.41a3.781,3.781,0,0,0,2.28-1.53l22.05,17.14,9.72-7.22,9.12,17.77,13.72,8.48-0.78-18.12a42.215,42.215,0,0,1,12.27,13.09c5.39,8.84,18.82,10.53,18.82,10.53l-17.98-30.91,0.06,0.03,12.14,12.97c15.69,15.22,25.4,7.98,25.4,7.98l-11.07-24.48s-32.57-19.02-54.53-24.9c-15.15-4.03-54.84-43.66-78.04-67.92,0.02-4.1-.22-18.05-4.18-27.95,10.19,4.4,25.45,12.71,25.61,23.04,0.28,15.53,39.44,4.35,39.44,4.35l-16.05-23.15s20.32,5.95,27.98,9.02c7.64,3.07,17.65,2.64,17.65,2.64s-31.19-25.9-43.85-28.76c-9.52-2.14-50.78-51.04-70.7-75.17l-8.88-26.94-12.07-47.15s-13,27.8-10.63,43.58c2.35,15.8-24.97,60.38-24.97,60.38s-30.51,28.57-47.08,31.54c-16.58,2.99-32.46,21.83-32.46,21.83s-14.55,11.98-22.97,10.07c-8.44-1.9-16.27,9.79,1.97,6.73,13.36-2.24,21.3-4.24,24.63-5.15a3.526,3.526,0,0,0,.54,1.04l-16.16,19.61s10-.43,21.3-10c11.26-9.56,17.75-14.39,17.75-14.39l-8.85,27.63s13.34-.59,17.97-9.85c4.62-9.28,15.7-23.38,15.7-23.38l9.32,22.29,29.27-3.36c-0.93,6.17-2.32,8.72-2.32,8.72s-58.25,43.37-78.09,48.77l-44.52,13.27-28.85,28.48s-1.16,11.41,11.87,4.04l14.52-11.98s-22.27,25.93-10.69,23.17c11.57-2.79,22.66-16.88,22.66-16.88l16.48-5.24-0.44.9a7.5,7.5,0,0,0-1.16,2.31l-12.24,24.62s14.92-2.92,22.75-14.61c7.85-11.67,14.42-14.24,14.42-14.24l5.21,4.33-10.79,20.88s9.72-7.22,17.76-14.38c2.92-2.6,13.4-3.43,25.55-3.43-5.88,7.71-16.7,15.38-16.15,28-6.97-1.81-7.45,8.54-18.82,9.03,0,0-57.77,16.11-67.38,25.61,0,0-15.31-6.14-31.78-.91-16.48,5.26-4.41,13.81,5.59,13.38l-19.53,12.19s-36.89,35.64-10.39,29.96l19.22-18.98s-5.98,16.14,8.63,6.43l19.23-18.98-7.06,29.81s13.14-5.11,12.74-14.17l10.9-18.64s-1.68,38.66,2.84,27.12,10.6-25.43,10.6-25.43,2.54,20.33,10.69,15.43c8.14-4.88,4.31-16.07,4.31-16.07l14.63-9.72,12.64,22.17s5.98-16.15,12.46-20.97a26.211,26.211,0,0,1,13.14-5.1l4.18,5.19-1.19,3.62c-19.06,5.69-25.33,25.09-25.33,25.09l0.41,4.84c-65.68,17.92-100.36,36.52-110.71,42.73-16.27,9.78-40.11,38.04-40.11,38.04s-19.13,21.26-7.46,20.76,16.08-14.32,16.08-14.32l17.86-12.1-11.97,32.28s20.89-19.04,22.18-28.19c1.26-9.14,16.08-14.32,16.08-14.32l-1.86,34.13s3.24-2.4,11.17-11.83c7.95-9.43,7.26-25.28,12.27-25.5s18.14-5.32,18.14-5.32l-4.07,16.87a6.015,6.015,0,0,0-3.48,1.62c-11.26,10.14-18.27,12.14-18.27,12.14s-5.86,9.33-10.66,14.07c8.28-8.17-27.2,8.54-29.04,23.95-0.97,8.02-5.1-2.05-21.39,7.74,0,0-24.54,21.49-4.64,18.35l-17.45,21.19s-36.4,46.97-23.06,46.39,22.37-23.67,22.37-23.67-5.9,18.42,7.55,20.11,25.59-26.07,25.59-26.07l18.15-22.42c0.01,0.57.02,1.13,0.05,1.67-2.66,9.1-10.35,38.21.83,35.82,13.24-2.86,5.2-34.28,20.01-39.47,14.81-5.17,31.01-17.22,31.01-17.22s-10.12,36.76-2.16,27.34c7.94-9.43,24.83-44.21,33.16-44.56,8.32-.37-7.86,50.27,23.82,10.32,15.61-19.66,20.76-27.31,22.01-30.02l23.69,5.36c1.15,2.81,2.36,5.61,3.56,8.39l-17,9.71s-4.15-1.24-5.47,8.75-9.23,10.74-9.23,10.74-2.08,8.07-6.15,13.83c6.1-8.62-19.22,11.62-26,17.09a133.319,133.319,0,0,0-17.73,6.92s-8.89,10.23-9.68,16.75c-3.46,2.57-6.8,4.93-9.69,6.93-10.58,1.64-24.28,5.19-35.64,13.04l-30.52,33.85-26.59,20.91s-27.01,45.81,10.98,15.08l19.16-25.51,14.89,2.12-23.41,25.52s-29.67,38.35,14.07,3.93c13.29-10.45,24.23-27.3,24.23-27.3l16.55-7.96c-9.04,17.76-20.37,42.14-15,43.64,8.51,2.38,19.32-29.11,19.32-29.11s-7.79,25.43.25,31.15,12.36-30.87,12.36-30.87l4.11-3.33a68.313,68.313,0,0,0,8.25,9.43c-0.05,9.73.99,19.99,5.73,19.49,8.94-.95,13.25-40.44,23.71-44.42,0.31-.12.62-0.31,0.95-0.45,1.83,10.45,4.65,21.42,8.9,27.19-6.45,22.14-16.92,60.78-12.4,63.09,6.36,3.21,13.67-36.62,13.67-36.62s-5.2,32.19.91,39.64c6.1,7.47,15.52-40.02,15.52-40.02l12.04-37.43s-8.56,45.26-1.94,44.26,7.2-28.16,14.86-33c7.67-4.81,5-.2,5-0.2s-1.1,36.67,3.88,21.8c2.78-8.32,5.53-22.95,8.07-33.93l5.72,16.19,2.92-1.02c1.34,12.88,4.37,18.25,13.92-16.45,7.59-27.55,9.71-36.17,9.71-36.17l4.16-1.22,5.53,51.31s-0.02,57.88,3.81,88.35-14.84,159.25-14.84,159.25c4.73,2.03,8.98,3.53,13.01,4.82,1.22,5.25,5.56,12.45,20.99,8.76a15.629,15.629,0,0,0,8.32-5.32c17.65-3.28,19.04-18.57,19.04-18.57s-9.73-109.65-7.68-119.96c2.07-10.31-10.13-118.73-10.13-118.73l-0.79-18.29c12.38,21.14,1.85-33.97,6.49-34.16,5.39-.24,19.43,50.24,25.4,63.59,5.97,13.37-3.92-40.69-3.92-40.69s11.51,16.54,21.49,22.91c10,6.38,7.75,54.13,16.51,57.16s-3.57-57.72-3.57-57.72l14.38,33.42s10.4,40.42,18.86,36.65c8.48-3.78,2.99-30.78,2.99-30.78s7.93,33.71,16.53,33.36c8.63-.39-19.07-67.28-19.07-67.28l-13.18-30.08c13.08,2.84,10.04-30.23-1.33-43.37a8.779,8.779,0,0,0-6.33-3.31c-0.95-2.71-1.62-4.57-1.62-4.57s17.16,10.62,32.37,14.5,9.89,35.89,23.33,37.57c13.44,1.7-3.32-38.43-3.32-38.43l20.99,21.78s14.5,26.62,27.74,23.78,5.81-20.68,5.81-20.68,10.97,22.21,24.31,21.64-26.96-44.21-26.96-44.21l-19.24-19.62c7.53,0.53,11.75-2.21,13.2-6.31,8.27,9.47,6.29,32.5,17.65,33.93,13.45,1.69-3.32-38.45-3.32-38.45l20.98,21.8s14.51,26.6,27.75,23.77,5.8-20.68,5.8-20.68,10.98,22.23,24.32,21.65C4064.64,2722.73,4024.32,2679.07,4024.32,2679.07Z"/>
  <path id="tree-2" data-name="tree" class="cls-6" d="M1282.79,2671.9l-5.35-7.45c24.36,1.7-16.76-25.16-16.76-25.16-16.83-8.22-13.26-9.37-18.87-12.56-14.67-8.38-39.64-23.95-30.82-16.62-5.11-4.24-25.78-6.44-25.78-6.44s-12.19,3.6-12.47-3.1c-0.3-6.7-5.61-15.42-5.61-15.42l-11.45-4.01c1.03-5.64.23-13.5-2-20.8,6.46,1.43,11.91,3.87,15.19,7.96,15.65,19.46,19.86,2.51,4.34-13.61l32.91,18.71-0.58-13.39,30.58,22.17,32.61,12.01s-5.37-9.82-25.65-22.39c-20.29-12.54-53.2-31.26-53.2-31.26s-52.17-7.82-60.14-20.89a119.268,119.268,0,0,0-11.11-14.64c25.1,8.37,51.07,15.46,51.07,15.46l-33.73-18.68-43.12-23.39-21.75-21.1c-3.96-11.08-4.06-20.63-2.54-28.44,0.59,1.9,1.19,3.78,1.79,5.58a31.178,31.178,0,0,0,5.57,20.14l9.85-26a2.85,2.85,0,0,1,.16.3l-2.38,11.95a46,46,0,0,1,10.62,17.43c1.53,4.41,2.41.91,2.96-4.83a2.872,2.872,0,0,0,1.24.4c3.31,0.21,1.84-10.77-.42-21.73v-0.85l4.67,2.89,5.09,12.11s13.26,45.85,18.62,38.01a4.9,4.9,0,0,0,.32-0.65c3.9,6.8,4.41-5.53,4.16-17.16,3.19,8.2,6.85,15.28,9.57,13.59,2.32-1.46-.75-13.35-5.34-27.29l10.16,5.54s10.9,24.14,17.68,28.32-4.45-26.66-4.45-26.66l23.68,14.65s14.2,24,20.77,23.72-9.18-21.99-9.18-21.99l20.48,17.01c15.56,17.23,34.79,5.21,21.37-.91-13.45-6.14-57.79-42.26-57.79-42.26s-24.45-32.5-41.54-47.43c-5.51-4.81-14.57-8.05-24.28-10.27l-8.57-20.12a3.767,3.767,0,0,0,2.25-1.5l21.71,16.9,9.58-7.13,8.99,17.52,13.51,8.36-0.76-17.86a41.506,41.506,0,0,1,12.08,12.9c5.3,8.71,18.54,10.38,18.54,10.38l-17.71-30.46a0.076,0.076,0,0,1,.05.02l11.97,12.79c15.45,14.99,25.02,7.86,25.02,7.86l-10.91-24.12s-32.08-18.75-53.72-24.55c-14.92-3.98-54.02-43.04-76.88-66.95,0.02-4.03-.21-17.79-4.11-27.55,10.03,4.34,25.07,12.53,25.23,22.72,0.27,15.3,38.85,4.28,38.85,4.28l-15.81-22.82s20.01,5.87,27.56,8.89c7.53,3.03,17.39,2.61,17.39,2.61s-30.72-25.53-43.2-28.35c-9.37-2.11-50.02-50.31-69.64-74.1l-8.75-26.55-11.89-46.47s-12.81,27.4-10.48,42.95c2.32,15.57-24.586,59.51-24.586,59.51s-30.058,28.16-46.38,31.1-31.982,21.52-31.982,21.52-14.327,11.8-22.629,9.92-16.023,9.65,1.942,6.63c13.159-2.21,20.987-4.18,24.261-5.07a3.558,3.558,0,0,0,.539,1.02l-15.917,19.33s9.851-.42,20.975-9.86c11.1-9.42,17.484-14.18,17.484-14.18l-8.712,27.23s13.141-.58,17.7-9.7c4.547-9.16,15.466-23.05,15.466-23.05l9.182,21.97,28.837-3.31c-0.916,6.08-2.289,8.6-2.289,8.6s-57.385,42.74-76.923,48.07l-43.863,13.07L846.931,2373s-1.15,11.24,11.693,3.98l14.3-11.81S850.99,2390.73,862.4,2388s22.324-16.63,22.324-16.63l16.234-5.17-0.44.9a7.074,7.074,0,0,0-1.138,2.27l-12.063,24.27s14.7-2.88,22.418-14.4,14.2-14.05,14.2-14.05l5.135,4.28-10.632,20.58s9.569-7.11,17.49-14.18c2.88-2.56,13.207-3.38,25.176-3.38-5.8,7.61-16.451,15.16-15.912,27.6-6.87-1.78-7.345,8.42-18.54,8.9,0,0-56.911,15.88-66.38,25.24,0,0-15.079-6.05-31.308-.89-16.227,5.19-4.341,13.61,5.509,13.19l-19.237,12.01S778.9,2493.67,805,2488.08l18.934-18.72s-5.892,15.91,8.5,6.34l18.939-18.71-6.952,29.38s12.948-5.03,12.549-13.96l10.737-18.37s-1.649,38.11,2.8,26.73,10.443-25.07,10.443-25.07,2.5,20.05,10.526,15.21c8.025-4.81,4.254-15.84,4.254-15.84l14.4-9.57,12.456,21.84s5.891-15.92,12.274-20.67a25.782,25.782,0,0,1,12.949-5.02l4.112,5.11-1.167,3.57c-18.78,5.61-24.959,24.73-24.959,24.73l0.4,4.77c-64.7,17.67-98.866,36-109.058,42.12-16.028,9.64-39.515,37.5-39.515,37.5s-18.839,20.95-7.346,20.46,15.842-14.11,15.842-14.11l17.6-11.94-11.8,31.83s20.582-18.78,21.85-27.79c1.249-9.01,15.84-14.11,15.84-14.11l-1.83,33.64s3.192-2.38,11.007-11.67c7.833-9.29,7.152-24.92,12.081-25.13s17.877-5.25,17.877-5.25l-4.013,16.63a5.921,5.921,0,0,0-3.427,1.6c-11.089,9.99-17.994,11.96-17.994,11.96s-5.774,9.2-10.508,13.87c8.155-8.05-26.8,8.43-28.6,23.61-0.956,7.91-5.028-2.02-21.074,7.63,0,0-24.172,21.19-4.565,18.09l-17.2,20.88s-35.854,46.3-22.718,45.73,22.037-23.33,22.037-23.33-5.809,18.15,7.44,19.82,25.21-25.7,25.21-25.7l17.878-22.1c0.012,0.56.023,1.12,0.046,1.65-2.616,8.97-10.2,37.67.822,35.31,13.042-2.82,5.122-33.79,19.714-38.91,14.591-5.09,30.544-16.96,30.544-16.96s-9.968,36.23-2.124,26.93c7.821-9.29,24.454-43.57,32.662-43.91,8.2-.37-7.739,49.55,23.462,10.17,15.385-19.38,20.459-26.92,21.685-29.59l23.34,5.28c1.132,2.77,2.318,5.54,3.509,8.27l-16.752,9.57s-4.088-1.21-5.391,8.63-9.088,10.58-9.088,10.58-2.048,7.96-6.056,13.64c6.008-8.5-18.938,11.45-25.615,16.85a129.667,129.667,0,0,0-17.466,6.81s-8.76,10.08-9.54,16.51c-3.4,2.53-6.7,4.86-9.54,6.83-10.42,1.62-23.92,5.11-35.109,12.86l-30.069,33.36-26.191,20.61s-26.613,45.15,10.819,14.87l18.875-25.15,14.667,2.09-23.063,25.16s-29.231,37.79,13.864,3.87c13.089-10.3,23.867-26.92,23.867-26.92l16.3-7.83c-8.912,17.5-20.065,41.53-14.778,43.01,8.378,2.35,19.026-28.7,19.026-28.7s-7.673,25.08.248,30.71,12.179-30.43,12.179-30.43l4.048-3.28a67.068,67.068,0,0,0,8.126,9.29c-0.052,9.6.981,19.71,5.65,19.22,8.807-.94,13.049-39.87,23.352-43.79,0.3-.12.61-0.3,0.932-0.44,1.807,10.3,4.583,21.11,8.772,26.79-6.354,21.83-16.669,59.91-12.215,62.19,6.266,3.17,13.465-36.09,13.465-36.09s-5.123,31.72.9,39.07c6.008,7.37,15.284-39.45,15.284-39.45l11.87-36.89s-8.432,44.61-1.919,43.63,7.1-27.76,14.639-32.53c7.556-4.74,4.927-.2,4.927-0.2s-1.085,36.14,3.826,21.49c2.74-8.2,5.445-22.63,7.95-33.44l5.633,15.95,2.874-1c1.327,12.69,4.307,17.98,13.717-16.22,7.473-27.15,9.553-35.65,9.553-35.65l4.11-1.2,5.45,50.58s-0.02,57.04,3.75,87.08-14.62,156.97-14.62,156.97a135.65,135.65,0,0,0,12.82,4.74c1.2,5.18,5.47,12.28,20.67,8.65a15.413,15.413,0,0,0,8.2-5.25c17.38-3.23,18.76-18.3,18.76-18.3s-9.59-108.09-7.58-118.25c2.05-10.16-9.97-117.03-9.97-117.03l-0.78-18.02c12.19,20.83,1.82-33.49,6.39-33.67,5.31-.24,19.15,49.51,25.03,62.68s-3.86-40.11-3.86-40.11,11.33,16.3,21.17,22.58,7.63,53.36,16.26,56.34-3.52-56.9-3.52-56.9l14.17,32.95s10.24,39.84,18.57,36.13c8.36-3.73,2.96-30.34,2.96-30.34s7.8,33.23,16.28,32.87c8.5-.37-18.79-66.31-18.79-66.31l-12.98-29.65c12.88,2.8,9.88-29.79-1.32-42.75a8.606,8.606,0,0,0-6.23-3.26c-0.93-2.67-1.6-4.5-1.6-4.5s16.91,10.46,31.89,14.29,9.75,35.37,22.99,37.03-3.28-37.88-3.28-37.88l20.68,21.47s14.29,26.24,27.33,23.43,5.72-20.38,5.72-20.38,10.81,21.9,23.95,21.33-26.56-43.57-26.56-43.57l-18.95-19.34c7.41,0.52,11.58-2.18,13-6.22,8.15,9.33,6.2,32.03,17.39,33.44,13.25,1.67-3.28-37.9-3.28-37.9l20.68,21.49s14.29,26.22,27.33,23.43c13.06-2.79,5.72-20.38,5.72-20.38s10.81,21.9,23.95,21.34C1322.51,2714.94,1282.79,2671.9,1282.79,2671.9Z"/>
  <path id="tree_copy" data-name="tree copy" class="cls-6" d="M2220.79,2656.9l-5.35-7.45c24.36,1.7-16.76-25.16-16.76-25.16-16.83-8.22-13.26-9.37-18.87-12.56-14.67-8.38-39.64-23.95-30.82-16.62-5.11-4.24-25.78-6.44-25.78-6.44s-12.19,3.6-12.47-3.1c-0.3-6.7-5.61-15.42-5.61-15.42l-11.45-4.01c1.03-5.64.23-13.5-2-20.8,6.46,1.43,11.91,3.87,15.19,7.96,15.65,19.46,19.86,2.51,4.34-13.61l32.91,18.71-0.58-13.39,30.58,22.17,32.61,12.01s-5.37-9.82-25.65-22.39c-20.29-12.54-53.2-31.26-53.2-31.26s-52.17-7.82-60.14-20.89a119.268,119.268,0,0,0-11.11-14.64c25.1,8.38,51.07,15.46,51.07,15.46l-33.73-18.68-43.12-23.39-21.75-21.1c-3.96-11.08-4.06-20.63-2.54-28.44,0.59,1.9,1.19,3.78,1.79,5.58a31.178,31.178,0,0,0,5.57,20.14l9.85-26a2.85,2.85,0,0,1,.16.3l-2.38,11.95a46,46,0,0,1,10.62,17.43c1.53,4.41,2.41.91,2.96-4.83a2.872,2.872,0,0,0,1.24.4c3.31,0.21,1.84-10.77-.42-21.73v-0.85l4.67,2.89,5.09,12.11s13.26,45.85,18.62,38.01a4.9,4.9,0,0,0,.32-0.65c3.9,6.8,4.41-5.53,4.16-17.16,3.19,8.2,6.85,15.28,9.57,13.59,2.32-1.46-.75-13.35-5.34-27.29l10.16,5.54s10.9,24.14,17.68,28.32-4.45-26.66-4.45-26.66l23.68,14.65s14.2,24,20.77,23.72-9.18-21.99-9.18-21.99l20.48,17.01c15.56,17.23,34.79,5.21,21.37-.91-13.45-6.14-57.79-42.26-57.79-42.26s-24.45-32.5-41.54-47.43c-5.51-4.81-14.57-8.05-24.28-10.27l-8.57-20.12a3.724,3.724,0,0,0,2.25-1.5l21.71,16.9,9.58-7.13,8.99,17.52,13.51,8.36-0.76-17.86a41.417,41.417,0,0,1,12.07,12.9c5.31,8.71,18.55,10.38,18.55,10.38l-17.71-30.46a0.076,0.076,0,0,1,.05.02l11.97,12.79c15.45,14.99,25.02,7.86,25.02,7.86l-10.91-24.12s-32.08-18.75-53.72-24.55c-14.92-3.98-54.02-43.04-76.88-66.95,0.02-4.03-.21-17.79-4.11-27.55,10.03,4.34,25.07,12.53,25.23,22.72,0.27,15.3,38.85,4.28,38.85,4.28l-15.81-22.82s20.01,5.87,27.56,8.89c7.53,3.03,17.39,2.61,17.39,2.61s-30.72-25.53-43.2-28.35c-9.37-2.11-50.02-50.31-69.64-74.1l-8.75-26.55-11.89-46.47s-12.81,27.4-10.48,42.95c2.32,15.57-24.59,59.51-24.59,59.51s-30.05,28.16-46.38,31.1-31.98,21.52-31.98,21.52-14.33,11.8-22.63,9.92-16.02,9.65,1.94,6.63c13.16-2.21,20.99-4.18,24.27-5.07a3.535,3.535,0,0,0,.54,1.02l-15.92,19.33s9.85-.42,20.97-9.86c11.1-9.42,17.49-14.18,17.49-14.18l-8.72,27.23s13.15-.58,17.7-9.7c4.55-9.16,15.47-23.05,15.47-23.05l9.18,21.97,28.84-3.31c-0.92,6.08-2.29,8.6-2.29,8.6s-57.38,42.74-76.92,48.07l-43.86,13.07L1784.93,2358s-1.15,11.24,11.69,3.98l14.3-11.81s-21.93,25.56-10.52,22.83c11.39-2.74,22.32-16.63,22.32-16.63l16.23-5.17-0.44.9a7.091,7.091,0,0,0-1.13,2.27l-12.07,24.27s14.7-2.88,22.42-14.4c7.74-11.51,14.21-14.05,14.21-14.05l5.13,4.28-10.63,20.58s9.57-7.11,17.49-14.18c2.88-2.56,13.21-3.38,25.17-3.38-5.79,7.61-16.45,15.16-15.91,27.6-6.87-1.78-7.34,8.42-18.54,8.9,0,0-56.91,15.88-66.38,25.24,0,0-15.08-6.05-31.3-.89-16.23,5.19-4.35,13.61,5.5,13.19l-19.23,12.01s-36.34,35.13-10.24,29.54l18.94-18.72s-5.89,15.91,8.5,6.34l18.94-18.71-6.95,29.38s12.94-5.03,12.55-13.96l10.73-18.37s-1.65,38.11,2.8,26.73,10.44-25.07,10.44-25.07,2.51,20.05,10.53,15.21c8.03-4.81,4.25-15.84,4.25-15.84l14.41-9.57,12.45,21.84s5.89-15.92,12.28-20.67a25.772,25.772,0,0,1,12.95-5.02l4.11,5.11-1.17,3.57c-18.78,5.61-24.96,24.73-24.96,24.73l0.41,4.77c-64.71,17.67-98.87,36-109.06,42.12-16.03,9.64-39.52,37.5-39.52,37.5s-18.84,20.95-7.34,20.46,15.84-14.11,15.84-14.11l17.6-11.94-11.8,31.83s20.58-18.78,21.85-27.79c1.25-9.01,15.84-14.11,15.84-14.11l-1.83,33.64s3.19-2.38,11-11.67c7.84-9.29,7.15-24.92,12.08-25.13s17.88-5.25,17.88-5.25l-4.01,16.63a5.942,5.942,0,0,0-3.43,1.6c-11.09,9.99-17.99,11.96-17.99,11.96s-5.78,9.2-10.51,13.87c8.15-8.05-26.8,8.43-28.6,23.61-0.96,7.91-5.03-2.02-21.08,7.63,0,0-24.17,21.19-4.56,18.09l-17.2,20.88s-35.85,46.3-22.72,45.73c13.15-.58,22.04-23.33,22.04-23.33s-5.81,18.15,7.44,19.82,25.21-25.7,25.21-25.7l17.88-22.1c0.01,0.56.02,1.12,0.04,1.65-2.61,8.97-10.19,37.67.83,35.31,13.04-2.82,5.12-33.79,19.71-38.91,14.59-5.09,30.54-16.96,30.54-16.96s-9.96,36.23-2.12,26.93c7.82-9.29,24.45-43.57,32.66-43.91,8.2-.37-7.74,49.55,23.46,10.17,15.39-19.38,20.46-26.92,21.69-29.59l23.34,5.28c1.13,2.77,2.32,5.54,3.51,8.27l-16.75,9.57s-4.09-1.21-5.4,8.63-9.08,10.58-9.08,10.58-2.05,7.96-6.06,13.64c6.01-8.5-18.94,11.45-25.61,16.85a129.929,129.929,0,0,0-17.47,6.81s-8.76,10.08-9.54,16.51c-3.4,2.54-6.7,4.86-9.54,6.83-10.42,1.62-23.92,5.11-35.11,12.86l-30.07,33.36-26.19,20.61s-26.61,45.15,10.82,14.87l18.87-25.15,14.67,2.09-23.06,25.16s-29.23,37.79,13.86,3.87c13.09-10.3,23.87-26.92,23.87-26.92l16.3-7.83c-8.91,17.5-20.06,41.53-14.77,43.01,8.37,2.35,19.02-28.7,19.02-28.7s-7.67,25.08.25,30.71,12.18-30.43,12.18-30.43l4.05-3.28a66.854,66.854,0,0,0,8.12,9.29c-0.05,9.6.98,19.71,5.65,19.22,8.81-.94,13.05-39.87,23.35-43.79,0.31-.12.62-0.3,0.94-0.44,1.8,10.3,4.58,21.11,8.77,26.79-6.36,21.83-16.67,59.91-12.22,62.19,6.27,3.17,13.47-36.09,13.47-36.09s-5.12,31.72.9,39.07c6,7.37,15.28-39.45,15.28-39.45l11.87-36.89s-8.43,44.61-1.92,43.63,7.1-27.76,14.64-32.53c7.56-4.74,4.93-.2,4.93-0.2s-1.09,36.14,3.82,21.49c2.74-8.2,5.45-22.63,7.95-33.44l5.64,15.95,2.87-1c1.33,12.69,4.31,17.98,13.72-16.22,7.47-27.15,9.55-35.65,9.55-35.65l4.11-1.2,5.45,50.58s-0.02,57.04,3.75,87.08-14.62,156.97-14.62,156.97a135.65,135.65,0,0,0,12.82,4.74c1.2,5.18,5.47,12.28,20.67,8.65a15.413,15.413,0,0,0,8.2-5.25c17.38-3.23,18.76-18.3,18.76-18.3s-9.59-108.09-7.58-118.25c2.05-10.16-9.97-117.03-9.97-117.03l-0.78-18.02c12.19,20.83,1.82-33.49,6.39-33.67,5.31-.24,19.15,49.51,25.03,62.68s-3.86-40.11-3.86-40.11,11.33,16.3,21.17,22.58,7.63,53.36,16.26,56.34-3.52-56.9-3.52-56.9l14.17,32.95s10.24,39.84,18.57,36.13c8.36-3.73,2.96-30.34,2.96-30.34s7.8,33.23,16.28,32.87c8.5-.37-18.79-66.31-18.79-66.31l-12.98-29.65c12.88,2.8,9.88-29.79-1.32-42.75a8.606,8.606,0,0,0-6.23-3.26c-0.93-2.67-1.6-4.5-1.6-4.5s16.91,10.46,31.89,14.29,9.75,35.37,22.99,37.03-3.28-37.88-3.28-37.88l20.68,21.47s14.29,26.24,27.33,23.43,5.72-20.38,5.72-20.38,10.81,21.9,23.95,21.34-26.56-43.58-26.56-43.58l-18.95-19.34c7.41,0.52,11.58-2.18,13-6.22,8.15,9.33,6.2,32.03,17.39,33.44,13.24,1.67-3.28-37.9-3.28-37.9l20.68,21.49s14.29,26.22,27.33,23.43c13.06-2.79,5.72-20.38,5.72-20.38s10.81,21.9,23.95,21.34C2260.51,2699.94,2220.79,2656.9,2220.79,2656.9Z"/>
  <path id="tree-3" data-name="tree" class="cls-6" d="M3199.79,2643.9l-5.35-7.45c24.36,1.7-16.76-25.16-16.76-25.16-16.83-8.22-13.26-9.37-18.87-12.56-14.67-8.38-39.64-23.95-30.82-16.62-5.11-4.24-25.78-6.44-25.78-6.44s-12.19,3.6-12.47-3.1c-0.3-6.7-5.61-15.42-5.61-15.42l-11.45-4.01c1.03-5.64.23-13.5-2-20.8,6.46,1.43,11.91,3.87,15.19,7.96,15.65,19.46,19.86,2.51,4.34-13.61l32.91,18.71-0.58-13.39,30.58,22.17,32.61,12.01s-5.37-9.82-25.65-22.39c-20.29-12.54-53.2-31.26-53.2-31.26s-52.17-7.82-60.14-20.89a119.268,119.268,0,0,0-11.11-14.64c25.1,8.37,51.07,15.46,51.07,15.46l-33.73-18.68-43.12-23.39-21.75-21.1c-3.96-11.08-4.06-20.63-2.54-28.44,0.59,1.9,1.19,3.78,1.79,5.58a31.178,31.178,0,0,0,5.57,20.14l9.85-26a2.85,2.85,0,0,1,.16.3l-2.38,11.95a46,46,0,0,1,10.62,17.43c1.53,4.41,2.41.91,2.96-4.83a2.872,2.872,0,0,0,1.24.4c3.31,0.21,1.84-10.77-.42-21.73v-0.85l4.67,2.89,5.09,12.11s13.26,45.85,18.62,38.01a4.9,4.9,0,0,0,.32-0.65c3.9,6.8,4.41-5.53,4.16-17.16,3.19,8.2,6.85,15.28,9.57,13.59,2.32-1.46-.75-13.35-5.34-27.29l10.16,5.54s10.9,24.14,17.67,28.32-4.44-26.66-4.44-26.66l23.68,14.65s14.2,24,20.77,23.72-9.18-21.99-9.18-21.99l20.48,17.01c15.56,17.23,34.79,5.21,21.37-.91-13.45-6.14-57.79-42.26-57.79-42.26s-24.45-32.5-41.54-47.43c-5.51-4.81-14.57-8.05-24.28-10.27l-8.57-20.12a3.767,3.767,0,0,0,2.25-1.5l21.71,16.9,9.58-7.13,8.99,17.52,13.51,8.36-0.76-17.86a41.506,41.506,0,0,1,12.08,12.9c5.3,8.71,18.54,10.38,18.54,10.38l-17.71-30.46a0.076,0.076,0,0,1,.05.02l11.97,12.79c15.45,14.99,25.02,7.86,25.02,7.86l-10.91-24.12s-32.08-18.75-53.72-24.55c-14.92-3.98-54.02-43.04-76.88-66.95,0.02-4.03-.21-17.79-4.11-27.55,10.03,4.34,25.07,12.53,25.23,22.72,0.27,15.3,38.85,4.28,38.85,4.28l-15.81-22.82s20.01,5.87,27.56,8.89c7.53,3.03,17.39,2.61,17.39,2.61s-30.72-25.53-43.2-28.35c-9.37-2.11-50.02-50.31-69.64-74.1l-8.75-26.55-11.89-46.47s-12.81,27.39-10.48,42.95-24.59,59.51-24.59,59.51-30.05,28.16-46.38,31.1-31.98,21.52-31.98,21.52-14.33,11.8-22.63,9.92-16.02,9.65,1.94,6.63c13.16-2.21,20.99-4.18,24.27-5.07a3.535,3.535,0,0,0,.54,1.02l-15.92,19.33s9.85-.42,20.97-9.86c11.1-9.42,17.49-14.18,17.49-14.18l-8.72,27.23s13.15-.58,17.7-9.7c4.55-9.16,15.47-23.05,15.47-23.05l9.18,21.97,28.84-3.31c-0.92,6.08-2.29,8.6-2.29,8.6s-57.38,42.74-76.92,48.07l-43.86,13.07L2763.93,2345s-1.15,11.24,11.69,3.97l14.3-11.8s-21.93,25.56-10.52,22.83c11.39-2.74,22.32-16.63,22.32-16.63l16.23-5.17-0.44.9a7.091,7.091,0,0,0-1.13,2.27l-12.07,24.27s14.7-2.88,22.42-14.4c7.74-11.51,14.21-14.05,14.21-14.05l5.13,4.28-10.63,20.58s9.57-7.11,17.49-14.18c2.88-2.56,13.21-3.38,25.17-3.38-5.79,7.61-16.45,15.16-15.91,27.6-6.87-1.78-7.34,8.42-18.54,8.9,0,0-56.91,15.88-66.38,25.24,0,0-15.08-6.05-31.3-.89-16.23,5.19-4.35,13.61,5.5,13.19l-19.23,12.01s-36.34,35.13-10.24,29.54l18.94-18.72s-5.89,15.91,8.5,6.34l18.94-18.71-6.95,29.38s12.94-5.03,12.55-13.96l10.73-18.37s-1.65,38.11,2.8,26.73,10.44-25.07,10.44-25.07,2.51,20.05,10.53,15.21c8.03-4.81,4.25-15.84,4.25-15.84l14.41-9.57,12.45,21.84s5.89-15.92,12.28-20.67a25.772,25.772,0,0,1,12.95-5.02l4.11,5.11-1.17,3.57c-18.78,5.61-24.96,24.73-24.96,24.73l0.41,4.77c-64.71,17.67-98.87,36-109.06,42.12-16.03,9.64-39.52,37.5-39.52,37.5s-18.83,20.95-7.34,20.46,15.84-14.11,15.84-14.11l17.6-11.94-11.8,31.83s20.58-18.78,21.85-27.79c1.25-9.01,15.84-14.11,15.84-14.11l-1.83,33.64s3.19-2.38,11-11.67c7.84-9.29,7.15-24.92,12.08-25.13s17.88-5.25,17.88-5.25l-4.01,16.63a5.942,5.942,0,0,0-3.43,1.6c-11.09,9.99-17.99,11.96-17.99,11.96s-5.78,9.2-10.51,13.87c8.15-8.05-26.8,8.43-28.6,23.61-0.96,7.91-5.03-2.02-21.08,7.63,0,0-24.17,21.19-4.56,18.09l-17.2,20.88s-35.85,46.3-22.72,45.73c13.15-.58,22.04-23.33,22.04-23.33s-5.81,18.15,7.44,19.82,25.21-25.7,25.21-25.7l17.88-22.1c0.01,0.56.02,1.12,0.04,1.65-2.61,8.97-10.19,37.67.83,35.31,13.04-2.82,5.12-33.79,19.71-38.91,14.59-5.09,30.54-16.96,30.54-16.96s-9.96,36.23-2.12,26.93c7.82-9.29,24.45-43.57,32.66-43.91,8.2-.37-7.74,49.55,23.46,10.17,15.39-19.38,20.46-26.92,21.69-29.59l23.34,5.28c1.13,2.77,2.32,5.54,3.51,8.27l-16.75,9.57s-4.09-1.21-5.4,8.63-9.08,10.58-9.08,10.58-2.05,7.96-6.06,13.64c6.01-8.5-18.94,11.45-25.61,16.85a129.929,129.929,0,0,0-17.47,6.81s-8.76,10.08-9.54,16.51c-3.4,2.54-6.69,4.86-9.54,6.83-10.42,1.62-23.92,5.11-35.11,12.86l-30.07,33.36-26.19,20.61s-26.61,45.15,10.82,14.87l18.87-25.15,14.67,2.09-23.06,25.16s-29.23,37.79,13.86,3.87c13.09-10.3,23.87-26.92,23.87-26.92l16.3-7.83c-8.91,17.5-20.06,41.53-14.77,43.01,8.37,2.35,19.02-28.7,19.02-28.7s-7.67,25.08.25,30.71,12.18-30.43,12.18-30.43l4.05-3.28a66.854,66.854,0,0,0,8.12,9.29c-0.05,9.6.98,19.71,5.65,19.22,8.81-.94,13.05-39.87,23.35-43.79,0.31-.12.62-0.3,0.94-0.44,1.8,10.3,4.58,21.11,8.77,26.79-6.36,21.83-16.67,59.91-12.22,62.19,6.27,3.17,13.47-36.09,13.47-36.09s-5.12,31.72.9,39.07c6,7.37,15.28-39.45,15.28-39.45l11.87-36.89s-8.43,44.61-1.92,43.63,7.1-27.76,14.64-32.53c7.56-4.74,4.93-.2,4.93-0.2s-1.09,36.14,3.82,21.49c2.74-8.2,5.45-22.63,7.95-33.44l5.64,15.95,2.87-1c1.33,12.69,4.31,17.98,13.72-16.22,7.47-27.15,9.55-35.65,9.55-35.65l4.11-1.2,5.45,50.58s-0.02,57.04,3.75,87.08-14.62,156.97-14.62,156.97a135.65,135.65,0,0,0,12.82,4.74c1.2,5.18,5.47,12.28,20.67,8.65a15.413,15.413,0,0,0,8.2-5.25c17.38-3.23,18.76-18.3,18.76-18.3s-9.59-108.09-7.58-118.25c2.05-10.16-9.97-117.03-9.97-117.03l-0.78-18.02c12.19,20.83,1.82-33.49,6.39-33.67,5.31-.24,19.15,49.51,25.03,62.68s-3.86-40.11-3.86-40.11,11.33,16.3,21.17,22.58,7.63,53.36,16.26,56.34-3.52-56.9-3.52-56.9l14.17,32.95s10.24,39.84,18.57,36.13c8.36-3.73,2.96-30.34,2.96-30.34s7.8,33.23,16.28,32.87c8.5-.37-18.79-66.31-18.79-66.31l-12.98-29.65c12.88,2.8,9.88-29.79-1.32-42.75a8.606,8.606,0,0,0-6.23-3.26c-0.93-2.67-1.6-4.5-1.6-4.5s16.91,10.46,31.89,14.29,9.75,35.37,22.99,37.03-3.28-37.88-3.28-37.88l20.68,21.47s14.29,26.24,27.33,23.43,5.72-20.38,5.72-20.38,10.81,21.9,23.95,21.33-26.56-43.57-26.56-43.57l-18.95-19.34c7.41,0.52,11.58-2.18,13-6.22,8.15,9.33,6.2,32.03,17.39,33.44,13.24,1.67-3.28-37.9-3.28-37.9l20.68,21.49s14.29,26.22,27.33,23.43c13.06-2.79,5.72-20.38,5.72-20.38s10.81,21.9,23.95,21.34C3239.51,2686.94,3199.79,2643.9,3199.79,2643.9Z"/>
  <circle id="Ellipse_2_copy" data-name="Ellipse 2 copy" class="cls-7" cx="2937.5" cy="1291.5" r="26.5"/>
  <ellipse class="cls-8" cx="3089.5" cy="1161" rx="60.5" ry="65"/>
  <g id="snow_flakes" data-name="snow flakes" class="cls-9">
    <path class="cls-10" d="M1611.12,584.883l-4.71-8.176h-20.86l9.09-15.759-4.71-8.178h-9.44l-13.81,23.937H1535.8l15.44-26.766h27.62l4.71-8.179-4.71-8.176h-18.19l10.43-18.072-4.71-8.176h-9.44l-10.43,18.072-9.09-15.759H1528l-4.72,8.176,13.81,23.935-15.44,26.766-15.45-26.766,13.81-23.935-4.71-8.176h-9.44l-9.09,15.759-10.43-18.072h-9.43l-4.72,8.176,10.43,18.072h-18.19l-4.71,8.176,4.71,8.179h27.62l15.44,26.766-30.88,0L1462.8,552.77h-9.43l-4.72,8.178,9.09,15.757h-20.85l-4.72,8.178,4.72,8.176h20.85l-9.09,15.759,4.72,8.179,9.43,0,13.81-23.936h30.88l-15.44,26.766h-27.62L1459.72,628l4.71,8.177h18.19l-10.43,18.072,4.72,8.179h9.43l10.43-18.075,9.09,15.761h9.44l4.71-8.179L1506.2,628l15.45-26.766L1537.09,628l-13.81,23.935,4.72,8.179h9.43l9.09-15.759,10.43,18.073h9.44l4.71-8.177-10.43-18.074h18.19l4.72-8.177-4.72-8.176h-27.62l-15.44-26.766h30.88L1580.49,617h9.44l4.71-8.177-9.09-15.759h20.86Z"/>
    <path id="Shape_1_copy" data-name="Shape 1 copy" class="cls-10" d="M2987.35,1672.24l-4.71-8.17h-20.86l9.09-15.76-4.71-8.18h-9.44l-13.81,23.94h-30.88l15.44-26.77h27.62l4.72-8.18-4.72-8.17h-18.18l10.42-18.08-4.71-8.17h-9.44l-10.42,18.07-9.1-15.76h-9.43l-4.72,8.18,13.81,23.93-15.44,26.77-15.44-26.77,13.8-23.93-4.71-8.18h-9.44l-9.09,15.76-10.43-18.07h-9.43l-4.72,8.17,10.43,18.08h-18.19l-4.71,8.17,4.71,8.18h27.62l15.45,26.77h-30.89l-13.81-23.94h-9.43l-4.72,8.18,9.09,15.76h-20.85l-4.72,8.17,4.72,8.18h20.85l-9.09,15.76,4.72,8.18h9.43l13.81-23.94h30.89l-15.45,26.77h-27.62l-4.71,8.17,4.71,8.18h18.19l-10.43,18.07,4.72,8.18h9.43l10.43-18.08,9.09,15.77h9.44l4.72-8.18-13.81-23.94,15.44-26.76,15.44,26.76-13.81,23.94,4.72,8.18h9.43l9.09-15.76,10.43,18.07h9.44l4.71-8.18-10.42-18.07h18.18l4.72-8.18-4.72-8.17h-27.62l-15.44-26.77h30.88l13.81,23.94h9.44l4.71-8.18-9.09-15.76h20.86Z"/>
    <path id="Shape_1_copy_2" data-name="Shape 1 copy 2" class="cls-10" d="M549.044,1258.66l-4.717-8.18H523.474l9.09-15.76-4.716-8.18h-9.435L504.6,1250.48H473.72l15.442-26.77h27.617l4.717-8.18-4.717-8.17H498.6l10.429-18.07-4.717-8.18H494.87l-10.424,18.07-9.1-15.76h-9.433l-4.718,8.18,13.808,23.93-15.441,26.77-15.442-26.77,13.808-23.93-4.716-8.18h-9.435l-9.09,15.76-10.429-18.07H414.83l-4.719,8.18,10.427,18.07H402.354l-4.717,8.17,4.717,8.18h27.619l15.442,26.77H414.531l-13.808-23.94h-9.435l-4.719,8.18,9.092,15.76H374.808l-4.719,8.18,4.719,8.17h20.853l-9.092,15.76,4.719,8.18h9.435l13.808-23.94h30.884l-15.442,26.77H402.354l-4.717,8.17,4.717,8.18h18.184l-10.427,18.07,4.717,8.18h9.435l10.429-18.07,9.09,15.76h9.435l4.719-8.18-13.811-23.94,15.442-26.76,15.441,26.76L461.2,1325.71l4.716,8.18h9.433l9.092-15.76,10.427,18.07h9.437l4.717-8.18L498.6,1309.95h18.184l4.719-8.18-4.719-8.17H489.162l-15.442-26.77H504.6l13.809,23.94h9.435l4.716-8.18-9.09-15.76h20.853Z"/>
    <path id="Shape_1_copy_3" data-name="Shape 1 copy 3" class="cls-10" d="M1156.88,975.382l-4.72-8.177h-20.85l9.09-15.759-4.72-8.178h-9.43l-13.81,23.937h-30.89L1097,940.44h27.61l4.72-8.179-4.72-8.176h-18.18l10.43-18.073-4.72-8.176h-9.44l-10.42,18.072-9.09-15.759h-9.44l-4.72,8.177,13.81,23.935-15.44,26.766-15.44-26.766,13.81-23.935-4.72-8.177h-9.43l-9.09,15.759-10.43-18.072h-9.44l-4.71,8.176,10.42,18.073h-18.18l-4.72,8.176,4.72,8.179h27.62l15.44,26.765-30.88,0-13.81-23.935h-9.439l-4.718,8.178,9.087,15.757H982.641l-4.718,8.179,4.718,8.176h20.849L994.4,999.317l4.718,8.183,9.439-.01,13.81-23.932h30.88l-15.44,26.762h-27.62l-4.72,8.18,4.72,8.18h18.18l-10.42,18.07,4.71,8.18h9.44l10.43-18.08,9.09,15.76h9.43l4.72-8.18-13.81-23.93,15.44-26.766,15.44,26.766-13.8,23.93,4.71,8.18h9.44l9.09-15.76,10.42,18.08h9.44l4.72-8.18-10.43-18.07h18.18l4.72-8.18-4.72-8.18H1097l-15.45-26.762h30.89l13.81,23.932h9.43l4.72-8.173-9.09-15.759h20.85Z"/>
    <path class="cls-10" d="M548.327,2046.53l-3.481-6.02H528.857l5.649-9.98-3.374-5.84h-6.75l-8.959,15.82h-6.24l4.792-8.46-3.374-5.84h-6.752l-4.082,7.21L489.58,2015.8l8.3,0.07,3.374-5.84-3.374-5.84-9.731-.09,3.122-5.4,18.19,0.16,3.376-5.84-3.376-5.84-11.476-.1,8-13.84-3.481-6.02h-6.962l-7.994,13.84-5.825-9.88h-6.747l-3.378,5.84,9.235,15.66-3.118,5.4-4.94-8.38h-6.75l-3.373,5.84,4.211,7.14H446.483l4.21-7.14-3.374-5.84h-6.75l-4.938,8.38-3.12-5.4,9.233-15.66-3.374-5.84h-6.752l-5.821,9.88-8-13.84h-6.962l-3.479,6.02,8,13.84-11.474.1-3.373,5.84,3.373,5.84,18.191-.16,3.12,5.4-9.728.09-3.373,5.84,3.373,5.84,8.292-.07-10.182,17.62-4.087-7.21h-6.747l-3.374,5.84,4.789,8.46h-6.242l-8.957-15.82h-6.748l-3.373,5.84,5.649,9.98H368.494l-3.484,6.02,3.484,6.03h15.989l-5.649,9.98,3.373,5.84h6.748l8.957-15.82h6.24l-4.787,8.46,3.374,5.84h6.747l4.087-7.21,10.187,17.62-8.3-.07-3.373,5.84,3.373,5.84,9.728,0.09-3.12,5.4-18.191-.16-3.373,5.84,3.373,5.84,11.474,0.1-8,13.84,3.484,6.02H417.8l8-13.84,5.826,9.88h6.747l3.376-5.84-9.235-15.66,3.12-5.4,4.938,8.37h6.75l3.378-5.83-4.212-7.15h20.371l-4.209,7.14,3.374,5.85h6.749l4.938-8.38,3.118,5.4-9.235,15.66,3.378,5.84h6.747l5.829-9.88,8,13.84H502.5l3.481-6.02-8-13.84,11.476-.1,3.376-5.84-3.376-5.84-18.188.16-3.12-5.4,9.723-.09,3.378-5.84-3.374-5.84-8.3.07,10.187-17.62,4.082,7.21H510.6l3.374-5.84-4.792-8.46h6.24l8.959,15.82h6.75l3.374-5.84-5.649-9.98h15.989Z"/>
    <path id="Shape_1_copy_9" data-name="Shape 1 copy 9" class="cls-10" d="M2050.88,2279.46l-4.72-8.18h-20.85l9.09-15.76-4.72-8.18h-9.43l-13.81,23.94h-30.88l15.44-26.76h27.61l4.72-8.18-4.72-8.18h-18.18l10.43-18.07-4.72-8.18h-9.44l-10.42,18.07-9.09-15.75h-9.44l-4.72,8.17,13.81,23.94-15.44,26.76-15.44-26.76,13.81-23.94-4.72-8.17h-9.43l-9.09,15.75-10.43-18.07h-9.44l-4.71,8.18,10.42,18.07h-18.18l-4.72,8.18,4.72,8.18h27.62l15.44,26.76h-30.88l-13.81-23.94h-9.44l-4.72,8.18,9.1,15.76h-20.86l-4.72,8.18,4.72,8.17h20.86l-9.1,15.76,4.72,8.18h9.44l13.81-23.94h30.88l-15.44,26.77h-27.62l-4.72,8.18,4.72,8.17h18.18l-10.42,18.07,4.71,8.18h9.44l10.43-18.07,9.09,15.76h9.43l4.72-8.18-13.81-23.93,15.44-26.77,15.44,26.77-13.8,23.93,4.71,8.18h9.44l9.09-15.76L1996.7,2357h9.44l4.72-8.17-10.43-18.08h18.18l4.72-8.17-4.72-8.18H1991l-15.44-26.77h30.88l13.81,23.94h9.43l4.72-8.18-9.09-15.76h20.85Z"/>
    <path id="Shape_1_copy_19" data-name="Shape 1 copy 19" class="cls-10" d="M3030.88,2640.46l-4.72-8.18h-20.85l9.09-15.76-4.72-8.18h-9.43l-13.81,23.94h-30.88l15.44-26.76h27.61l4.72-8.18-4.72-8.18h-18.18l10.43-18.07-4.72-8.18h-9.44l-10.42,18.07-9.09-15.75h-9.44l-4.72,8.17,13.81,23.94-15.44,26.76-15.44-26.76,13.81-23.94-4.72-8.17h-9.43l-9.09,15.75-10.43-18.07h-9.44l-4.71,8.18,10.42,18.07h-18.18l-4.72,8.18,4.72,8.18h27.62l15.44,26.76h-30.88l-13.81-23.94h-9.44l-4.72,8.18,9.1,15.76h-20.86l-4.72,8.18,4.72,8.17h20.86l-9.1,15.76,4.72,8.18h9.44l13.81-23.94h30.88l-15.44,26.77h-27.62l-4.72,8.18,4.72,8.17h18.18l-10.42,18.07,4.71,8.18h9.44l10.43-18.07,9.09,15.76h9.43l4.72-8.18-13.81-23.93,15.44-26.77,15.44,26.77-13.8,23.93,4.71,8.18h9.44l9.09-15.76L2976.7,2718h9.44l4.72-8.17-10.43-18.08h18.18l4.72-8.17-4.72-8.18H2971l-15.44-26.77h30.88l13.81,23.94h9.43l4.72-8.18-9.09-15.76h20.85Z"/>
    <path id="Shape_1_copy_20" data-name="Shape 1 copy 20" class="cls-10" d="M1277.88,2640.46l-4.72-8.18h-20.85l9.09-15.76-4.72-8.18h-9.43l-13.81,23.94h-30.88l15.44-26.76h27.61l4.72-8.18-4.72-8.18h-18.18l10.43-18.07-4.72-8.18h-9.44l-10.42,18.07-9.09-15.75h-9.44l-4.72,8.17,13.81,23.94-15.44,26.76-15.44-26.76,13.81-23.94-4.72-8.17h-9.43l-9.09,15.75-10.43-18.07h-9.44l-4.71,8.18,10.42,18.07h-18.18l-4.72,8.18,4.72,8.18h27.62l15.44,26.76h-30.88l-13.81-23.94h-9.44l-4.72,8.18,9.1,15.76h-20.86l-4.72,8.18,4.72,8.17h20.86l-9.1,15.76,4.72,8.18h9.44l13.81-23.94h30.88l-15.44,26.77h-27.62l-4.72,8.18,4.72,8.17h18.18l-10.42,18.07,4.71,8.18h9.44l10.43-18.07,9.09,15.76h9.43l4.72-8.18-13.81-23.93,15.44-26.77,15.44,26.77-13.8,23.93,4.71,8.18h9.44l9.09-15.76L1223.7,2718h9.44l4.72-8.17-10.43-18.08h18.18l4.72-8.17-4.72-8.18H1218l-15.44-26.77h30.88l13.81,23.94h9.43l4.72-8.18-9.09-15.76h20.85Z"/>
    <path id="Shape_1_copy_10" data-name="Shape 1 copy 10" class="cls-10" d="M1067.77,1689l-4.72-8.18H1042.2l9.09-15.75-4.72-8.18h-9.43l-13.81,23.93H992.444l15.446-26.76h27.61l4.72-8.18-4.72-8.18h-18.18l10.43-18.07-4.72-8.17h-9.44l-10.42,18.07-9.095-15.76h-9.433l-4.719,8.17,13.809,23.94-15.442,26.77-15.442-26.77,13.809-23.94-4.717-8.17h-9.435l-9.09,15.76-10.429-18.07h-9.432l-4.719,8.17,10.427,18.07H921.077l-4.716,8.18,4.716,8.18H948.7l15.442,26.76H933.255l-13.809-23.93h-9.435l-4.719,8.18,9.092,15.75H893.531l-4.718,8.18,4.718,8.18h20.853l-9.092,15.76,4.719,8.17h9.435l13.809-23.93h30.883L948.7,1723.94H921.077l-4.716,8.18,4.716,8.18h18.185l-10.427,18.07,4.716,8.18h9.435l10.429-18.08,9.09,15.76h9.435l4.719-8.18-13.811-23.93,15.442-26.77,15.442,26.77-13.807,23.93,4.717,8.18h9.433l9.095-15.76,10.42,18.08h9.44l4.72-8.18-10.43-18.07h18.18l4.72-8.18-4.72-8.18h-27.61l-15.446-26.76h30.886l13.81,23.93h9.43l4.72-8.17-9.09-15.76h20.85Z"/>
    <path id="Shape_1_copy_11" data-name="Shape 1 copy 11" class="cls-11" d="M1577.8,2044.72l-4.72-8.17h-20.85l9.09-15.76-4.72-8.18h-9.43l-13.81,23.94h-30.89l15.45-26.77h27.61l4.72-8.18-4.72-8.17h-18.18l10.43-18.08-4.72-8.17h-9.44l-10.42,18.07-9.1-15.76h-9.43l-4.72,8.18,13.81,23.93-15.44,26.77-15.44-26.77,13.81-23.93-4.72-8.18h-9.44l-9.09,15.76-10.42-18.07h-9.44l-4.72,8.17,10.43,18.08h-18.18l-4.72,8.17,4.72,8.18h27.62l15.44,26.77h-30.89l-13.8-23.94h-9.44l-4.72,8.18,9.09,15.76h-20.85l-4.72,8.17,4.72,8.18h20.85l-9.09,15.76,4.72,8.18h9.44l13.8-23.94h30.89l-15.44,26.77h-27.62l-4.72,8.17,4.72,8.18h18.18l-10.43,18.07,4.72,8.18h9.44l10.42-18.08,9.09,15.77h9.44l4.72-8.18-13.81-23.94,15.44-26.76,15.44,26.76-13.8,23.94,4.71,8.18h9.43l9.1-15.76,10.42,18.07h9.44l4.72-8.18-10.43-18.07h18.18l4.72-8.18-4.72-8.17h-27.61l-15.45-26.77h30.89l13.81,23.94h9.43l4.72-8.18-9.09-15.76h20.85Z"/>
    <path id="Shape_1_copy_12" data-name="Shape 1 copy 12" class="cls-12" d="M2798.54,2141.8l-4.72-8.17h-20.85l9.09-15.76-4.72-8.18h-9.44l-13.8,23.94h-30.89l15.44-26.77h27.62l4.72-8.18-4.72-8.17h-18.18l10.43-18.07-4.72-8.18h-9.44l-10.42,18.07-9.1-15.76h-9.43l-4.72,8.18,13.81,23.93-15.44,26.77-15.44-26.77,13.81-23.93-4.72-8.18h-9.44l-9.09,15.76-10.42-18.07h-9.44l-4.72,8.18,10.43,18.07h-18.18l-4.72,8.17,4.72,8.18h27.62l15.44,26.77h-30.89l-13.81-23.94h-9.43l-4.72,8.18,9.09,15.76H2624.3l-4.72,8.17,4.72,8.18h20.85l-9.09,15.76,4.72,8.18h9.43l13.81-23.94h30.89l-15.44,26.77h-27.62l-4.72,8.17,4.72,8.18h18.18l-10.43,18.07,4.72,8.18h9.44l10.42-18.07,9.09,15.76h9.44l4.72-8.18-13.81-23.94,15.44-26.76,15.44,26.76-13.81,23.94,4.72,8.18h9.43l9.1-15.76,10.42,18.07h9.44l4.72-8.18-10.43-18.07h18.18l4.72-8.18-4.72-8.17h-27.62l-15.44-26.77h30.89l13.8,23.94h9.44l4.72-8.18-9.09-15.76h20.85Z"/>
    <path id="Shape_2_copy_7" data-name="Shape 2 copy 7" class="cls-10" d="M2563.09,1797.31l-3.48-6.02h-15.99l5.65-9.98-3.38-5.84h-6.75l-8.95,15.82h-6.24l4.79-8.46-3.38-5.84h-6.75l-4.08,7.21-10.19-17.63,8.3,0.07,3.37-5.84-3.37-5.83-9.73-.09,3.12-5.4,18.19,0.16,3.37-5.84-3.37-5.84-11.48-.1,8-13.84-3.48-6.02h-6.96l-8,13.83-5.82-9.88h-6.75l-3.38,5.84,9.24,15.67-3.12,5.4-4.94-8.38h-6.75l-3.37,5.84,4.21,7.14h-20.37l4.2-7.14-3.37-5.84h-6.75l-4.94,8.38-3.12-5.4,9.24-15.66-3.38-5.85h-6.75l-5.82,9.88-8-13.83h-6.96l-3.48,6.02,8,13.84-11.48.1-3.37,5.84,3.37,5.84,18.19-.16,3.12,5.4-9.72.09-3.38,5.83,3.38,5.84,8.29-.07-10.18,17.63-4.09-7.21h-6.75l-3.37,5.84,4.79,8.46h-6.25l-8.95-15.82h-6.75l-3.37,5.84,5.64,9.98h-15.98l-3.49,6.02,3.49,6.02h15.98l-5.64,9.98,3.37,5.85h6.75l8.95-15.82h6.24l-4.78,8.45,3.37,5.85h6.75l4.09-7.22,10.18,17.63-8.29-.07-3.38,5.84,3.38,5.84,9.72,0.08-3.12,5.4-18.19-.16-3.37,5.84,3.37,5.85,11.48,0.1-8,13.83,3.48,6.03h6.96l8-13.84,5.83,9.88h6.74l3.38-5.84-9.24-15.66,3.12-5.4,4.94,8.37h6.75l3.38-5.84-4.21-7.14h20.37l-4.21,7.14,3.37,5.84h6.75l4.94-8.37,3.12,5.4-9.24,15.66,3.38,5.84h6.75l5.83-9.88,7.99,13.84h6.96l3.48-6.03-8-13.84,11.48-.1,3.37-5.84-3.37-5.84-18.19.16-3.12-5.4,9.72-.08,3.38-5.84-3.37-5.84-8.3.07,10.19-17.63,4.08,7.22h6.75l3.38-5.85-4.79-8.46h6.24l8.95,15.83h6.75l3.38-5.85-5.65-9.98h15.99Z"/>
    <path id="Shape_2_copy" data-name="Shape 2 copy" class="cls-10" d="M823.335,541.694l-3.481-6.025H803.865l5.649-9.979-3.374-5.84h-6.749l-8.96,15.819h-6.239l4.791-8.46-3.374-5.839h-6.752l-4.082,7.214-10.187-17.627,8.3,0.07,3.374-5.841-3.374-5.837-9.731-.088,3.122-5.4,18.19,0.16,3.376-5.839-3.376-5.842-11.476-.1,8-13.837-3.481-6.022h-6.962l-7.994,13.834-5.824-9.88h-6.748l-3.378,5.842,9.235,15.662-3.117,5.4-4.941-8.375h-6.749l-3.374,5.841,4.212,7.14H721.491l4.21-7.14-3.374-5.841h-6.75l-4.938,8.375-3.12-5.4,9.233-15.66-3.373-5.841-6.752,0-5.822,9.88-8-13.834h-6.962l-3.479,6.022,8,13.837-11.474.1-3.373,5.842,3.373,5.841,18.191-.162,3.12,5.4-9.728.088-3.373,5.839,3.373,5.839,8.292-.07-10.182,17.627-4.087-7.212h-6.747l-3.374,5.839,4.789,8.461H672.92l-8.957-15.822-6.748,0-3.373,5.839,5.649,9.98H643.5l-3.483,6.022,3.483,6.023h15.989l-5.649,9.98,3.373,5.842h6.748l8.957-15.82h6.24l-4.787,8.457,3.374,5.843,6.747,0,4.087-7.214,10.187,17.627-8.3-.072L687.1,578.2l3.373,5.84,9.728,0.082-3.12,5.4-18.191-.162-3.373,5.841,3.373,5.842,11.474,0.1-8,13.839,3.484,6.02h6.957l8-13.838,5.826,9.881h6.748l3.376-5.841-9.236-15.66,3.12-5.4,4.938,8.375h6.75l3.378-5.837-4.212-7.144h20.372l-4.21,7.142,3.374,5.842h6.75l4.938-8.378,3.117,5.4L746.6,611.21l3.378,5.839,6.748,0,5.828-9.879,8,13.836h6.957l3.481-6.02-8-13.841,11.476-.1,3.376-5.839-3.376-5.841-18.188.159-3.12-5.4,9.723-.082,3.378-5.844-3.374-5.839-8.3.072L774.775,554.8l4.082,7.214h6.752l3.374-5.843-4.791-8.459h6.239l8.96,15.822h6.749l3.374-5.842-5.649-9.98h15.989Z"/>
    <g>
      <path id="Shape_1_copy_17" data-name="Shape 1 copy 17" class="cls-13" d="M4111.54,321.805l-4.72-8.176h-20.85l9.09-15.759-4.72-8.179h-9.44l-13.8,23.938h-30.89l15.44-26.766h27.62l4.72-8.179-4.72-8.176h-18.18l10.43-18.073-4.72-8.176h-9.44l-10.42,18.073-9.1-15.759h-9.43l-4.72,8.176,13.81,23.935-15.44,26.766-15.44-26.766,13.81-23.935-4.72-8.176h-9.44l-9.09,15.759-10.42-18.073h-9.44l-4.72,8.176,10.43,18.073h-18.18l-4.72,8.176,4.72,8.179h27.62l15.44,26.766-30.89,0-13.81-23.935h-9.43l-4.72,8.179,9.09,15.756H3937.3l-4.72,8.179,4.72,8.176h20.85l-9.09,15.759,4.72,8.179,9.43,0,13.81-23.935h30.89l-15.44,26.766h-27.62l-4.72,8.176,4.72,8.176h18.18l-10.43,18.073,4.72,8.178h9.44l10.42-18.075,9.09,15.762h9.44l4.72-8.179-13.81-23.935,15.44-26.766,15.44,26.766-13.81,23.935,4.72,8.179h9.43l9.1-15.759,10.42,18.072h9.44l4.72-8.176L4061.09,373.1h18.18l4.72-8.176-4.72-8.176h-27.62l-15.44-26.766h30.89l13.8,23.935h9.44l4.72-8.176-9.09-15.759h20.85Z"/>
      <path id="Shape_2_copy_8" data-name="Shape 2 copy 8" class="cls-10" d="M3876.09-22.688l-3.48-6.025h-15.99l5.65-9.98-3.38-5.839h-6.75l-8.95,15.819h-6.24l4.79-8.461-3.38-5.839h-6.75l-4.08,7.214-10.19-17.627,8.3,0.07,3.37-5.841-3.37-5.837-9.73-.087,3.12-5.4,18.19,0.16,3.37-5.839-3.37-5.841-11.48-.1,8-13.836L3830.26-102h-6.96l-8,13.834-5.82-9.879h-6.75l-3.38,5.841,9.24,15.662-3.12,5.4-4.94-8.375h-6.75l-3.37,5.841,4.21,7.14h-20.37l4.2-7.14-3.37-5.841h-6.75l-4.94,8.375-3.12-5.4,9.24-15.659-3.38-5.841-6.75,0-5.82,9.879-8-13.834h-6.96l-3.48,6.022,8,13.836-11.48.1-3.37,5.841,3.37,5.842,18.19-.162,3.12,5.4-9.72.087-3.38,5.839,3.38,5.839,8.29-.07L3741.34-35.8l-4.09-7.212h-6.75l-3.37,5.839,4.79,8.46h-6.25l-8.95-15.821-6.75,0-3.37,5.839,5.64,9.98h-15.98l-3.49,6.023,3.49,6.023h15.98l-5.64,9.98,3.37,5.841h6.75l8.95-15.819h6.24l-4.78,8.456,3.37,5.844,6.75,0,4.09-7.214,10.18,17.627-8.29-.072-3.38,5.842,3.38,5.839,9.72,0.083-3.12,5.4-18.19-.162-3.37,5.842,3.37,5.841,11.48,0.1-8,13.838,3.48,6.021h6.96l8-13.839,5.83,9.882h6.74l3.38-5.841-9.24-15.66,3.12-5.4,4.94,8.375h6.75l3.38-5.837-4.21-7.144h20.37l-4.21,7.142,3.37,5.842h6.75l4.94-8.377,3.12,5.4-9.24,15.66,3.38,5.839,6.75,0,5.83-9.879,7.99,13.836h6.96l3.48-6.021-8-13.84,11.48-.1,3.37-5.839-3.37-5.841-18.19.16-3.12-5.4,9.72-.083,3.38-5.844-3.37-5.839-8.3.072,10.19-17.627,4.08,7.214h6.75l3.38-5.844-4.79-8.458h6.24l8.95,15.821h6.75l3.38-5.841-5.65-9.98h15.99Z"/>
      <path id="Shape_2_copy_5" data-name="Shape 2 copy 5" class="cls-10" d="M1953.34-1233.31l-3.49-6.02h-15.99l5.65-9.98-3.37-5.84h-6.75l-8.96,15.82h-6.24l4.79-8.46-3.37-5.84h-6.75l-4.09,7.21-10.18-17.62,8.29,0.07,3.38-5.84-3.38-5.84-9.73-.09,3.12-5.4,18.19,0.16,3.38-5.84-3.38-5.84-11.47-.1,8-13.84-3.48-6.02h-6.97l-7.99,13.83-5.83-9.87h-6.74l-3.38,5.84,9.23,15.66-3.11,5.4-4.94-8.38h-6.75l-3.38,5.84,4.21,7.14h-20.37l4.21-7.14-3.37-5.84h-6.75l-4.94,8.38-3.12-5.4,9.23-15.66-3.37-5.84h-6.75l-5.83,9.87-7.99-13.83h-6.96l-3.48,6.02,7.99,13.84-11.47.1-3.37,5.84,3.37,5.84,18.19-.16,3.12,5.4-9.73.09-3.37,5.84,3.37,5.84,8.29-.07-10.18,17.62-4.09-7.21h-6.74l-3.38,5.84,4.79,8.46h-6.24l-8.96-15.82h-6.74l-3.38,5.84,5.65,9.98H1773.5l-3.48,6.02,3.48,6.03h15.99l-5.65,9.98,3.38,5.84h6.74l8.96-15.82h6.24l-4.79,8.46,3.38,5.84h6.74l4.09-7.21,10.19,17.62-8.3-.07-3.37,5.84,3.37,5.84,9.73,0.09-3.12,5.4-18.19-.16-3.37,5.84,3.37,5.84,11.47,0.1-7.99,13.84,3.48,6.02h6.96l7.99-13.84,5.83,9.88h6.75l3.37-5.84-9.23-15.66,3.12-5.4,4.94,8.37h6.75l3.37-5.83-4.21-7.15h20.37l-4.2,7.14,3.37,5.85h6.75l4.94-8.38,3.11,5.4-9.23,15.66,3.38,5.84h6.74l5.83-9.88,8,13.84h6.96l3.48-6.02-8-13.84,11.47-.1,3.38-5.84-3.38-5.84-18.18.16-3.12-5.4,9.72-.09,3.38-5.84-3.38-5.84-8.29.07,10.18-17.63,4.09,7.22h6.75l3.37-5.84-4.79-8.46h6.24l8.96,15.82h6.75l3.37-5.84-5.65-9.98h15.99Z"/>
    </g>
    <path id="Shape_2_copy_6" data-name="Shape 2 copy 6" class="cls-10" d="M3388.99,1718.34l-3.48-6.02h-15.99l5.65-9.98-3.38-5.84h-6.74l-8.96,15.82h-6.24l4.79-8.46-3.38-5.84h-6.75l-4.08,7.21-10.19-17.63,8.3,0.08,3.37-5.85-3.37-5.83-9.73-.09,3.12-5.4,18.19,0.16,3.38-5.84-3.38-5.84-11.48-.1,8-13.84-3.48-6.02h-6.96l-8,13.83-5.82-9.88h-6.75l-3.38,5.84,9.24,15.67-3.12,5.4-4.94-8.38h-6.75l-3.37,5.84,4.21,7.14h-20.37l4.21-7.14-3.38-5.84h-6.75l-4.94,8.38-3.12-5.4,9.24-15.66-3.38-5.84-6.75-.01-5.82,9.88-8-13.83h-6.96l-3.48,6.02,8,13.84-11.48.1-3.37,5.84,3.37,5.84,18.19-.16,3.12,5.4-9.72.09-3.38,5.84,3.38,5.84,8.29-.08-10.18,17.63-4.09-7.21h-6.75l-3.37,5.84,4.79,8.46h-6.25l-8.95-15.82h-6.75l-3.37,5.84,5.65,9.98h-15.99l-3.49,6.02,3.49,6.03h15.99l-5.65,9.98,3.37,5.84h6.75l8.95-15.82h6.24l-4.78,8.45,3.37,5.85h6.75l4.09-7.21,10.18,17.62-8.29-.07-3.38,5.84,3.38,5.84,9.72,0.08-3.12,5.41-18.19-.17-3.37,5.85,3.37,5.84,11.48,0.1-8,13.84,3.49,6.02h6.95l8-13.84,5.83,9.88h6.74l3.38-5.84-9.24-15.66,3.12-5.4,4.94,8.37h6.75l3.38-5.84-4.21-7.14h20.37l-4.21,7.14,3.37,5.84h6.75l4.94-8.37,3.12,5.4-9.24,15.66,3.38,5.84h6.75l5.83-9.88,7.99,13.84h6.96l3.48-6.02-8-13.85,11.48-.1,3.38-5.83-3.38-5.85-18.19.16-3.12-5.4,9.72-.08,3.38-5.84-3.37-5.84-8.3.07,10.19-17.63,4.08,7.22h6.75l3.38-5.85-4.79-8.45h6.24l8.96,15.82h6.74l3.38-5.84-5.65-9.98h15.99Z"/>
    <path id="Shape_2_copy_2" data-name="Shape 2 copy 2" class="cls-14" d="M1611.11,1336.54l-3.48-6.03h-15.99l5.65-9.98-3.37-5.84h-6.75l-8.96,15.82h-6.24l4.79-8.46-3.37-5.84h-6.75l-4.08,7.21-10.18-17.63,8.29,0.07,3.37-5.84-3.37-5.84-9.73-.09,3.12-5.4,18.19,0.16,3.37-5.84-3.37-5.84-11.48-.1,8-13.84-3.48-6.03h-6.96l-7.99,13.84-5.83-9.88h-6.74l-3.38,5.84,9.23,15.67-3.11,5.4-4.94-8.38h-6.75l-3.37,5.84,4.21,7.15h-20.37l4.21-7.15-3.38-5.84h-6.74l-4.94,8.38-3.12-5.4,9.23-15.67-3.37-5.84h-6.75l-5.82,9.88-8-13.84h-6.96l-3.48,6.03,8,13.84-11.47.1-3.38,5.84,3.38,5.84,18.18-.16,3.12,5.4-9.72.09-3.38,5.84,3.38,5.84,8.29-.07-10.18,17.63-4.09-7.21h-6.74l-3.38,5.84,4.79,8.46h-6.24l-8.96-15.82h-6.74l-3.37,5.84,5.64,9.98h-15.98l-3.48,6.03,3.48,6.02h15.98l-5.64,9.99,3.37,5.84h6.74l8.96-15.83h6.24l-4.79,8.46,3.38,5.85h6.74l4.09-7.22,10.18,17.64-8.29-.08-3.38,5.85,3.38,5.84,9.72,0.08-3.12,5.4-18.18-.16-3.38,5.85,3.38,5.84,11.47,0.1-8,13.84,3.49,6.02h6.95l8-13.84,5.82,9.89h6.75l3.37-5.85-9.23-15.66,3.12-5.4,4.94,8.37h6.74l3.38-5.84-4.21-7.14h20.37l-4.21,7.14,3.37,5.85h6.75l4.94-8.38,3.11,5.4-9.23,15.66,3.38,5.84,6.74,0.01,5.83-9.89,7.99,13.84h6.96l3.48-6.02-8-13.84,11.48-.1,3.37-5.84-3.37-5.85-18.19.16-3.12-5.4,9.73-.08,3.37-5.85-3.37-5.84-8.29.07,10.18-17.63,4.08,7.22h6.75l3.37-5.85-4.79-8.46h6.24l8.96,15.83h6.75l3.37-5.84-5.65-9.99h15.99Z"/>
    <path id="Shape_1_copy_4" data-name="Shape 1 copy 4" class="cls-10" d="M2558.73,584.883l-4.71-8.176h-20.85l9.08-15.759-4.71-8.178h-9.44l-13.81,23.937h-30.88l15.44-26.766h27.62l4.72-8.179-4.72-8.176h-18.18l10.42-18.072-4.71-8.176h-9.44l-10.42,18.072-9.1-15.759h-9.43l-4.72,8.176,13.81,23.935-15.44,26.766-15.44-26.766,13.8-23.935-4.71-8.176h-9.44l-9.09,15.759-10.43-18.072h-9.43l-4.72,8.176,10.43,18.072h-18.19l-4.71,8.176,4.71,8.179h27.62l15.45,26.766-30.89,0-13.81-23.935h-9.43l-4.72,8.178,9.09,15.757H2384.5l-4.72,8.178,4.72,8.176h20.85l-9.09,15.759,4.72,8.179,9.43,0,13.81-23.936h30.89l-15.45,26.766h-27.62L2407.33,628l4.71,8.177h18.19L2419.8,654.25l4.72,8.179h9.43l10.43-18.075,9.09,15.761h9.44l4.72-8.179L2453.82,628l15.44-26.766L2484.7,628l-13.81,23.935,4.72,8.179h9.43l9.09-15.759,10.43,18.073H2514l4.71-8.177-10.42-18.074h18.18l4.72-8.177-4.72-8.176h-27.62l-15.44-26.766h30.88L2528.1,617h9.44l4.71-8.177-9.08-15.759h20.85Z"/>
    <path id="Shape_1_copy_23" data-name="Shape 1 copy 23" class="cls-10" d="M2051.73,914.883l-4.71-8.176h-20.85l9.08-15.759-4.71-8.179h-9.44l-13.81,23.938h-30.88l15.44-26.766h27.62l4.72-8.178-4.72-8.177h-18.18l10.42-18.072-4.71-8.176h-9.44l-10.42,18.072-9.1-15.759h-9.43l-4.72,8.176,13.81,23.936-15.44,26.765-15.44-26.765,13.8-23.936-4.71-8.176h-9.44l-9.09,15.759-10.43-18.072h-9.43l-4.72,8.176,10.43,18.072h-18.19l-4.71,8.177,4.71,8.178h27.62l15.45,26.766-30.89,0-13.81-23.936h-9.43l-4.72,8.179,9.09,15.757H1877.5l-4.72,8.178,4.72,8.176h20.85l-9.09,15.759,4.72,8.179,9.43,0,13.81-23.936h30.89l-15.45,26.766h-27.62L1900.33,958l4.71,8.177h18.19L1912.8,984.25l4.72,8.179h9.43l10.43-18.075,9.09,15.761h9.44l4.72-8.179L1946.82,958l15.44-26.766L1977.7,958l-13.81,23.935,4.72,8.179h9.43l9.09-15.759,10.43,18.073H2007l4.71-8.177-10.42-18.074h18.18l4.72-8.177-4.72-8.176h-27.62l-15.44-26.766h30.88L2021.1,947h9.44l4.71-8.177-9.08-15.759h20.85Z"/>
    <path id="Shape_1_copy_22" data-name="Shape 1 copy 22" class="cls-10" d="M3407.73,154.883l-4.71-8.176h-20.85l9.08-15.759-4.71-8.178h-9.44l-13.81,23.937h-30.88l15.44-26.766h27.62l4.72-8.179-4.72-8.176h-18.18l10.42-18.072L3363,77.338h-9.44L3343.14,95.41l-9.1-15.759h-9.43l-4.72,8.176,13.81,23.935-15.44,26.766-15.44-26.766,13.8-23.935-4.71-8.176h-9.44l-9.09,15.759-10.43-18.072h-9.43l-4.72,8.176,10.43,18.072h-18.19l-4.71,8.176,4.71,8.179h27.62l15.45,26.766-30.89,0-13.81-23.935h-9.43l-4.72,8.178,9.09,15.757H3233.5l-4.72,8.178,4.72,8.176h20.85l-9.09,15.759,4.72,8.179,9.43,0,13.81-23.936h30.89l-15.45,26.766h-27.62L3256.33,198l4.71,8.177h18.19L3268.8,224.25l4.72,8.179h9.43l10.43-18.075,9.09,15.761h9.44l4.72-8.179L3302.82,198l15.44-26.765L3333.7,198l-13.81,23.935,4.72,8.179h9.43l9.09-15.759,10.43,18.073H3363l4.71-8.177-10.42-18.074h18.18l4.72-8.177-4.72-8.176h-27.62l-15.44-26.766h30.88L3377.1,187h9.44l4.71-8.177-9.08-15.759h20.85Z"/>
    <path id="Shape_1_copy_16" data-name="Shape 1 copy 16" class="cls-10" d="M2798.73,166.883l-4.71-8.176h-20.85l9.08-15.759-4.71-8.179h-9.44l-13.81,23.938h-30.88l15.44-26.766h27.62l4.72-8.179-4.72-8.176h-18.18l10.42-18.072L2754,89.338h-9.44l-10.42,18.072-9.1-15.759h-9.43l-4.72,8.176,13.81,23.935-15.44,26.766-15.44-26.766,13.8-23.935-4.71-8.176h-9.44l-9.09,15.759-10.43-18.072h-9.43l-4.72,8.176,10.43,18.072h-18.19l-4.71,8.176,4.71,8.179h27.62l15.45,26.766-30.89,0-13.81-23.936h-9.43l-4.72,8.179,9.09,15.757H2624.5l-4.72,8.178,4.72,8.176h20.85l-9.09,15.76,4.72,8.178,9.43,0,13.81-23.936h30.89l-15.45,26.766h-27.62L2647.33,210l4.71,8.177h18.19L2659.8,236.25l4.72,8.179h9.43l10.43-18.075,9.09,15.761h9.44l4.72-8.179L2693.82,210l15.44-26.765L2724.7,210l-13.81,23.935,4.72,8.179h9.43l9.09-15.759,10.43,18.073H2754l4.71-8.177-10.42-18.074h18.18l4.72-8.177-4.72-8.176h-27.62l-15.44-26.766h30.88L2768.1,199h9.44l4.71-8.176-9.08-15.76h20.85Z"/>
    <path id="Shape_1_copy_21" data-name="Shape 1 copy 21" class="cls-10" d="M1023.73,166.883l-4.71-8.176H998.165l9.085-15.759-4.71-8.179H993.1L979.3,158.707H948.411l15.442-26.766H991.47l4.717-8.179-4.717-8.176H973.286l10.429-18.072L979,89.338h-9.437L959.137,107.41l-9.095-15.759h-9.433l-4.718,8.176L949.7,123.762l-15.441,26.766-15.442-26.766,13.808-23.935-4.716-8.176h-9.435l-9.09,15.759L898.954,89.338h-9.433L884.8,97.514l10.427,18.072H877.045l-4.717,8.176,4.717,8.179h27.619l15.442,26.766-30.884,0-13.808-23.936h-9.435l-4.719,8.179,9.092,15.757H849.5l-4.719,8.178,4.719,8.176h20.853l-9.092,15.76L865.979,199l9.435,0,13.808-23.936h30.884l-15.442,26.766H877.045L872.328,210l4.717,8.177h18.184L884.8,236.25l4.717,8.179h9.435l10.429-18.075,9.09,15.761h9.435l4.719-8.179L918.816,210l15.442-26.765L949.7,210l-13.806,23.935,4.716,8.179h9.433l9.092-15.759,10.427,18.073H979l4.717-8.177-10.429-18.074H991.47L996.189,210l-4.719-8.176H963.853l-15.442-26.766H979.3L993.1,199h9.436l4.71-8.176-9.085-15.76h20.855Z"/>
    <path id="Shape_1_copy_8" data-name="Shape 1 copy 8" class="cls-10" d="M2789.84,1224.6l-4.71-8.17h-20.86l9.09-15.76-4.71-8.18h-9.44l-13.81,23.94h-30.88l15.44-26.77h27.62l4.71-8.18-4.71-8.17h-18.19l10.43-18.07-4.71-8.18h-9.44l-10.43,18.07-9.09-15.76h-9.43l-4.72,8.18,13.81,23.93-15.45,26.77-15.44-26.77,13.81-23.93-4.71-8.18h-9.44l-9.09,15.76-10.43-18.07h-9.43l-4.72,8.18,10.43,18.07h-18.19l-4.71,8.17,4.71,8.18h27.62l15.44,26.77h-30.88l-13.81-23.94h-9.43l-4.72,8.18,9.09,15.76h-20.85l-4.72,8.17,4.72,8.18h20.85l-9.09,15.76,4.72,8.18h9.43l13.81-23.94h30.88l-15.44,26.77h-27.62l-4.71,8.17,4.71,8.18h18.19l-10.43,18.07,4.72,8.18h9.43l10.43-18.07,9.09,15.76h9.44l4.71-8.18-13.81-23.94,15.44-26.76,15.45,26.76L2702,1291.66l4.72,8.18h9.43l9.09-15.76,10.43,18.07h9.44l4.71-8.18-10.43-18.07h18.19l4.72-8.18-4.72-8.17h-27.62l-15.44-26.77h30.88l13.81,23.94h9.44l4.71-8.18-9.09-15.76h20.86Z"/>
    <path id="Shape_1_copy_5" data-name="Shape 1 copy 5" class="cls-10" d="M3384.64,1069.56l-4.72-8.17h-20.85l9.09-15.76-4.72-8.18H3354l-13.8,23.94h-30.89l15.44-26.77h27.62l4.72-8.18-4.72-8.17h-18.18l10.43-18.07-4.72-8.181h-9.44l-10.42,18.071-9.1-15.757h-9.43l-4.72,8.177,13.81,23.93-15.44,26.77-15.44-26.77,13.8-23.93-4.71-8.177h-9.44l-9.09,15.757-10.43-18.071h-9.43l-4.72,8.181,10.43,18.07h-18.19l-4.71,8.17,4.71,8.18h27.62l15.45,26.77h-30.89l-13.81-23.94h-9.43l-4.72,8.18,9.09,15.76H3210.4l-4.72,8.17,4.72,8.18h20.85l-9.09,15.76,4.72,8.18h9.43l13.81-23.94h30.89l-15.45,26.77h-27.62l-4.71,8.17,4.71,8.18h18.19l-10.43,18.07,4.72,8.18h9.43l10.43-18.07,9.09,15.76h9.44l4.72-8.18-13.81-23.94,15.44-26.76,15.44,26.76-13.81,23.94,4.72,8.18h9.43l9.09-15.76,10.43,18.07h9.44l4.72-8.18-10.43-18.07h18.18l4.72-8.18-4.72-8.17h-27.62l-15.44-26.77h30.89l13.8,23.94h9.44l4.72-8.18-9.09-15.76h20.85Z"/>
    <path id="Shape_2_copy_11" data-name="Shape 2 copy 11" class="cls-10" d="M305.985,130L301.2,122.25H279.22l7.766-12.835-4.638-7.509h-9.279L260.753,122.25h-8.578l6.587-10.881-4.638-7.509h-9.282l-5.612,9.278-14-22.669,11.405,0.09,4.638-7.512-4.638-7.507-13.378-.112,4.292-6.944,25.006,0.2,4.641-7.509-4.641-7.512-15.776-.129,10.994-17.794L242.984,28h-9.571l-10.99,17.791-8.007-12.705h-9.275L200.5,40.6l12.695,20.142-4.285,6.944L202.115,56.91h-9.279L188.2,64.422l5.79,9.183H165.981l5.787-9.183L167.13,56.91h-9.279l-6.789,10.771-4.288-6.944L159.466,40.6l-4.638-7.512-9.281,0-8,12.705L126.55,28h-9.571L112.2,35.742l10.99,17.794-15.772.129-4.638,7.512,4.638,7.513,25.006-.208,4.289,6.944-13.372.112-4.638,7.51,4.638,7.509,11.4-.09-14,22.67-5.618-9.275h-9.276l-4.638,7.509,6.584,10.881H99.21L86.9,101.906l-9.276,0-4.638,7.51,7.766,12.835H58.769L53.98,130l4.789,7.746h21.98l-7.766,12.834,4.638,7.513H86.9L99.21,137.747h8.578l-6.581,10.875,4.638,7.515,9.276,0,5.618-9.278,14,22.669-11.4-.093-4.638,7.513,4.638,7.509,13.372,0.107-4.289,6.947-25.006-.208-4.638,7.512,4.638,7.513,15.772,0.129-10.99,17.8L116.986,232h9.564l10.993-17.8,8.01,12.708h9.275l4.641-7.512L146.774,199.26l4.288-6.947,6.789,10.77h9.279l4.643-7.506-5.789-9.188h28l-5.787,9.185,4.638,7.512h9.279l6.789-10.773,4.285,6.947L200.5,219.4l4.644,7.509,9.275,0,8.013-12.705L233.419,232h9.565l4.785-7.743-10.994-17.8,15.776-.129,4.641-7.51-4.641-7.512-25,.2-4.289-6.944,13.366-.107,4.644-7.515-4.638-7.51-11.4.093,14-22.669,5.612,9.278h9.282l4.638-7.515-6.587-10.878h8.578l12.316,20.347h9.279l4.638-7.513-7.766-12.834H301.2Z"/>
    <path id="Shape_2_copy_12" data-name="Shape 2 copy 12" class="cls-14" d="M3333.11,2228.54l-3.48-6.03h-15.99l5.65-9.98-3.37-5.84h-6.75l-8.96,15.82h-6.24l4.79-8.46-3.37-5.84h-6.75l-4.08,7.21-10.18-17.63,8.29,0.07,3.37-5.84-3.37-5.84-9.73-.09,3.12-5.4,18.19,0.16,3.37-5.84-3.37-5.84-11.48-.1,8-13.84-3.48-6.03h-6.96l-7.99,13.84-5.83-9.88h-6.74l-3.38,5.84,9.23,15.67-3.11,5.4-4.94-8.38h-6.75l-3.37,5.84,4.21,7.15h-20.37l4.21-7.15-3.38-5.84h-6.74l-4.94,8.38-3.12-5.4,9.23-15.67-3.37-5.84h-6.75l-5.82,9.88-8-13.84h-6.96l-3.48,6.03,8,13.84-11.47.1-3.38,5.84,3.38,5.84,18.18-.16,3.12,5.4-9.72.09-3.38,5.84,3.38,5.84,8.29-.07-10.18,17.63-4.09-7.21h-6.74l-3.38,5.84,4.79,8.46h-6.24l-8.96-15.82h-6.74l-3.37,5.84,5.64,9.98h-15.98l-3.48,6.03,3.48,6.02h15.98l-5.64,9.99,3.37,5.84h6.74l8.96-15.83h6.24l-4.79,8.46,3.38,5.85h6.74l4.09-7.22,10.18,17.64-8.29-.08-3.38,5.85,3.38,5.84,9.72,0.08-3.12,5.4-18.18-.16-3.38,5.85,3.38,5.84,11.47,0.1-8,13.84,3.49,6.02h6.95l8-13.84,5.82,9.89h6.75l3.37-5.85-9.23-15.66,3.12-5.4,4.94,8.37h6.74l3.38-5.84-4.21-7.14h20.37l-4.21,7.14,3.37,5.85h6.75l4.94-8.38,3.11,5.4-9.23,15.66,3.38,5.84,6.74,0.01,5.83-9.89,7.99,13.84h6.96l3.48-6.02-8-13.84,11.48-.1,3.37-5.84-3.37-5.85-18.19.16-3.12-5.4,9.73-.08,3.37-5.85-3.37-5.84-8.29.07,10.18-17.63,4.08,7.22h6.75l3.37-5.85-4.79-8.46h6.24l8.96,15.83h6.75l3.37-5.84-5.65-9.99h15.99Z"/>
    <path id="Shape_2_copy_13" data-name="Shape 2 copy 13" class="cls-14" d="M4603.11,1454.54l-3.48-6.03h-15.99l5.65-9.98-3.37-5.84h-6.75l-8.96,15.82h-6.24l4.79-8.46-3.37-5.84h-6.75l-4.08,7.21-10.18-17.63,8.29,0.07,3.37-5.84-3.37-5.84-9.73-.09,3.12-5.4,18.19,0.16,3.37-5.84-3.37-5.84-11.48-.1,8-13.84-3.48-6.03h-6.96l-7.99,13.84-5.83-9.88h-6.74l-3.38,5.84,9.23,15.67-3.11,5.4-4.94-8.38h-6.75l-3.37,5.84,4.21,7.15h-20.37l4.21-7.15-3.38-5.84h-6.74l-4.94,8.38-3.12-5.4,9.23-15.67-3.37-5.84h-6.75l-5.82,9.88-8-13.84h-6.96l-3.48,6.03,8,13.84-11.47.1-3.38,5.84,3.38,5.84,18.18-.16,3.12,5.4-9.72.09-3.38,5.84,3.38,5.84,8.29-.07-10.18,17.63-4.09-7.21h-6.74l-3.38,5.84,4.79,8.46h-6.24l-8.96-15.82h-6.74l-3.37,5.84,5.64,9.98h-15.98l-3.48,6.03,3.48,6.02h15.98l-5.64,9.99,3.37,5.84h6.74l8.96-15.83h6.24l-4.79,8.46,3.38,5.85h6.74l4.09-7.22,10.18,17.64-8.29-.08-3.38,5.85,3.38,5.84,9.72,0.08-3.12,5.4-18.18-.16-3.38,5.85,3.38,5.84,11.47,0.1-8,13.84,3.49,6.02h6.95l8-13.84,5.82,9.89h6.75l3.37-5.85-9.23-15.66,3.12-5.4,4.94,8.37h6.74l3.38-5.84-4.21-7.14h20.37l-4.21,7.14,3.37,5.85h6.75l4.94-8.38,3.11,5.4-9.23,15.66,3.38,5.84,6.74,0.01,5.83-9.89,7.99,13.84h6.96l3.48-6.02-8-13.84,11.48-.1,3.37-5.84-3.37-5.85-18.19.16-3.12-5.4,9.73-.08,3.37-5.85-3.37-5.84-8.29.07,10.18-17.63,4.08,7.22h6.75l3.37-5.85-4.79-8.46h6.24l8.96,15.83h6.75l3.37-5.84-5.65-9.99h15.99Z"/>
    <path id="Shape_1_copy_13" data-name="Shape 1 copy 13" class="cls-10" d="M4101.73,1455.88l-4.71-8.17h-20.85l9.08-15.76-4.71-8.18h-9.44l-13.8,23.94h-30.89l15.44-26.77h27.62l4.72-8.18-4.72-8.17h-18.18l10.42-18.08-4.71-8.17h-9.44l-10.42,18.07-9.1-15.76h-9.43l-4.72,8.18,13.81,23.93-15.44,26.77-15.44-26.77,13.8-23.93-4.71-8.18h-9.44l-9.09,15.76-10.43-18.07h-9.43l-4.72,8.17,10.43,18.08h-18.19l-4.71,8.17,4.71,8.18h27.62l15.45,26.77-30.89-.01-13.81-23.93h-9.43l-4.72,8.18,9.09,15.75H3927.5l-4.72,8.18,4.72,8.18h20.85l-9.09,15.76,4.72,8.18,9.43-.01,13.81-23.93h30.89l-15.45,26.77h-27.62l-4.71,8.17,4.71,8.18h18.19l-10.43,18.07,4.72,8.18h9.43l10.43-18.08,9.09,15.77h9.44l4.72-8.18L3996.82,1499l15.44-26.76L4027.7,1499l-13.81,23.94,4.72,8.18h9.43l9.09-15.76,10.43,18.07H4057l4.71-8.18-10.42-18.07h18.18l4.72-8.18-4.72-8.17h-27.62l-15.44-26.77h30.89l13.8,23.93h9.44l4.71-8.17-9.08-15.76h20.85Z"/>
    <path id="Shape_1_copy_14" data-name="Shape 1 copy 14" class="cls-10" d="M4511.84,2116.6l-4.71-8.17h-20.86l9.09-15.76-4.71-8.18h-9.44l-13.81,23.94h-30.88l15.44-26.77h27.62l4.71-8.18-4.71-8.17h-18.19l10.43-18.07-4.71-8.18h-9.44l-10.43,18.07-9.09-15.76h-9.43l-4.72,8.18,13.81,23.93-15.45,26.77-15.44-26.77,13.81-23.93-4.71-8.18h-9.44l-9.09,15.76-10.43-18.07h-9.43l-4.72,8.18,10.43,18.07h-18.19l-4.71,8.17,4.71,8.18h27.62l15.44,26.77h-30.88l-13.81-23.94h-9.43l-4.72,8.18,9.09,15.76h-20.85l-4.72,8.17,4.72,8.18h20.85l-9.09,15.76,4.72,8.18h9.43l13.81-23.94h30.88l-15.44,26.77h-27.62l-4.71,8.17,4.71,8.18h18.19l-10.43,18.07,4.72,8.18h9.43l10.43-18.07,9.09,15.76h9.44l4.71-8.18-13.81-23.94,15.44-26.76,15.45,26.76L4424,2183.66l4.72,8.18h9.43l9.09-15.76,10.43,18.07h9.44l4.71-8.18-10.43-18.07h18.19l4.72-8.18-4.72-8.17h-27.62l-15.44-26.77h30.88l13.81,23.94h9.44l4.71-8.18-9.09-15.76h20.86Z"/>
    <path id="Shape_1_copy_15" data-name="Shape 1 copy 15" class="cls-10" d="M5106.64,1961.56l-4.72-8.17h-20.85l9.09-15.76-4.72-8.18H5076l-13.8,23.94h-30.89l15.44-26.77h27.62l4.72-8.18-4.72-8.17h-18.18l10.43-18.07-4.72-8.18h-9.44l-10.42,18.07-9.1-15.76h-9.43l-4.72,8.18,13.81,23.93-15.44,26.77-15.44-26.77,13.8-23.93-4.71-8.18h-9.44l-9.09,15.76-10.43-18.07h-9.43l-4.72,8.18,10.43,18.07h-18.19l-4.71,8.17,4.71,8.18h27.62l15.45,26.77h-30.89l-13.81-23.94h-9.43l-4.72,8.18,9.09,15.76H4932.4l-4.72,8.17,4.72,8.18h20.85l-9.09,15.76,4.72,8.18h9.43l13.81-23.94h30.89l-15.45,26.77h-27.62l-4.71,8.17,4.71,8.18h18.19l-10.43,18.07,4.72,8.18h9.43l10.43-18.07,9.09,15.76h9.44l4.72-8.18-13.81-23.94,15.44-26.76,15.44,26.76-13.81,23.94,4.72,8.18h9.43l9.09-15.76,10.43,18.07h9.44l4.72-8.18-10.43-18.07h18.18l4.72-8.18-4.72-8.17h-27.62l-15.44-26.77h30.89l13.8,23.94h9.44l4.72-8.18-9.09-15.76h20.85Z"/>
    <path id="Shape_1_copy_6" data-name="Shape 1 copy 6" class="cls-10" d="M4421.98,849.514l-4.72-8.177h-20.85l9.09-15.758-4.72-8.179h-9.43l-13.81,23.937h-30.88l15.44-26.765h27.61l4.72-8.179-4.72-8.176h-18.18l10.43-18.072-4.72-8.177h-9.43l-10.43,18.073-9.09-15.759h-9.44l-4.72,8.176,13.81,23.935-15.44,26.766-15.44-26.766,13.81-23.935-4.72-8.176h-9.43l-9.09,15.759-10.43-18.073h-9.43l-4.72,8.177,10.42,18.072h-18.18l-4.72,8.176,4.72,8.179h27.62l15.44,26.765h-30.88L4273.66,817.4h-9.44l-4.72,8.179,9.1,15.757h-20.86l-4.72,8.178,4.72,8.176h20.86l-9.1,15.759,4.72,8.179,9.44,0,13.81-23.935h30.88l-15.44,26.766h-27.62l-4.72,8.176,4.72,8.176h18.18l-10.42,18.073,4.71,8.179h9.44l10.43-18.075,9.09,15.761h9.43l4.72-8.179-13.81-23.935,15.44-26.766,15.44,26.766-13.8,23.935,4.71,8.179h9.44l9.09-15.759,10.43,18.073h9.43l4.72-8.177-10.43-18.075h18.18l4.72-8.176-4.72-8.176H4362.1l-15.44-26.766h30.88l13.81,23.935h9.43l4.72-8.176-9.09-15.759h20.85Z"/>
    <path id="Shape_1_copy_24" data-name="Shape 1 copy 24" class="cls-15" d="M4030.01,614.5l-3.67-6.379h-16.19l7.06-12.295-3.67-6.381h-7.33l-10.72,18.676H3971.5l11.99-20.882h21.45l3.67-6.381-3.67-6.379h-14.12l8.1-14.1L3995.26,554h-7.33l-8.1,14.1-7.07-12.3h-7.32l-3.67,6.379,10.73,18.673-12,20.882-11.99-20.882,10.72-18.673-3.66-6.379h-7.33l-7.06,12.3-8.1-14.1h-7.33l-3.67,6.378,8.1,14.1h-14.12l-3.67,6.379,3.67,6.381h21.45l12,20.882-23.99,0-10.73-18.674h-7.33l-3.66,6.381,7.06,12.293h-16.2l-3.67,6.381,3.67,6.378h16.2l-7.06,12.3,3.66,6.381,7.33,0,10.73-18.674h23.99l-12,20.882h-21.45l-3.67,6.379,3.67,6.379h14.12l-8.1,14.1,3.67,6.381h7.33l8.1-14.1,7.06,12.3h7.33l3.66-6.381-10.72-18.674,11.99-20.882,12,20.882-10.73,18.674,3.67,6.381h7.32l7.07-12.295,8.1,14.1h7.33l3.66-6.379-8.1-14.1h14.12l3.67-6.379-3.67-6.379h-21.45l-11.99-20.882h23.99l10.72,18.674h7.33l3.67-6.379-7.06-12.3h16.19Z"/>
    <path id="Shape_1_copy_18" data-name="Shape 1 copy 18" class="cls-10" d="M4781.98,397.514l-4.72-8.176h-20.85l9.09-15.759-4.72-8.179h-9.43l-13.81,23.938h-30.88l15.44-26.766h27.61l4.72-8.179-4.72-8.176h-18.18l10.43-18.073-4.72-8.176h-9.44l-10.42,18.073-9.09-15.759h-9.44l-4.72,8.176,13.81,23.935-15.44,26.766-15.44-26.766,13.81-23.935-4.72-8.176h-9.43l-9.09,15.759-10.43-18.073h-9.43l-4.72,8.176,10.42,18.073h-18.18l-4.72,8.176,4.72,8.179h27.62l15.44,26.766-30.88,0L4633.66,365.4h-9.44l-4.72,8.179,9.1,15.757h-20.86l-4.72,8.178,4.72,8.176h20.86l-9.1,15.759,4.72,8.179,9.44,0,13.81-23.935h30.88l-15.44,26.766h-27.62l-4.72,8.176,4.72,8.176h18.18l-10.42,18.073,4.71,8.179h9.44l10.43-18.076,9.09,15.762h9.43l4.72-8.179-13.81-23.935,15.44-26.766,15.44,26.766-13.8,23.935,4.71,8.179h9.44l9.09-15.759,10.42,18.073h9.44l4.72-8.177-10.43-18.075h18.18l4.72-8.176-4.72-8.176H4722.1l-15.44-26.766h30.88l13.81,23.935h9.43l4.72-8.176-9.09-15.759h20.85Z"/>
    <path id="Shape_1_copy_7" data-name="Shape 1 copy 7" class="cls-16" d="M2007.56,1489.46l-4.72-8.18h-20.85l9.09-15.76-4.72-8.17h-9.43l-13.81,23.93h-30.88l15.44-26.76h27.62l4.71-8.18-4.71-8.18h-18.19l10.43-18.07-4.72-8.18h-9.43l-10.43,18.08-9.09-15.76h-9.43l-4.72,8.17,13.81,23.94-15.45,26.77-15.44-26.77,13.81-23.94-4.72-8.17h-9.43l-9.09,15.76-10.43-18.08h-9.43l-4.72,8.18,10.43,18.07h-18.19l-4.72,8.18,4.72,8.18h27.62l15.44,26.76h-30.88l-13.81-23.93h-9.44l-4.71,8.17,9.09,15.76h-20.86l-4.71,8.18,4.71,8.18h20.86l-9.09,15.76,4.71,8.17h9.44l13.81-23.93h30.88l-15.44,26.76h-27.62l-4.72,8.18,4.72,8.17h18.19l-10.43,18.08,4.71,8.18h9.44l10.43-18.08,9.09,15.76h9.43l4.72-8.18-13.81-23.93,15.44-26.77,15.45,26.77-13.81,23.93,4.72,8.18h9.43l9.09-15.76,10.43,18.08h9.43l4.72-8.18-10.43-18.08h18.19l4.72-8.17-4.72-8.18h-27.62l-15.44-26.76h30.88l13.81,23.93h9.43l4.72-8.17-9.09-15.76h20.85Z"/>
    <path id="Shape_2_copy_3" data-name="Shape 2 copy 3" class="cls-10" d="M3286.11,583.072l-3.48-6.025h-15.99l5.65-9.98-3.37-5.839h-6.75l-8.96,15.819h-6.24l4.79-8.461-3.37-5.839h-6.75l-4.09,7.214-10.18-17.626,8.29,0.07,3.38-5.842-3.38-5.837-9.73-.087,3.12-5.4,18.19,0.159,3.38-5.839-3.38-5.841-11.47-.1,8-13.836-3.49-6.023h-6.96l-7.99,13.834-5.83-9.879h-6.74l-3.38,5.841,9.23,15.662-3.11,5.4-4.94-8.375h-6.75l-3.38,5.841,4.21,7.14h-20.37l4.21-7.14-3.37-5.841h-6.75l-4.94,8.375-3.12-5.4,9.23-15.659-3.37-5.842-6.75,0-5.83,9.879-7.99-13.834h-6.96l-3.48,6.023,7.99,13.836-11.47.1-3.38,5.841,3.38,5.842,18.19-.162,3.12,5.4-9.73.087-3.37,5.839,3.37,5.84,8.29-.07-10.18,17.626-4.09-7.212h-6.74l-3.38,5.84,4.79,8.46h-6.24l-8.96-15.821-6.75,0-3.37,5.839,5.65,9.98h-15.99l-3.48,6.023,3.48,6.023h15.99l-5.65,9.98,3.37,5.841h6.75l8.96-15.819h6.24l-4.79,8.456,3.38,5.844,6.74,0,4.09-7.214,10.19,17.626-8.3-.072-3.37,5.842,3.37,5.839,9.73,0.083-3.12,5.4-18.19-.162-3.38,5.842,3.38,5.841,11.47,0.1-7.99,13.838,3.48,6.021h6.96l7.99-13.839,5.83,9.882h6.75l3.37-5.842-9.23-15.659,3.12-5.4,4.94,8.375h6.75l3.37-5.837-4.21-7.144h20.37l-4.21,7.142,3.38,5.841h6.75l4.94-8.377,3.11,5.4-9.23,15.659,3.38,5.84,6.74,0,5.83-9.879,8,13.836h6.95l3.49-6.021-8-13.84,11.47-.1,3.38-5.839-3.38-5.842-18.18.16-3.12-5.4,9.72-.083,3.38-5.844-3.38-5.839-8.29.072,10.18-17.627,4.09,7.215h6.75l3.37-5.844-4.79-8.458h6.24l8.96,15.821h6.75l3.37-5.841-5.65-9.98h15.99Z"/>
    <path id="Shape_2_copy_4" data-name="Shape 2 copy 4" class="cls-10" d="M1795.15,143.309l-3.48-6.026h-15.99l5.65-9.979-3.38-5.839h-6.75l-8.96,15.818H1756l4.79-8.46-3.37-5.839h-6.75l-4.08,7.214-10.19-17.627,8.3,0.07,3.37-5.841-3.37-5.837-9.74-.088,3.13-5.4,18.19,0.16,3.37-5.839-3.37-5.841-11.48-.1,8-13.836-3.48-6.023h-6.96l-8,13.834-5.82-9.879h-6.75l-3.38,5.841,9.24,15.662-3.12,5.4-4.94-8.375h-6.75l-3.38,5.841,4.22,7.14H1693.3l4.21-7.14-3.37-5.841h-6.75l-4.94,8.375-3.12-5.4,9.23-15.659-3.37-5.841-6.75,0-5.82,9.879-8-13.834h-6.96l-3.48,6.023,7.99,13.836-11.47.1-3.37,5.841,3.37,5.841,18.19-.162,3.12,5.4-9.73.088-3.37,5.839,3.37,5.839,8.29-.07L1660.39,130.2l-4.08-7.212h-6.75l-3.38,5.839,4.79,8.461h-6.24l-8.96-15.821-6.74,0-3.38,5.839,5.65,9.98h-15.99l-3.48,6.023,3.48,6.022h15.99l-5.65,9.98,3.38,5.842h6.74l8.96-15.819h6.24l-4.79,8.456,3.38,5.843,6.75,0,4.08-7.215,10.19,17.627-8.3-.072-3.37,5.841,3.37,5.84,9.73,0.083-3.12,5.4-18.19-.162-3.37,5.841,3.37,5.842,11.47,0.1-7.99,13.839,3.48,6.021h6.96l8-13.839,5.82,9.881h6.75l3.38-5.841-9.24-15.659,3.12-5.4,4.94,8.375h6.75l3.38-5.837-4.21-7.145h20.37l-4.21,7.143,3.37,5.841h6.75l4.94-8.377,3.12,5.4-9.24,15.659,3.38,5.839,6.75,0,5.82-9.879,8,13.837h6.96l3.48-6.021-8-13.841,11.48-.1,3.37-5.84-3.37-5.841-18.19.16-3.12-5.4,9.72-.083,3.38-5.844-3.37-5.839-8.3.072,10.19-17.627,4.08,7.214h6.75l3.37-5.843-4.79-8.459h6.24l8.96,15.822h6.75l3.38-5.842-5.65-9.98h15.99Z"/>
  </g>
  <path class="cls-17" d="M3700.07,1974.24c-10.65-22.32,42.04-66.96,71.57.53,16.49,16.47,47.09,59.52,52.94,72.27s14.3,58.46,16.96,75.47,27.14,64.83,31.93,77.58c3.37,8.97,24.91,53.53,14.9,56.87-6.38,2.13-59.4-92.92-63.85-99.91-7.2-11.3-21.29-45.91-40-54.95-2.24,1.58-9.95,3.93-9.95,3.93s3.89,4.56,5.32,6.38c3.35,4.27,1.48,8.19-3.73,11.16-1.1-7.52-2.66-13.28-10.11-15.94-7.23-2.58-14.09,3.94-13.83,12.75-4.95-4.8-7.98-21.79,10.1-20.19,1.88-1.07,6.66-4.3,8.41-5.29-17.32-11.67-36-33.43-42.46-48.92-7.81-18.7-1.88-40.96-5.59-48.4-3.6,1.37-9.32,2.83-13.87.6a14.1,14.1,0,0,0-1.29,8.47C3694.66,1998.23,3695.47,1986.21,3700.07,1974.24Z"/>
</svg>
