<svg id="Layer_1" data-name="Layer 1" xmlns="http://www.w3.org/2000/svg" viewBox="0 0 300 400"><defs><style>.cls-1{fill:#969696;}.cls-13,.cls-14,.cls-17,.cls-2,.cls-5,.cls-6,.cls-9{fill:#fff;}.cls-3{fill:#1a1a1a;}.cls-11,.cls-12,.cls-16,.cls-18,.cls-4,.cls-5,.cls-6{stroke:#000;}.cls-10,.cls-11,.cls-12,.cls-13,.cls-14,.cls-16,.cls-17,.cls-18,.cls-4,.cls-5,.cls-6,.cls-7,.cls-8,.cls-9{stroke-miterlimit:10;}.cls-6,.cls-9{stroke-width:0.25px;}.cls-10,.cls-11,.cls-16,.cls-7,.cls-8{fill:none;}.cls-10,.cls-13,.cls-14,.cls-17,.cls-7,.cls-8,.cls-9{stroke:#fff;}.cls-14,.cls-8{stroke-width:0.5px;}.cls-10{stroke-width:1.2px;}.cls-12{stroke-width:0.19px;}.cls-13{stroke-width:0.1px;}.cls-15{fill:#fcee21;}.cls-16,.cls-18{stroke-width:3px;}.cls-17{stroke-width:2px;}.cls-19{font-size:54.74px;font-family:Anton-Regular, Anton;}</style></defs><title>Gif_Making_Logo</title><rect class="cls-1" x="-50.74" y="93.37" width="392.87" height="213.62" rx="16.05" ry="16.05" transform="translate(345.87 54.48) rotate(90)"/><rect class="cls-2" x="-11.9" y="97.1" width="316.37" height="198.09" transform="translate(342.43 49.85) rotate(90)"/><ellipse class="cls-3" cx="147.62" cy="374.42" rx="14.34" ry="13.66"/><rect class="cls-3" x="111.88" y="18.44" width="73.66" height="8.21" rx="3.37" ry="3.37"/><ellipse class="cls-3" cx="98.84" cy="22.54" rx="5.7" ry="5.43"/><polygon class="cls-4" points="195.36 208.19 93.2 195.38 101.9 132.5 204.05 145.31 195.36 208.19"/><rect class="cls-5" x="86.85" y="130.95" width="108.37" height="65.97"/><rect class="cls-4" x="152.99" y="182.9" width="20.08" height="8.05"/><rect class="cls-4" x="175.13" y="181.55" width="11.05" height="9.4"/><rect class="cls-4" x="105.82" y="182.9" width="20.28" height="8.05" transform="translate(231.92 373.85) rotate(-180)"/><rect class="cls-4" x="92.75" y="181.64" width="11.01" height="9.31" transform="translate(196.5 372.59) rotate(-180)"/><rect class="cls-4" x="128.13" y="181.73" width="22.99" height="9.22" transform="translate(279.24 372.67) rotate(-180)"/><rect class="cls-4" x="128.13" y="165.78" width="22.92" height="13.98" transform="translate(279.17 345.54) rotate(-180)"/><rect class="cls-4" x="152.99" y="167.56" width="20.08" height="13.41"/><rect class="cls-4" x="105.82" y="167.56" width="20.28" height="13.41" transform="translate(231.92 348.54) rotate(-180)"/><rect class="cls-4" x="92.73" y="167.56" width="11.05" height="12.06"/><rect class="cls-6" x="96.03" y="186.01" width="3.42" height="4.56"/><rect class="cls-4" x="92.73" y="161.36" width="11.05" height="4.21"/><rect class="cls-4" x="105.82" y="163.43" width="20.25" height="2.13" transform="translate(231.89 329) rotate(-180)"/><rect class="cls-4" x="128.13" y="155.53" width="22.5" height="8.35" transform="translate(278.75 319.42) rotate(-180)"/><line class="cls-7" x1="126.55" y1="161.73" x2="139.35" y2="155.53"/><line class="cls-7" x1="151.57" y1="161.25" x2="138.87" y2="155.53"/><rect class="cls-4" x="153.08" y="163.77" width="20.01" height="1.93" transform="translate(326.17 329.47) rotate(-180)"/><line class="cls-7" x1="95.44" y1="167.56" x2="95.35" y2="180.46"/><line class="cls-7" x1="100.55" y1="167.56" x2="100.45" y2="180.46"/><line class="cls-8" x1="91.68" y1="163.22" x2="98.23" y2="160.96"/><line class="cls-8" x1="104.59" y1="163.48" x2="97.97" y2="160.96"/><polygon class="cls-9" points="96.28 168.41 94.6 168.41 94.12 167.02 96.67 167.03 96.28 168.41"/><polygon class="cls-9" points="101.39 168.41 99.71 168.41 99.23 167.02 101.78 167.03 101.39 168.41"/><line class="cls-10" x1="132.44" y1="166.64" x2="132.33" y2="180.57"/><polygon class="cls-9" points="133.35 166.9 131.43 166.9 130.88 165.17 133.79 165.18 133.35 166.9"/><polygon class="cls-9" points="147.4 166.9 145.48 166.9 144.93 165.17 147.84 165.18 147.4 166.9"/><line class="cls-10" x1="146.47" y1="165.32" x2="146.35" y2="180.59"/><rect class="cls-4" x="175.24" y="167.41" width="11.05" height="12.06"/><line class="cls-7" x1="177.95" y1="167.41" x2="177.85" y2="180.31"/><line class="cls-7" x1="183.06" y1="167.41" x2="182.96" y2="180.31"/><polygon class="cls-9" points="178.84 168.25 177.16 168.25 176.68 166.87 179.22 166.88 178.84 168.25"/><polygon class="cls-9" points="183.9 168.25 182.22 168.25 181.74 166.87 184.28 166.88 183.9 168.25"/><rect class="cls-4" x="175.18" y="161.36" width="11.05" height="4.21"/><line class="cls-8" x1="174.13" y1="163.22" x2="180.68" y2="160.96"/><line class="cls-8" x1="187.04" y1="163.48" x2="180.42" y2="160.96"/><line class="cls-11" x1="139.07" y1="149.14" x2="139.07" y2="154.93"/><rect class="cls-12" x="135.83" y="149.25" width="3.23" height="2.43"/><rect class="cls-2" x="107.73" y="186.92" width="1.23" height="2.57" rx="0.23" ry="0.23"/><rect class="cls-2" x="121.78" y="186.92" width="1.23" height="2.57" rx="0.23" ry="0.23"/><rect class="cls-2" x="107.73" y="177.19" width="1.23" height="2.57" rx="0.23" ry="0.23"/><rect class="cls-2" x="107.73" y="168.68" width="1.23" height="2.57" rx="0.23" ry="0.23"/><rect class="cls-2" x="114.73" y="177.19" width="1.23" height="2.57" rx="0.23" ry="0.23"/><rect class="cls-2" x="114.73" y="168.68" width="1.23" height="2.57" rx="0.23" ry="0.23"/><rect class="cls-2" x="121.78" y="177.19" width="1.23" height="2.57" rx="0.23" ry="0.23"/><rect class="cls-2" x="121.78" y="168.68" width="1.23" height="2.57" rx="0.23" ry="0.23"/><rect class="cls-2" x="107.73" y="184.49" width="1.23" height="0.74" rx="0.23" ry="0.23"/><rect class="cls-2" x="121.78" y="184.49" width="1.23" height="0.74" rx="0.23" ry="0.23"/><rect class="cls-2" x="107.73" y="173.54" width="1.23" height="0.74" rx="0.23" ry="0.23"/><rect class="cls-2" x="114.73" y="173.64" width="1.23" height="0.74" rx="0.23" ry="0.23"/><rect class="cls-2" x="121.78" y="173.54" width="1.23" height="0.74" rx="0.23" ry="0.23"/><rect class="cls-2" x="154.99" y="177.19" width="1.23" height="2.57" rx="0.23" ry="0.23"/><rect class="cls-2" x="154.99" y="168.68" width="1.23" height="2.57" rx="0.23" ry="0.23"/><rect class="cls-2" x="161.99" y="177.19" width="1.23" height="2.57" rx="0.23" ry="0.23"/><rect class="cls-2" x="161.99" y="168.68" width="1.23" height="2.57" rx="0.23" ry="0.23"/><rect class="cls-2" x="169.04" y="177.19" width="1.23" height="2.57" rx="0.23" ry="0.23"/><rect class="cls-2" x="169.04" y="168.68" width="1.23" height="2.57" rx="0.23" ry="0.23"/><rect class="cls-2" x="154.99" y="173.54" width="1.23" height="0.74" rx="0.23" ry="0.23"/><rect class="cls-2" x="161.99" y="173.64" width="1.23" height="0.74" rx="0.23" ry="0.23"/><rect class="cls-2" x="169.04" y="173.54" width="1.23" height="0.74" rx="0.23" ry="0.23"/><rect class="cls-2" x="154.99" y="186.92" width="1.23" height="2.57" rx="0.23" ry="0.23"/><rect class="cls-2" x="169.04" y="186.92" width="1.23" height="2.57" rx="0.23" ry="0.23"/><rect class="cls-2" x="154.99" y="184.49" width="1.23" height="0.74" rx="0.23" ry="0.23"/><rect class="cls-2" x="169.04" y="184.49" width="1.23" height="0.74" rx="0.23" ry="0.23"/><ellipse class="cls-13" cx="97.74" cy="186.37" rx="1.47" ry="1.28"/><rect class="cls-6" x="113.91" y="186.01" width="3.42" height="4.56"/><ellipse class="cls-13" cx="115.62" cy="186.37" rx="1.47" ry="1.28"/><rect class="cls-6" x="161.17" y="186.01" width="3.42" height="4.56"/><ellipse class="cls-13" cx="162.88" cy="186.37" rx="1.47" ry="1.28"/><rect class="cls-6" x="179.05" y="186.01" width="3.42" height="4.56"/><ellipse class="cls-13" cx="180.76" cy="186.37" rx="1.47" ry="1.28"/><rect class="cls-6" x="137.49" y="186.17" width="4.33" height="5.37"/><ellipse class="cls-13" cx="139.65" cy="186.6" rx="1.86" ry="1.5"/><line class="cls-14" x1="132.95" y1="178.48" x2="146.37" y2="178.48"/><rect class="cls-6" x="137.49" y="172.79" width="4.33" height="5"/><ellipse class="cls-13" cx="139.65" cy="173.22" rx="1.86" ry="1.5"/><ellipse class="cls-15" cx="98.35" cy="143.48" rx="4.16" ry="3.96"/><polyline class="cls-16" points="227.93 114.74 227.93 265.91 67.66 265.91 67.66 72.43 186.17 72.43"/><polyline class="cls-11" points="186.17 72.43 227.93 72.43 227.93 110.99"/><rect class="cls-17" x="173.06" y="68.41" width="58.67" height="46.6"/><line class="cls-18" x1="170.21" y1="72.43" x2="227.93" y2="117.49"/><rect class="cls-2" x="108.96" y="233.89" width="74.05" height="35.95"/><text class="cls-19" transform="translate(115.53 264.01) scale(1.05 1)">GIF</text><text class="cls-19" transform="translate(65 330.24) scale(1.05 1)">MAKING</text></svg>